G04*
G04 #@! TF.GenerationSoftware,Altium Limited,Altium Designer,24.7.2 (38)*
G04*
G04 Layer_Color=8388736*
%FSLAX44Y44*%
%MOMM*%
G71*
G04*
G04 #@! TF.SameCoordinates,6DF0CBF5-DEE5-4F27-B30F-A21075B38201*
G04*
G04*
G04 #@! TF.FilePolarity,Negative*
G04*
G01*
G75*
G36*
X396404Y491822D02*
X396881Y491481D01*
X397018Y490662D01*
X396881Y490253D01*
X396949Y478863D01*
X396881Y473202D01*
X397018Y472793D01*
X396881Y467746D01*
X396949Y463176D01*
X396881Y457515D01*
X397018Y457106D01*
X396881Y451649D01*
X397018Y450695D01*
X397154Y450285D01*
X397018Y449740D01*
X396813Y449535D01*
X396267Y449399D01*
X395312Y449262D01*
X394903Y449399D01*
X392653Y449330D01*
X391084Y449399D01*
X390675Y449262D01*
X389310Y449399D01*
X388560Y450012D01*
X388151Y450422D01*
X388015Y450695D01*
X387196Y452195D01*
X386923Y452468D01*
X386105Y453968D01*
X385559Y454514D01*
X385286Y455196D01*
X384877Y455878D01*
X384195Y456560D01*
X383922Y457515D01*
X383513Y458197D01*
X382967Y458742D01*
X382558Y459697D01*
X382422Y459970D01*
X381808Y460720D01*
X381603Y460925D01*
X381331Y461607D01*
X380785Y462562D01*
X380239Y463108D01*
X379762Y464403D01*
X378875Y465290D01*
X378534Y466177D01*
X377989Y466995D01*
X377784Y467063D01*
X377375Y468018D01*
X376965Y468700D01*
X376283Y469382D01*
X375806Y470678D01*
X375465Y471156D01*
X375056Y471565D01*
X374237Y473065D01*
X373692Y473611D01*
X373487Y474361D01*
X373351Y474907D01*
X373146Y475112D01*
X373078Y475316D01*
X372805Y475453D01*
X372532Y475725D01*
X372259Y475862D01*
X371850Y476271D01*
X371305Y476408D01*
X371032Y476271D01*
X370827Y476067D01*
X370964Y474839D01*
X371100Y474430D01*
X370964Y473884D01*
X371032Y471633D01*
X370895Y471088D01*
X370827Y470337D01*
X370964Y469928D01*
X371100Y468973D01*
X370964Y467473D01*
X370827Y467063D01*
X371032Y465768D01*
X371100Y465154D01*
X370964Y464744D01*
X370827Y464199D01*
X371032Y463176D01*
X371100Y462562D01*
X370964Y462153D01*
X370827Y461607D01*
X371032Y460584D01*
X371100Y459970D01*
X370964Y459561D01*
X370827Y459015D01*
X371032Y457992D01*
X371100Y457379D01*
X370964Y456969D01*
X370827Y456424D01*
X370964Y455332D01*
X371100Y454923D01*
X370895Y454036D01*
X370827Y453286D01*
X370964Y452877D01*
X371100Y452331D01*
X370827Y451376D01*
X370964Y450695D01*
X371100Y450285D01*
X370964Y449603D01*
X370350Y449399D01*
X369395Y449262D01*
X367212Y449399D01*
X364621Y449262D01*
X364211Y449399D01*
X363666Y449535D01*
X363461Y449740D01*
X363325Y450285D01*
X363870Y451513D01*
X363734Y452058D01*
X363870Y461198D01*
X364007Y461334D01*
X363870Y461744D01*
X363461Y462698D01*
X363597Y463381D01*
X363870Y464062D01*
X363734Y464881D01*
X363461Y465563D01*
X363597Y466518D01*
X363734Y466927D01*
X363870Y491481D01*
X364075Y491685D01*
X365166Y491958D01*
X367349Y491822D01*
X371236Y491890D01*
X371646Y491617D01*
X371782Y491344D01*
X372396Y490594D01*
X372737Y490253D01*
X373010Y489571D01*
X373351Y488684D01*
X373965Y488070D01*
X374101Y487798D01*
X374919Y486297D01*
X375329Y485888D01*
X375465Y485615D01*
X376283Y484115D01*
X376693Y483705D01*
X377238Y482341D01*
X377443Y482000D01*
X377716Y481864D01*
X378193Y481386D01*
X378398Y480636D01*
X378534Y480090D01*
X378739Y479886D01*
X378875Y479613D01*
X379353Y479272D01*
X380171Y477635D01*
X380512Y477294D01*
X380649Y477021D01*
X381331Y475794D01*
X381876Y475248D01*
X382013Y474975D01*
X382285Y474293D01*
X382831Y473338D01*
X383240Y472929D01*
X383650Y471974D01*
X384059Y471292D01*
X384741Y470610D01*
X384877Y470065D01*
X385764Y468769D01*
X385969Y468564D01*
X386105Y468018D01*
X386787Y467063D01*
X387060Y466791D01*
X387333Y466109D01*
X387469Y465563D01*
X387878Y464881D01*
X388492Y464676D01*
X389038Y464540D01*
X389515Y464881D01*
X389651Y465427D01*
X389788Y491481D01*
X389856Y491549D01*
X389924Y491617D01*
X390538Y491822D01*
X391970Y491890D01*
X394903Y491822D01*
X395312Y491958D01*
X396404Y491822D01*
D02*
G37*
G36*
X342386D02*
X342590Y491617D01*
X342181Y490935D01*
X341908Y490662D01*
X341636Y489980D01*
X341499Y489435D01*
X340885Y488684D01*
X340544Y488343D01*
X339726Y486843D01*
X339180Y486297D01*
X339044Y485888D01*
X338976Y485820D01*
X338294Y484728D01*
X338089Y484524D01*
X337953Y484251D01*
X337271Y483023D01*
X336861Y482614D01*
X336725Y482341D01*
X335906Y480841D01*
X335224Y480159D01*
X334815Y479067D01*
X334542Y478795D01*
X334406Y478522D01*
X334133Y478249D01*
X333724Y477294D01*
X333587Y477021D01*
X332633Y476067D01*
X332428Y475316D01*
X331951Y474566D01*
X331405Y474020D01*
X330587Y472520D01*
X330177Y472111D01*
X329836Y471224D01*
X329563Y470542D01*
X328677Y469655D01*
X328404Y468973D01*
X327790Y468223D01*
X327586Y468018D01*
X327313Y467336D01*
X327176Y465154D01*
X327244Y449808D01*
X326972Y449399D01*
X326426Y449262D01*
X323834Y449399D01*
X320356Y449330D01*
X319537Y449467D01*
X319265Y449603D01*
X319128Y450149D01*
X319333Y450899D01*
X319401Y451649D01*
X319265Y452058D01*
X319333Y454173D01*
X319265Y455742D01*
X319401Y456151D01*
X319265Y457924D01*
X319401Y459288D01*
X319265Y459697D01*
X319333Y462085D01*
X319265Y463653D01*
X319401Y464062D01*
X319265Y465154D01*
X319128Y465290D01*
X319265Y465699D01*
X319401Y466654D01*
X319265Y467063D01*
X318583Y468018D01*
X318310Y468700D01*
X317901Y469382D01*
X317491Y469792D01*
X317355Y470065D01*
X316673Y471292D01*
X316264Y471701D01*
X316127Y471974D01*
X315309Y473475D01*
X314627Y474430D01*
X314149Y475316D01*
X313876Y475453D01*
X313535Y475794D01*
X313263Y476476D01*
X312922Y477362D01*
X312171Y478113D01*
X311830Y478999D01*
X311489Y479477D01*
X310807Y480159D01*
X310603Y480909D01*
X310125Y481659D01*
X309443Y482341D01*
X309102Y483228D01*
X308693Y483910D01*
X308488Y483978D01*
X308352Y484251D01*
X307533Y485751D01*
X306988Y486297D01*
X306579Y487252D01*
X306442Y487525D01*
X305828Y488275D01*
X305624Y488480D01*
X304669Y490253D01*
X304260Y490662D01*
X304123Y491208D01*
X304260Y491754D01*
X304874Y491958D01*
X307465Y491822D01*
X312308Y491890D01*
X312785Y491685D01*
X313535Y491071D01*
X313945Y490662D01*
X314217Y489980D01*
X314763Y489025D01*
X315172Y488616D01*
X315718Y487252D01*
X316673Y485888D01*
X317218Y484933D01*
X317628Y484524D01*
X317764Y484251D01*
X318037Y483569D01*
X318378Y482682D01*
X318719Y482205D01*
X319265Y481659D01*
X319674Y480704D01*
X319810Y480432D01*
X320492Y479477D01*
X321311Y477976D01*
X321584Y477703D01*
X321856Y477021D01*
X322334Y475725D01*
X323016Y475453D01*
X323698Y475589D01*
X324448Y476203D01*
X324721Y476476D01*
X325198Y477772D01*
X326085Y478658D01*
X326358Y479340D01*
X327176Y480841D01*
X327722Y482068D01*
X328131Y482751D01*
X328677Y483296D01*
X328950Y483978D01*
X329495Y484933D01*
X329905Y485342D01*
X330314Y486297D01*
X330587Y486979D01*
X331200Y487729D01*
X331405Y487934D01*
X331746Y488821D01*
X331951Y489298D01*
X332496Y489844D01*
X332633Y490117D01*
X333315Y491344D01*
X333656Y491685D01*
X334201Y491822D01*
X335634Y491890D01*
X341295Y491822D01*
X341704Y491958D01*
X342386Y491822D01*
D02*
G37*
G36*
X504440D02*
X530971Y491890D01*
X531448Y491549D01*
X531585Y491003D01*
X531653Y490389D01*
X531517Y489980D01*
X531585Y486774D01*
X531448Y485547D01*
X531176Y485138D01*
X530630Y485001D01*
X529402Y485138D01*
X528993Y485001D01*
X528447Y484865D01*
X527424Y485069D01*
X524355Y485138D01*
X523946Y485001D01*
X522991Y484865D01*
X522445Y485001D01*
X521491Y485138D01*
X518490Y485001D01*
X518080Y484865D01*
X516921Y485069D01*
X513852Y485138D01*
X513442Y485001D01*
X512897Y484865D01*
X511601Y485069D01*
X509896Y485138D01*
X509487Y485001D01*
X508600Y484524D01*
X508327Y483842D01*
X508259Y480909D01*
X508327Y478931D01*
X508191Y478522D01*
X508327Y477976D01*
X508259Y475862D01*
X508600Y475384D01*
X509487Y475043D01*
X523264D01*
X529948Y474907D01*
X530153Y474702D01*
X530016Y468973D01*
X529675Y468496D01*
X528857Y468223D01*
X528447Y468359D01*
X527492Y468496D01*
X525310Y468359D01*
X524901Y468496D01*
X522650Y468428D01*
X521218Y468496D01*
X520808Y468359D01*
X518626Y468496D01*
X518217Y468359D01*
X516034Y468496D01*
X515625Y468359D01*
X513442Y468496D01*
X513033Y468359D01*
X510578Y468496D01*
X510169Y468359D01*
X508873Y468155D01*
X508600Y467882D01*
X508327Y466927D01*
X508259Y462630D01*
X508327Y460516D01*
X508191Y460107D01*
X508327Y459561D01*
X508464Y456833D01*
X509077Y456083D01*
X510169Y455810D01*
X512351Y455946D01*
X512760Y456083D01*
X514397Y455810D01*
X516171Y455946D01*
X516580Y456083D01*
X517739Y455878D01*
X519444Y455810D01*
X519854Y455946D01*
X520808Y456083D01*
X521354Y455946D01*
X522309Y455810D01*
X524082Y455946D01*
X524492Y456083D01*
X525651Y455878D01*
X527356Y455810D01*
X527765Y455946D01*
X528720Y456083D01*
X529129Y455946D01*
X530084Y455810D01*
X532267Y455673D01*
X532472Y455469D01*
X532608Y454923D01*
X532472Y452604D01*
X532335Y452195D01*
X532472Y451786D01*
X532676Y450763D01*
X532744Y450012D01*
X532267Y449399D01*
X506281Y449330D01*
X503621Y449399D01*
X503485Y449262D01*
X503075Y449399D01*
X501166Y449262D01*
X500484Y449671D01*
X500415Y451104D01*
X500552Y451513D01*
X500415Y451922D01*
X500552Y491481D01*
X501029Y491958D01*
X504440Y491822D01*
D02*
G37*
G36*
X64112Y492231D02*
X68068Y492094D01*
X68477Y491958D01*
X69568Y491685D01*
X71342Y490867D01*
X72160Y490730D01*
X73524Y489776D01*
X74752Y489094D01*
X75570Y488275D01*
X75843Y488139D01*
X76593Y487525D01*
X77003Y487116D01*
X77139Y486843D01*
X77753Y486092D01*
X78230Y485615D01*
X78503Y484933D01*
X78844Y484046D01*
X79049Y483842D01*
X79185Y483569D01*
X79458Y483296D01*
X80004Y481523D01*
X79867Y480704D01*
X79663Y480500D01*
X78981Y480227D01*
X77685Y479749D01*
X77071Y479545D01*
X76525Y479408D01*
X74616Y479272D01*
X73661Y478726D01*
X72979Y478454D01*
X72706Y478590D01*
X72501Y478795D01*
X72228Y479477D01*
X71683Y480432D01*
X71137Y481250D01*
X71001Y481796D01*
X70592Y482205D01*
X70455Y482478D01*
X70114Y482819D01*
X69841Y482955D01*
X69296Y483501D01*
X69023Y483637D01*
X68204Y484456D01*
X67522Y484728D01*
X66636Y484933D01*
X65954Y485206D01*
X65749Y485410D01*
X65203Y485547D01*
X64794Y485683D01*
X64248Y485820D01*
X61520Y485683D01*
X61111Y485547D01*
X60156Y485410D01*
X58656Y484728D01*
X57701Y484183D01*
X57155Y483637D01*
X56882Y483501D01*
X56132Y482887D01*
X54768Y481523D01*
X54222Y480568D01*
X53813Y480159D01*
X53404Y478795D01*
X53063Y477908D01*
X52449Y475930D01*
X52313Y474566D01*
X52176Y471565D01*
X52313Y466381D01*
X52449Y465972D01*
X52586Y464608D01*
X52722Y463790D01*
X52995Y463517D01*
X53131Y463244D01*
X53404Y462562D01*
X53540Y462016D01*
X53745Y461130D01*
X54086Y460652D01*
X55041Y459288D01*
X55177Y459015D01*
X56064Y458129D01*
X56337Y457992D01*
X57019Y457310D01*
X57292Y457174D01*
X57565Y456901D01*
X58860Y456424D01*
X59065Y456219D01*
X59338Y456083D01*
X59611Y455810D01*
X60156Y455673D01*
X61520Y455537D01*
X63771Y455469D01*
X64999Y455605D01*
X65681Y455742D01*
X66772Y456424D01*
X67863Y456833D01*
X68341Y457174D01*
X69023Y457856D01*
X69296Y457992D01*
X70046Y458742D01*
X70182Y459015D01*
X70728Y459561D01*
X71001Y460243D01*
X71410Y460925D01*
X72092Y461880D01*
X72228Y462426D01*
X72433Y463994D01*
X72706Y464403D01*
X73934Y464267D01*
X74616Y463858D01*
X75298Y463585D01*
X76389Y463312D01*
X77412Y463108D01*
X79390Y462221D01*
X80276Y461744D01*
X80413Y461334D01*
X79731Y459834D01*
X79526Y458947D01*
X78844Y457856D01*
X78503Y457106D01*
X78162Y456219D01*
X77412Y455469D01*
X76866Y454514D01*
X76048Y453695D01*
X75980Y453491D01*
X75707Y453354D01*
X75434Y453082D01*
X75161Y452945D01*
X74070Y451854D01*
X73797Y451717D01*
X73047Y451104D01*
X72706Y450763D01*
X71819Y450558D01*
X71274Y450422D01*
X69910Y449603D01*
X69159Y449399D01*
X67795Y449262D01*
X66568Y449126D01*
X66158Y448989D01*
X64385Y448853D01*
X63839Y448989D01*
X60566Y448853D01*
X60156Y448989D01*
X58587Y449194D01*
X57360Y449330D01*
X56814Y449467D01*
X55996Y450012D01*
X55791Y450217D01*
X54154Y450626D01*
X53472Y451035D01*
X52517Y451717D01*
X51835Y451990D01*
X51221Y452468D01*
X51085Y452741D01*
X50880Y452945D01*
X50608Y453082D01*
X49721Y453968D01*
X49653Y454173D01*
X49380Y454309D01*
X48493Y455196D01*
X48357Y455469D01*
X47675Y456151D01*
X47402Y456833D01*
X46856Y457788D01*
X46311Y458333D01*
X46038Y459288D01*
X45629Y460379D01*
X44947Y461880D01*
X44810Y462426D01*
X44674Y463381D01*
X44538Y463926D01*
X44333Y465768D01*
X44060Y466450D01*
X43855Y467200D01*
X43719Y467746D01*
X43855Y473202D01*
X43992Y473611D01*
X44128Y474157D01*
X44469Y476408D01*
X44606Y476953D01*
X44947Y479204D01*
X45629Y480704D01*
X46174Y482068D01*
X46856Y483296D01*
X47129Y483569D01*
X47402Y484251D01*
X47948Y485206D01*
X48221Y485479D01*
X48289Y485547D01*
X48630Y485888D01*
X48766Y486161D01*
X49243Y486774D01*
X49516Y486911D01*
X50130Y487525D01*
X50267Y487798D01*
X50471Y488002D01*
X50744Y488139D01*
X51494Y488753D01*
X51972Y489230D01*
X52654Y489503D01*
X53199Y489639D01*
X53950Y490253D01*
X54154Y490458D01*
X54836Y490730D01*
X55382Y490867D01*
X56132Y491071D01*
X56951Y491617D01*
X57837Y491958D01*
X60020Y492094D01*
X61384Y492231D01*
X63566Y492367D01*
X64112Y492231D01*
D02*
G37*
G36*
X189335Y491822D02*
X202226Y491890D01*
X204545Y491617D01*
X206386Y491685D01*
X207341Y491276D01*
X207887Y491140D01*
X209524Y491003D01*
X209933Y490867D01*
X211365Y490526D01*
X212116Y489776D01*
X213343Y489094D01*
X214776Y487661D01*
X214912Y487388D01*
X215867Y486433D01*
X216412Y484933D01*
X216958Y484387D01*
X217231Y483433D01*
X217367Y481523D01*
X217504Y481114D01*
Y480022D01*
Y479886D01*
X217640Y478113D01*
X217504Y476749D01*
X217367Y476203D01*
X217231Y474293D01*
X215594Y471156D01*
X215389Y470815D01*
X215185Y470746D01*
X215048Y470474D01*
X214503Y469928D01*
X214366Y469655D01*
X214162Y469314D01*
X213889Y469178D01*
X213616Y468905D01*
X213343Y468769D01*
X212661Y468087D01*
X212388Y467950D01*
X211161Y467405D01*
X210888Y467268D01*
X209933Y466586D01*
X208842Y466313D01*
X206796Y466177D01*
X206386Y466040D01*
X205022Y465904D01*
X200862Y465699D01*
X200112Y465495D01*
X198611Y465631D01*
X198202Y465768D01*
X196701Y465631D01*
X196292Y465495D01*
X195065Y465631D01*
X194655Y465768D01*
X193973Y465358D01*
X193632Y464472D01*
X193564Y462903D01*
X193632Y449876D01*
X193291Y449399D01*
X192336Y449262D01*
X190972Y449399D01*
X190631Y449330D01*
X187971Y449399D01*
X187562Y449262D01*
X187016Y449399D01*
X185652Y449535D01*
X185311Y449740D01*
X185175Y450285D01*
X185448Y451376D01*
X185311Y452331D01*
X185448Y452741D01*
X185584Y453286D01*
X185448Y454923D01*
X185311Y455332D01*
X185380Y457037D01*
X185311Y458197D01*
X185448Y458606D01*
X185311Y459152D01*
X185448Y460789D01*
X185584Y461198D01*
X185448Y462698D01*
X185311Y463108D01*
X185380Y464813D01*
X185311Y465972D01*
X185448Y466381D01*
X185311Y466927D01*
X185448Y468700D01*
X185584Y469110D01*
X185448Y470610D01*
X185311Y471019D01*
X185380Y472724D01*
X185311Y473884D01*
X185448Y474293D01*
X185311Y474839D01*
X185448Y476476D01*
X185584Y476885D01*
X185448Y478522D01*
X185311Y478931D01*
X185380Y480636D01*
X185311Y481659D01*
X185448Y482068D01*
X185311Y482614D01*
X185448Y484387D01*
X185584Y484797D01*
X185448Y486297D01*
X185311Y486706D01*
X185380Y488957D01*
X185311Y490389D01*
X185448Y490799D01*
X185857Y491481D01*
X186061Y491685D01*
X187153Y491958D01*
X189335Y491822D01*
D02*
G37*
G36*
X294370D02*
X297303Y491890D01*
X297848Y491754D01*
X298258Y491344D01*
X298394Y489571D01*
X298258Y488207D01*
X298394Y487798D01*
X298326Y451035D01*
X298394Y449876D01*
X298053Y449399D01*
X297507Y449262D01*
X294916Y449399D01*
X292392Y449330D01*
X291506Y449399D01*
X291096Y449262D01*
X290141Y449399D01*
X289800Y449603D01*
X289118Y450831D01*
X288846Y450967D01*
X288709Y451240D01*
X288300Y452195D01*
X287891Y452877D01*
X287209Y453832D01*
X286936Y454514D01*
X286799Y454787D01*
X286185Y455537D01*
X285981Y455742D01*
X285708Y456424D01*
X285299Y457106D01*
X285026Y457379D01*
X284890Y457651D01*
X284617Y457924D01*
X284344Y458606D01*
X284208Y458879D01*
X283526Y459561D01*
X283389Y459834D01*
X283116Y460516D01*
X282571Y461471D01*
X282162Y461880D01*
X282025Y462153D01*
X281752Y462835D01*
X281343Y463517D01*
X280661Y464199D01*
X280525Y464744D01*
X279638Y466040D01*
X279433Y466245D01*
X279092Y467132D01*
X278751Y467609D01*
X278342Y468018D01*
X278206Y468291D01*
X277933Y468973D01*
X277796Y469246D01*
Y469382D01*
X277183Y470133D01*
X276910Y470269D01*
X276569Y471019D01*
X276228Y471906D01*
X275887Y472383D01*
X275341Y472929D01*
X275068Y473611D01*
X274523Y474157D01*
X274386Y474430D01*
X273977Y475384D01*
X273704Y476067D01*
X273363Y476408D01*
X272681Y476271D01*
X272340Y475930D01*
X272204Y474975D01*
X272272Y449808D01*
X271999Y449399D01*
X271453Y449262D01*
X268452Y449399D01*
X265247Y449330D01*
X264837Y449603D01*
X264701Y450149D01*
X264837Y452331D01*
X264769Y490867D01*
X264906Y491549D01*
X265315Y491958D01*
X268725Y491822D01*
X271658Y491890D01*
X272204Y491754D01*
X272954Y491276D01*
X273431Y490799D01*
X273704Y490117D01*
X274113Y489435D01*
X274386Y489162D01*
X274523Y488889D01*
X275205Y487661D01*
X275750Y487116D01*
X275887Y486843D01*
X276296Y485888D01*
X276705Y485206D01*
X277114Y484797D01*
X277251Y484524D01*
X278069Y483023D01*
X278615Y482478D01*
X279092Y481182D01*
X279842Y480432D01*
X280115Y479749D01*
X280661Y478795D01*
X280934Y478658D01*
X281070Y478385D01*
X281479Y477430D01*
X282025Y476476D01*
X282434Y476067D01*
X282843Y475112D01*
X282980Y474839D01*
X283594Y474089D01*
X283798Y473884D01*
X284071Y473202D01*
X284480Y472520D01*
X284753Y472247D01*
X284890Y471974D01*
X285162Y471701D01*
X285981Y470201D01*
X287209Y467882D01*
X287754Y467336D01*
X288436Y466109D01*
X288982Y465563D01*
X289664Y464335D01*
X290278Y464131D01*
X290892Y464608D01*
X291028Y465563D01*
X290892Y467336D01*
X291028Y491617D01*
X291233Y491822D01*
X291778Y491958D01*
X294370Y491822D01*
D02*
G37*
G36*
X481659D02*
X489776Y491890D01*
X490321Y491754D01*
X490594Y491617D01*
X490867Y490935D01*
X490730Y449603D01*
X490526Y449399D01*
X489980Y449262D01*
X487798Y449399D01*
X483910Y449330D01*
X483433Y449671D01*
X483364Y451104D01*
X483501Y451513D01*
X483364Y452468D01*
X483433Y479818D01*
X483296Y480363D01*
X483092Y480841D01*
X482751Y481182D01*
X482341Y481045D01*
X482137Y480841D01*
X481864Y479886D01*
X481659Y478590D01*
X481523Y477908D01*
X480500Y474702D01*
X480295Y472997D01*
X480159Y472452D01*
X479886Y471770D01*
X479408Y470610D01*
X479272Y469655D01*
X478931Y467405D01*
X478658Y466722D01*
X478044Y465290D01*
X477703Y462630D01*
X477567Y462085D01*
X477158Y460993D01*
X476817Y460243D01*
X476544Y459152D01*
X476339Y457037D01*
X475930Y455946D01*
X475453Y454787D01*
X475316Y454241D01*
X475180Y453286D01*
X475043Y451649D01*
X474634Y450695D01*
X474020Y449535D01*
X472929Y449262D01*
X471565Y449399D01*
X469792Y449262D01*
X469382Y449399D01*
X466927Y449262D01*
X466450Y449603D01*
X466177Y450285D01*
X465972Y451445D01*
X465495Y452604D01*
X465222Y453559D01*
X465086Y454514D01*
X464881Y455673D01*
X464744Y456492D01*
X464199Y457856D01*
X463994Y458470D01*
X463858Y459015D01*
X463653Y460584D01*
X463517Y461266D01*
X463381Y461812D01*
X462971Y462903D01*
X462630Y463790D01*
X462289Y466040D01*
X462153Y466722D01*
X462016Y467268D01*
X461539Y468428D01*
X461266Y469382D01*
X460925Y471633D01*
X460652Y472315D01*
X460038Y473747D01*
X459902Y475794D01*
X459766Y476203D01*
X459629Y477294D01*
X458674Y478658D01*
X458470Y480363D01*
X457992Y481114D01*
X457515Y481182D01*
X457174Y480841D01*
X457037Y480295D01*
X456901Y479340D01*
X457174Y475794D01*
X457242Y449944D01*
X456969Y449535D01*
X455878Y449262D01*
X454514Y449399D01*
X453491Y449330D01*
X452331Y449399D01*
X452058Y449262D01*
X451649Y449399D01*
X450422Y449262D01*
X449740Y449671D01*
X449671Y450695D01*
X449944Y451376D01*
X449808Y454378D01*
X449671Y454787D01*
X449808Y456151D01*
X449944Y456560D01*
X449808Y458197D01*
X449671Y458606D01*
Y459425D01*
X449740Y459493D01*
X449876Y460175D01*
X449944Y461471D01*
X449808Y461880D01*
X449671Y462835D01*
X449876Y464131D01*
X449944Y466791D01*
X449808Y467200D01*
X449671Y468155D01*
X449808Y469246D01*
X449944Y469655D01*
X449808Y471292D01*
X449671Y471701D01*
X449808Y473202D01*
X449944Y473611D01*
X449808Y475248D01*
X449671Y475657D01*
X449808Y477158D01*
X449944Y477567D01*
X449808Y480568D01*
X449671Y480977D01*
X449808Y482341D01*
X449944Y482751D01*
X449808Y485751D01*
X449671Y486161D01*
X449808Y487661D01*
X449944Y488070D01*
X449876Y489366D01*
X449944Y490389D01*
X449808Y490799D01*
X450081Y491481D01*
X450285Y491685D01*
X450831Y491822D01*
X452127Y491890D01*
X460379Y491822D01*
X460789Y491958D01*
X461880Y491822D01*
X462085Y491617D01*
X462357Y490935D01*
X462698Y490048D01*
X463176Y489162D01*
X463312Y488207D01*
X463449Y487661D01*
X463585Y486161D01*
X464403Y484251D01*
X464540Y483705D01*
X464813Y482068D01*
X465017Y481182D01*
X465154Y480500D01*
X465290Y479954D01*
X465904Y478795D01*
X466177Y476885D01*
X466313Y475794D01*
X467132Y474020D01*
X467268Y473065D01*
X467405Y472520D01*
X467541Y471292D01*
X467814Y470610D01*
X467950Y470337D01*
X468496Y469110D01*
X468632Y468564D01*
X468837Y466586D01*
X469041Y465290D01*
X469655Y464540D01*
X469996Y464199D01*
X470133Y463926D01*
X470746Y463722D01*
X471156Y463858D01*
X471360Y464062D01*
X471497Y465427D01*
X471701Y466586D01*
X471838Y467814D01*
X472111Y468496D01*
X472588Y469382D01*
X472861Y470474D01*
X473202Y473134D01*
X473475Y473816D01*
X473952Y474702D01*
X474225Y475657D01*
X474430Y477635D01*
X474839Y478726D01*
X475112Y479408D01*
X475453Y480568D01*
X475589Y481114D01*
X475794Y482819D01*
X475930Y483364D01*
X476203Y484046D01*
X476544Y484797D01*
X476817Y485751D01*
X476953Y486297D01*
X477090Y488070D01*
X477772Y489162D01*
X477976Y490048D01*
X478113Y490730D01*
X478249Y491276D01*
X478522Y491822D01*
X479067Y491958D01*
X481659Y491822D01*
D02*
G37*
G36*
X167374D02*
X175490Y491890D01*
X176035Y491754D01*
X176308Y491617D01*
X176581Y490935D01*
X176445Y449603D01*
X176240Y449399D01*
X175694Y449262D01*
X173512Y449399D01*
X169624Y449330D01*
X169079Y449740D01*
X169147Y451854D01*
X169079Y474839D01*
X169215Y475248D01*
X169079Y480295D01*
X168669Y480977D01*
X168465Y481182D01*
X168055Y481045D01*
X167851Y480841D01*
X167578Y479886D01*
X167374Y478590D01*
X167237Y477908D01*
X166214Y474702D01*
X166009Y472997D01*
X165873Y472452D01*
X165600Y471770D01*
X165123Y470610D01*
X164986Y469655D01*
X164645Y467405D01*
X164373Y466722D01*
X163759Y465290D01*
X163418Y462630D01*
X163281Y462085D01*
X162872Y460993D01*
X162531Y460243D01*
X162258Y459152D01*
X162054Y457037D01*
X161644Y455946D01*
X161167Y454787D01*
X161031Y454241D01*
X160894Y453286D01*
X160758Y451649D01*
X160348Y450695D01*
X159735Y449535D01*
X158643Y449262D01*
X157279Y449399D01*
X155506Y449262D01*
X155097Y449399D01*
X152641Y449262D01*
X152164Y449603D01*
X151891Y450285D01*
X151686Y451445D01*
X151209Y452604D01*
X150936Y453559D01*
X150800Y454514D01*
X150595Y455673D01*
X150459Y456492D01*
X149913Y457856D01*
X149709Y458470D01*
X149572Y459015D01*
X149368Y460584D01*
X149231Y461266D01*
X149095Y461812D01*
X148686Y462903D01*
X148344Y463790D01*
X148004Y466040D01*
X147867Y466722D01*
X147731Y467268D01*
X147253Y468428D01*
X146980Y469382D01*
X146639Y471633D01*
X146367Y472315D01*
X145753Y473747D01*
X145616Y475794D01*
X145480Y476203D01*
X145344Y477294D01*
X144457Y478590D01*
X144389Y478658D01*
X144184Y480363D01*
X143707Y481114D01*
X143229Y481182D01*
X142888Y480841D01*
X142752Y480295D01*
X142615Y479340D01*
X142888Y475794D01*
X142956Y449944D01*
X142683Y449535D01*
X141729Y449262D01*
X139137Y449399D01*
X137705Y449330D01*
X136954Y449399D01*
X136545Y449262D01*
X135727Y449399D01*
X135386Y449740D01*
X135522Y450967D01*
X135659Y451376D01*
X135522Y454378D01*
X135386Y454787D01*
X135522Y456151D01*
X135659Y456560D01*
X135522Y458197D01*
X135386Y458606D01*
X135522Y460107D01*
X135659Y460516D01*
X135522Y462153D01*
X135386Y462562D01*
X135522Y464062D01*
X135659Y464472D01*
X135522Y467473D01*
X135386Y467882D01*
X135522Y469246D01*
X135659Y469655D01*
X135522Y471292D01*
X135386Y471701D01*
X135522Y473202D01*
X135659Y473611D01*
X135522Y475248D01*
X135386Y475657D01*
X135522Y477158D01*
X135659Y477567D01*
X135522Y480568D01*
X135386Y480977D01*
X135522Y482341D01*
X135659Y482751D01*
X135522Y485751D01*
X135386Y486161D01*
X135522Y487661D01*
X135659Y488070D01*
X135590Y489366D01*
X135659Y490389D01*
X135522Y490799D01*
X135795Y491481D01*
X135999Y491685D01*
X136545Y491822D01*
X137841Y491890D01*
X146094Y491822D01*
X146503Y491958D01*
X147594Y491822D01*
X147799Y491617D01*
X148072Y490935D01*
X148413Y490048D01*
X148890Y489162D01*
X149026Y488207D01*
X149163Y487661D01*
X149299Y486161D01*
X150118Y484251D01*
X150254Y483705D01*
X150527Y482068D01*
X150732Y481182D01*
X150868Y480500D01*
X151004Y479954D01*
X151618Y478795D01*
X151891Y476885D01*
X152028Y475794D01*
X152846Y474020D01*
X152982Y473065D01*
X153119Y472520D01*
X153255Y471292D01*
X153528Y470610D01*
X153664Y470337D01*
X154210Y469110D01*
X154347Y468564D01*
X154551Y466586D01*
X154756Y465290D01*
X155370Y464540D01*
X155711Y464199D01*
X155847Y463926D01*
X156461Y463722D01*
X156870Y463858D01*
X157075Y464062D01*
X157211Y465427D01*
X157416Y466586D01*
X157552Y467814D01*
X157825Y468496D01*
X158302Y469382D01*
X158575Y470474D01*
X158916Y473134D01*
X159189Y473816D01*
X159666Y474702D01*
X159939Y475657D01*
X160144Y477635D01*
X160553Y478726D01*
X160826Y479408D01*
X161167Y480568D01*
X161303Y481114D01*
X161508Y482819D01*
X161644Y483364D01*
X161917Y484046D01*
X162258Y484797D01*
X162531Y485751D01*
X162667Y486297D01*
X162804Y488070D01*
X163486Y489162D01*
X163690Y490048D01*
X163827Y490730D01*
X163963Y491276D01*
X164236Y491822D01*
X164782Y491958D01*
X167374Y491822D01*
D02*
G37*
G36*
X422731D02*
X426891Y491890D01*
X427437Y491754D01*
X427846Y491481D01*
X428460Y489776D01*
X429005Y488957D01*
X429347Y488070D01*
X429688Y486638D01*
X430233Y485820D01*
X430438Y485615D01*
X430711Y484524D01*
X430983Y483296D01*
X431665Y482341D01*
X431938Y481659D01*
X432279Y480090D01*
X432620Y479613D01*
X433166Y478795D01*
X433643Y476680D01*
X433848Y476476D01*
X433984Y476203D01*
X434394Y475521D01*
X434666Y474566D01*
X434871Y473679D01*
X435349Y472929D01*
X435758Y472247D01*
X435894Y471701D01*
X436235Y470269D01*
X436781Y469451D01*
X437122Y468700D01*
X437258Y468155D01*
X437463Y467268D01*
X437736Y466586D01*
X438213Y466109D01*
X438486Y465427D01*
X438690Y464131D01*
X438963Y463449D01*
X439168Y463244D01*
X439304Y462971D01*
X439850Y461744D01*
X440191Y460311D01*
X440396Y460107D01*
X440532Y459834D01*
X440941Y459425D01*
X441146Y458538D01*
X441282Y457856D01*
X441419Y457310D01*
X442101Y456219D01*
X442442Y455332D01*
X442783Y453900D01*
X443328Y453082D01*
X443533Y452877D01*
X443806Y451786D01*
X443942Y450967D01*
X444351Y450558D01*
X444488Y450285D01*
X444624Y449876D01*
X444556Y449535D01*
X444010Y449399D01*
X443397Y449330D01*
X442919Y449399D01*
X442510Y449262D01*
X441146Y449399D01*
X436849Y449330D01*
X436303Y449467D01*
X436099Y449671D01*
X435894Y449740D01*
X435758Y450012D01*
X435212Y451240D01*
X434871Y452809D01*
X434666Y453013D01*
X434530Y453286D01*
X434121Y453695D01*
X433848Y454378D01*
X433575Y456151D01*
X432620Y457515D01*
X432484Y458060D01*
X431802Y459015D01*
X431597Y459220D01*
X430642Y459356D01*
X428323Y459220D01*
X427914Y459356D01*
X425732Y459220D01*
X425322Y459356D01*
X423140Y459220D01*
X422731Y459356D01*
X420548Y459220D01*
X420139Y459356D01*
X417820Y459220D01*
X417411Y459356D01*
X415774Y459220D01*
X414819Y458674D01*
X414342Y458333D01*
X414205Y458060D01*
X413796Y457106D01*
X413660Y456560D01*
X413523Y455469D01*
X412841Y454514D01*
X412568Y453832D01*
X412432Y453286D01*
X412295Y452331D01*
X411954Y451445D01*
X411613Y451104D01*
X411136Y449808D01*
X410863Y449399D01*
X410317Y449262D01*
X407317Y449399D01*
X405202Y449330D01*
X404043Y449399D01*
X403633Y449262D01*
X402815Y449399D01*
X402474Y449740D01*
X402610Y450422D01*
X402951Y450763D01*
X403224Y450899D01*
X403565Y451513D01*
X403702Y452468D01*
X403906Y453354D01*
X404384Y454105D01*
X404793Y455060D01*
X404997Y455810D01*
X405407Y456901D01*
X406021Y457924D01*
X406225Y458811D01*
X406362Y459493D01*
X406634Y460175D01*
X407112Y460789D01*
X407385Y461471D01*
X407521Y462426D01*
X407658Y462971D01*
X408067Y463653D01*
X408340Y463926D01*
X408612Y464608D01*
X408749Y465154D01*
X408953Y466040D01*
X409840Y468018D01*
X410113Y468973D01*
X410249Y469519D01*
X410522Y470201D01*
X411068Y471019D01*
X411340Y471701D01*
X411477Y472247D01*
X411682Y473270D01*
X412364Y474361D01*
X412705Y475248D01*
X412841Y475794D01*
X413046Y476953D01*
X413387Y477430D01*
X413660Y477703D01*
X413796Y477976D01*
X414069Y478658D01*
X414273Y479681D01*
X414546Y480363D01*
X415160Y481523D01*
X415433Y482614D01*
X415569Y483023D01*
Y483160D01*
X416251Y484387D01*
X416524Y485069D01*
X416660Y485615D01*
X416865Y486638D01*
X417342Y487388D01*
X417615Y487661D01*
X417888Y488616D01*
X418024Y489162D01*
X418229Y489912D01*
X418911Y491003D01*
X419116Y491208D01*
X419252Y491481D01*
X419593Y491822D01*
X420139Y491958D01*
X422731Y491822D01*
D02*
G37*
G36*
X235169D02*
X241648Y491890D01*
X242398Y491413D01*
X243012Y490799D01*
X243285Y490117D01*
X243421Y489571D01*
X243762Y488139D01*
X244103Y487661D01*
X244376Y487388D01*
X244649Y486706D01*
X244990Y485274D01*
X245195Y484797D01*
X245467Y484524D01*
X245604Y484251D01*
X245877Y483569D01*
X246150Y482478D01*
X246354Y481727D01*
X246832Y480977D01*
X247377Y479749D01*
X247582Y478726D01*
X248059Y477976D01*
X248605Y476749D01*
X248946Y475180D01*
X249423Y474430D01*
X249696Y474157D01*
X249969Y473202D01*
X250174Y472315D01*
X250446Y471633D01*
X250788Y471292D01*
X250924Y471019D01*
X251060Y470610D01*
X251333Y469519D01*
X251538Y468769D01*
X252220Y467677D01*
X252561Y466927D01*
X252697Y465972D01*
X253038Y465086D01*
X253516Y464608D01*
X253788Y463653D01*
X254061Y462562D01*
X255016Y461062D01*
X255221Y459766D01*
X255630Y458674D01*
X255835Y458470D01*
X255971Y458197D01*
X256380Y457242D01*
X256653Y456151D01*
X257199Y455196D01*
X257472Y454923D01*
X257744Y453968D01*
X257881Y452877D01*
X258699Y451376D01*
X259245Y450149D01*
X259108Y449603D01*
X258904Y449399D01*
X258358Y449262D01*
X255357Y449399D01*
X253243Y449330D01*
X252220Y449399D01*
X251810Y449262D01*
X250856Y449399D01*
X250378Y449876D01*
X250037Y451308D01*
X249151Y453286D01*
X249014Y453832D01*
X248810Y454719D01*
X248332Y455469D01*
X248059Y455742D01*
X247786Y456696D01*
X247650Y457651D01*
X247241Y458333D01*
X247036Y458538D01*
X246763Y458674D01*
X245536Y459220D01*
X244581Y459356D01*
X242398Y459220D01*
X241989Y459356D01*
X239807Y459220D01*
X239397Y459356D01*
X237215Y459220D01*
X236805Y459356D01*
X234487Y459220D01*
X234077Y459356D01*
X231895Y459220D01*
X231486Y459356D01*
X229849Y459220D01*
X229371Y458742D01*
X229098Y458060D01*
X228757Y457174D01*
X228416Y456696D01*
X228144Y456424D01*
X227871Y455469D01*
X227734Y454923D01*
X227598Y453832D01*
X226643Y452331D01*
X226370Y450695D01*
X226029Y449808D01*
X225756Y449535D01*
X225211Y449399D01*
X223847Y449262D01*
X222483Y449399D01*
X218186Y449330D01*
X217708Y449535D01*
X217504Y449740D01*
X217640Y450831D01*
X218186Y451786D01*
X218731Y452604D01*
X219072Y454173D01*
X219345Y454855D01*
X220096Y456560D01*
X220368Y457651D01*
X220709Y458538D01*
X220914Y458742D01*
X221050Y459015D01*
X221460Y459970D01*
X221596Y460516D01*
X221801Y461539D01*
X222278Y462289D01*
X222824Y463381D01*
Y463517D01*
X223028Y464813D01*
X223233Y465290D01*
X223847Y466040D01*
X224188Y466927D01*
X224392Y467950D01*
X224665Y468632D01*
X225279Y469655D01*
X225484Y470406D01*
X225620Y471224D01*
X225893Y471906D01*
X226098Y472111D01*
X226234Y472383D01*
X226643Y473338D01*
X226779Y473884D01*
X226984Y474771D01*
X227189Y475248D01*
X227598Y475657D01*
X228007Y476612D01*
X228212Y477772D01*
X229371Y480295D01*
X229712Y481864D01*
X229917Y482068D01*
X230053Y482341D01*
X230599Y483160D01*
X230804Y484456D01*
X230940Y485001D01*
X231145Y485479D01*
X231827Y486433D01*
X232099Y487525D01*
X232440Y488957D01*
X232645Y489162D01*
X232782Y489435D01*
X233054Y489707D01*
X233327Y490389D01*
X233532Y491276D01*
X233805Y491685D01*
X234350Y491822D01*
X234759Y491958D01*
X235169Y491822D01*
D02*
G37*
G36*
X113151Y492026D02*
X113969Y491890D01*
X115061Y491481D01*
X116493Y490867D01*
X117311Y490730D01*
X118266Y490185D01*
X118676Y489776D01*
X119358Y489503D01*
X120312Y488957D01*
X120858Y488411D01*
X121131Y488275D01*
X121881Y487661D01*
X122018Y487388D01*
X122222Y487184D01*
X122495Y487047D01*
X123245Y486297D01*
X123382Y486024D01*
X123586Y485820D01*
X123859Y485683D01*
X124200Y485342D01*
X124746Y484387D01*
X125428Y483705D01*
X125701Y482751D01*
X126246Y481796D01*
X126519Y481523D01*
X126792Y480841D01*
X126996Y479545D01*
X127133Y478999D01*
X127406Y478317D01*
X127883Y477430D01*
X128020Y476885D01*
X128224Y474634D01*
X128292Y466245D01*
X128156Y465836D01*
X128020Y464199D01*
X127883Y463790D01*
X127610Y463108D01*
X127201Y462153D01*
X127065Y461607D01*
X126724Y460038D01*
X126519Y459561D01*
X126110Y459152D01*
X125974Y458879D01*
X125701Y458197D01*
X125360Y457310D01*
X124473Y456424D01*
X124337Y456151D01*
X123723Y455401D01*
X121267Y452945D01*
X120995Y452809D01*
X120176Y451990D01*
X119289Y451649D01*
X118471Y450967D01*
X117721Y450626D01*
X116834Y450422D01*
X116220Y450217D01*
X116152Y450149D01*
X115947Y449944D01*
X115675Y449808D01*
X114720Y449399D01*
X112946Y449262D01*
X110832Y448921D01*
X107626Y448717D01*
X107217Y448853D01*
X103944Y448989D01*
X103534Y449126D01*
X100601Y449603D01*
X98896Y450490D01*
X98010Y450695D01*
X97532Y450899D01*
X96850Y451581D01*
X96577Y451717D01*
X95077Y452536D01*
X94395Y453218D01*
X94122Y453354D01*
X93508Y453832D01*
X93372Y454105D01*
X92621Y454855D01*
X92349Y454991D01*
X92144Y455196D01*
X91462Y456424D01*
X90780Y457106D01*
X90507Y457788D01*
X89962Y458742D01*
X89552Y459152D01*
X89279Y460107D01*
X89075Y460993D01*
X88939Y461539D01*
X88188Y462971D01*
X88052Y463926D01*
X87915Y466109D01*
X87643Y468018D01*
X87779Y474293D01*
X87915Y474702D01*
X88052Y477567D01*
X88325Y478249D01*
X89007Y479749D01*
X89211Y480636D01*
X89348Y481182D01*
X89621Y481864D01*
X90371Y482614D01*
X90507Y483160D01*
X90848Y484046D01*
X91871Y485069D01*
X92417Y486024D01*
X92826Y486297D01*
X92963Y486570D01*
X93372Y486979D01*
X93508Y487252D01*
X94258Y488002D01*
X94531Y488139D01*
X95281Y488753D01*
X95759Y489230D01*
X96032Y489366D01*
X97259Y490048D01*
X97532Y490321D01*
X97805Y490458D01*
X98487Y490730D01*
X99033Y490867D01*
X99851Y491003D01*
X101897Y491958D01*
X103261Y492094D01*
X106262Y492231D01*
X106808Y492367D01*
X113151Y492026D01*
D02*
G37*
G36*
X189881Y383240D02*
X192609Y383104D01*
X193291Y382831D01*
X194041Y382626D01*
X195133Y382354D01*
X195815Y382217D01*
X196360Y382081D01*
X197111Y381603D01*
X197383Y381331D01*
X198884Y380512D01*
X199088Y380308D01*
X199225Y380035D01*
X199430Y379830D01*
X199702Y379694D01*
X200316Y379080D01*
X200453Y378807D01*
X201066Y378057D01*
X201408Y377716D01*
X202362Y375942D01*
X202635Y375670D01*
X203044Y374169D01*
X203181Y373624D01*
X203522Y372737D01*
X203795Y372055D01*
X204136Y371168D01*
X204272Y367758D01*
X204408Y365985D01*
X204272Y362165D01*
X204067Y360460D01*
X203795Y359369D01*
X203181Y357937D01*
X202976Y357050D01*
X202840Y356504D01*
X202158Y355413D01*
X201953Y355208D01*
X201612Y354322D01*
X201135Y353571D01*
X200316Y352753D01*
X200180Y352480D01*
X199702Y352003D01*
X199430Y351866D01*
X198748Y351184D01*
X197520Y350502D01*
X196974Y349957D01*
X196019Y349684D01*
X195201Y349547D01*
X193700Y348865D01*
X192609Y348592D01*
X190427Y348456D01*
X176445Y348388D01*
X175899Y348524D01*
X175490Y348797D01*
X175353Y349343D01*
X175490Y351525D01*
Y380308D01*
Y380444D01*
X175422Y382285D01*
X175558Y382831D01*
X175831Y383240D01*
X176376Y383377D01*
X177945Y383308D01*
X189472Y383377D01*
X189881Y383240D01*
D02*
G37*
G36*
X63021D02*
X63566Y383104D01*
X63771Y382899D01*
X63907Y382354D01*
X63771Y357664D01*
X63498Y356982D01*
X63294Y355686D01*
X63089Y354935D01*
X62816Y353844D01*
X62475Y352958D01*
X61861Y352344D01*
X61248Y351184D01*
X60975Y351048D01*
X59747Y349820D01*
X58860Y349479D01*
X58383Y349138D01*
X57565Y348592D01*
X55928Y348320D01*
X54563Y348183D01*
X54018Y348047D01*
X51358Y347979D01*
X48562Y348320D01*
X47470Y348592D01*
X46106Y349547D01*
X44947Y350161D01*
X44810Y350434D01*
X43583Y351662D01*
X43310Y352344D01*
X42628Y353571D01*
X42218Y354526D01*
X42082Y355890D01*
X41877Y357186D01*
X41809Y358073D01*
X42287Y358823D01*
X42969Y359096D01*
X44469Y359232D01*
X45151Y359505D01*
X47743Y359642D01*
X48084Y359301D01*
X48221Y358755D01*
X48357Y356982D01*
X48493Y356572D01*
X48630Y356027D01*
X49312Y355072D01*
X49653Y354731D01*
X49926Y354594D01*
X50471Y354049D01*
X50744Y353912D01*
X51426Y353640D01*
X51972Y353503D01*
X54291Y353640D01*
X55041Y354254D01*
X55245Y354458D01*
X55518Y354594D01*
X56269Y355208D01*
X56541Y356163D01*
X56746Y357459D01*
X56882Y358278D01*
X57019Y358823D01*
X57155Y382558D01*
X57360Y382899D01*
X57428Y382967D01*
X57701Y383240D01*
X58656Y383377D01*
X60088Y383308D01*
X62612Y383377D01*
X63021Y383240D01*
D02*
G37*
G36*
X147321Y374101D02*
X148958Y373965D01*
X150732Y373146D01*
X151618Y372805D01*
X152232Y372191D01*
X152505Y372055D01*
X153255Y371305D01*
X153801Y370350D01*
X154074Y370077D01*
X154210Y369804D01*
X154347Y369395D01*
X154483Y368849D01*
X154619Y367076D01*
X154756Y365712D01*
X154824Y349002D01*
X154551Y348592D01*
X153596Y348320D01*
X151004Y348456D01*
X148686Y348592D01*
X148481Y348797D01*
X148344Y349343D01*
X148481Y351116D01*
Y361483D01*
Y361619D01*
X148344Y363802D01*
X148208Y366257D01*
X148072Y366667D01*
X147799Y367349D01*
X147185Y367962D01*
X146912Y368099D01*
X146708Y368304D01*
X146571Y368576D01*
X146230Y368917D01*
X145548Y369190D01*
X144593Y369327D01*
X142479Y369122D01*
X141797Y368849D01*
X141320Y368372D01*
X140365Y367826D01*
X140160Y367621D01*
X140024Y367349D01*
X139341Y366394D01*
X139069Y366121D01*
X138796Y365166D01*
X138591Y362506D01*
X138455Y350775D01*
X138387Y350707D01*
X138523Y350298D01*
X138659Y349070D01*
X138182Y348456D01*
X137159Y348388D01*
X134226Y348456D01*
X133817Y348320D01*
X132726Y348456D01*
X132248Y348797D01*
X132112Y349343D01*
X132248Y351935D01*
X132112Y352480D01*
X132248Y354663D01*
X132112Y355072D01*
X132248Y357391D01*
X132112Y357800D01*
X132248Y359983D01*
X132112Y360392D01*
X132248Y362574D01*
X132112Y362984D01*
X132248Y365166D01*
X132112Y365575D01*
X132248Y367758D01*
X132112Y368167D01*
X132248Y371032D01*
X132112Y371441D01*
X132248Y372805D01*
X132589Y373283D01*
X133544Y373555D01*
X134499Y373419D01*
X136477Y373487D01*
X137159Y373351D01*
X137705Y373078D01*
X137841Y372532D01*
X137705Y371032D01*
X137909Y370691D01*
X138455Y370554D01*
X139205Y371168D01*
X140228Y371782D01*
X140501Y371918D01*
X141456Y372873D01*
X142206Y373078D01*
X143297Y373487D01*
X144048Y373828D01*
X145002Y374101D01*
X146776Y374237D01*
X147321Y374101D01*
D02*
G37*
G36*
X107899Y383240D02*
X108377Y382763D01*
X108513Y381399D01*
X108445Y375192D01*
X108513Y373760D01*
X108377Y373351D01*
X108513Y371714D01*
X108991Y371236D01*
X109809Y371373D01*
X110082Y371646D01*
X110355Y371782D01*
X110832Y372259D01*
X110969Y372532D01*
X111855Y373010D01*
X112605Y373214D01*
X114174Y373965D01*
X116493Y374237D01*
X117857Y374101D01*
X118403Y373965D01*
X121063Y372942D01*
X121813Y372464D01*
X122495Y371782D01*
X122768Y371646D01*
X122972Y371441D01*
X123654Y370213D01*
X123927Y369940D01*
X124337Y368986D01*
X124473Y366803D01*
X124609Y366257D01*
X124678Y349002D01*
X124405Y348592D01*
X123450Y348320D01*
X120858Y348456D01*
X118539Y348592D01*
X118335Y348797D01*
X118198Y349343D01*
X118335Y350707D01*
X118198Y365575D01*
X118062Y365985D01*
X117925Y367212D01*
X117311Y367962D01*
X117039Y368099D01*
X116084Y369054D01*
X114447Y369327D01*
X112264Y369190D01*
X111309Y368508D01*
X111037Y368235D01*
X110082Y367690D01*
X109877Y367485D01*
X109332Y366530D01*
X109059Y366257D01*
X108786Y365575D01*
X108650Y365030D01*
Y363802D01*
X108581Y363734D01*
X108377Y360938D01*
X108513Y360528D01*
X108377Y357118D01*
X108513Y356572D01*
X108445Y349957D01*
X108513Y348933D01*
X108036Y348456D01*
X107013Y348388D01*
X103944Y348456D01*
X103534Y348320D01*
X102579Y348456D01*
X102102Y348797D01*
X101966Y349343D01*
X102102Y350707D01*
X102238Y382899D01*
X102579Y383240D01*
X103125Y383377D01*
X107899Y383240D01*
D02*
G37*
G36*
X252970Y373896D02*
X254334Y373351D01*
X255971Y372942D01*
X256721Y372464D01*
X257130Y372055D01*
X257403Y371918D01*
X258290Y371305D01*
X258426Y371032D01*
X259381Y370077D01*
X259518Y369804D01*
X260131Y369054D01*
X260473Y368713D01*
X260677Y367826D01*
X261086Y366735D01*
X261291Y366530D01*
X261700Y365575D01*
X261973Y362847D01*
X262109Y359846D01*
X261632Y359232D01*
X261086Y359096D01*
X246081Y358960D01*
X245467Y358482D01*
X245399Y357868D01*
X245536Y357323D01*
X246013Y356163D01*
X246150Y355618D01*
X246559Y354935D01*
X247377Y354117D01*
X247514Y353844D01*
X247718Y353640D01*
X247991Y353503D01*
X250037Y352548D01*
X251606Y352480D01*
X252152Y352617D01*
X253175Y353230D01*
X254130Y353776D01*
X254811Y354867D01*
X255016Y355072D01*
X255152Y355345D01*
X255766Y355959D01*
X256312Y356095D01*
X257403Y355959D01*
X257812Y355822D01*
X259177Y355686D01*
X259245Y355618D01*
X259313Y355549D01*
X261223Y355140D01*
X261427Y354935D01*
X261564Y354390D01*
X261427Y353844D01*
X261018Y353435D01*
X260882Y353162D01*
X260336Y352344D01*
X260200Y352071D01*
X259518Y351389D01*
X259381Y351116D01*
X258222Y349957D01*
X256448Y349002D01*
X256176Y348729D01*
X255221Y348456D01*
X254266Y348320D01*
X253720Y348183D01*
X251947Y348047D01*
X247991Y348183D01*
X247582Y348320D01*
X246286Y348524D01*
X245604Y348797D01*
X245263Y349138D01*
X244035Y349684D01*
X243762Y349820D01*
X243012Y350434D01*
X241375Y352071D01*
X241239Y352344D01*
X240693Y353299D01*
X240148Y353844D01*
X239875Y354526D01*
X239670Y355822D01*
X239534Y356368D01*
X239193Y357254D01*
X238920Y358209D01*
X238715Y360324D01*
X238647Y360938D01*
X238783Y361347D01*
X238988Y363597D01*
X239125Y364143D01*
X239602Y365712D01*
X239738Y366257D01*
X239943Y367281D01*
X240216Y367962D01*
X240693Y368440D01*
X240830Y368713D01*
X241512Y369940D01*
X242330Y370759D01*
X242467Y371032D01*
X243080Y371646D01*
X244035Y372191D01*
X244581Y372737D01*
X245263Y373010D01*
X245809Y373146D01*
X246559Y373351D01*
X247991Y373965D01*
X248537Y374101D01*
X251469Y374169D01*
X252970Y373896D01*
D02*
G37*
G36*
X224938Y374101D02*
X225620Y373828D01*
X227393Y373283D01*
X227939Y373146D01*
X229235Y372669D01*
X229849Y372055D01*
X231076Y371373D01*
X232918Y369531D01*
X233463Y368576D01*
X234009Y368031D01*
X234282Y367349D01*
X234896Y365644D01*
X235237Y364893D01*
X235510Y363802D01*
X235646Y362438D01*
X235510Y357937D01*
X235373Y357527D01*
X234555Y355754D01*
X234418Y355208D01*
X234077Y354322D01*
X233736Y353844D01*
X233463Y353571D01*
X233327Y353299D01*
X232372Y352071D01*
X231213Y350911D01*
X230940Y350775D01*
X229985Y349820D01*
X228689Y349343D01*
X228212Y349002D01*
X226984Y348456D01*
X226029Y348320D01*
X223301Y348047D01*
X220027Y348183D01*
X219618Y348320D01*
X218254Y348456D01*
X217845Y348592D01*
X216890Y349138D01*
X215389Y349820D01*
X215117Y349957D01*
X214298Y350775D01*
X214025Y350911D01*
X213275Y351525D01*
X212593Y352207D01*
X212457Y352480D01*
X211775Y353435D01*
X211365Y353844D01*
X211092Y354526D01*
X210956Y355072D01*
X210751Y355822D01*
X210479Y356504D01*
X210138Y357254D01*
X210001Y357800D01*
X209728Y360528D01*
X209865Y363802D01*
X210001Y364211D01*
X210342Y365098D01*
X210683Y365848D01*
X210956Y366803D01*
X211297Y367690D01*
X211638Y368167D01*
X212047Y368576D01*
X212866Y370077D01*
X213070Y370281D01*
X213343Y370418D01*
X214435Y371509D01*
X215662Y372191D01*
X216071Y372600D01*
X216344Y372737D01*
X217026Y373010D01*
X218118Y373283D01*
X220709Y374101D01*
X221664Y374237D01*
X221801D01*
X224938Y374101D01*
D02*
G37*
G36*
X84437D02*
X86210Y373965D01*
X87711Y373283D01*
X88597Y373078D01*
X89143Y372942D01*
X89893Y372464D01*
X90166Y372191D01*
X91394Y371509D01*
X92485Y370418D01*
X92758Y370281D01*
X93099Y369804D01*
X93713Y369054D01*
X94190Y368576D01*
X94395Y367826D01*
X94872Y367076D01*
X95418Y366257D01*
X95623Y365098D01*
X95895Y363325D01*
X96032Y362643D01*
X96100Y360119D01*
X95963Y359710D01*
X95827Y357937D01*
X95691Y357527D01*
X95554Y356572D01*
X95350Y355686D01*
X95145Y355481D01*
X95009Y355208D01*
X94736Y354935D01*
X93781Y353162D01*
X93235Y352617D01*
X93099Y352344D01*
X92485Y351594D01*
X91803Y350911D01*
X91530Y350775D01*
X90712Y349957D01*
X89825Y349616D01*
X89143Y349343D01*
X88939Y349138D01*
X88666Y349002D01*
X88393Y348729D01*
X87438Y348456D01*
X85528Y348183D01*
X83346Y348047D01*
X80481Y348183D01*
X80072Y348320D01*
X78708Y348456D01*
X77753Y349002D01*
X77071Y349411D01*
X75775Y349888D01*
X75298Y350229D01*
X74616Y350911D01*
X73934Y351321D01*
X73456Y351798D01*
X73320Y352071D01*
X72501Y352889D01*
X72092Y353844D01*
X71819Y354526D01*
X71137Y355481D01*
X70864Y357118D01*
X70728Y358073D01*
X70592Y358619D01*
X70455Y359983D01*
X70592Y363666D01*
X70728Y364075D01*
X70796Y364552D01*
X70864Y364621D01*
X71001Y365985D01*
X71546Y366940D01*
X71819Y367212D01*
X72092Y367894D01*
X72433Y368781D01*
X73320Y369668D01*
X73456Y369940D01*
X73934Y370554D01*
X74206Y370691D01*
X75161Y371646D01*
X76389Y372328D01*
X76798Y372737D01*
X77480Y373010D01*
X78912Y373351D01*
X79594Y373624D01*
X80481Y373965D01*
X81436Y374101D01*
X84028Y374237D01*
X84437Y374101D01*
D02*
G37*
G36*
X127133Y312308D02*
X134294Y312376D01*
X134567Y312103D01*
X134704Y311558D01*
X134499Y310807D01*
X134294Y310330D01*
X133953Y309989D01*
X133135Y310125D01*
X132726Y310262D01*
X126314Y310125D01*
X125837Y309648D01*
X125564Y308693D01*
X125496Y287481D01*
X125632Y286936D01*
X125701Y286322D01*
X125360Y285844D01*
X124814Y285708D01*
X123586Y285844D01*
X123245Y286185D01*
X123109Y286731D01*
X123314Y287345D01*
X123382Y287413D01*
X123314Y290073D01*
X123382Y292460D01*
X123245Y292597D01*
X123382Y293006D01*
X123314Y295393D01*
X123382Y297644D01*
X123245Y297917D01*
X123382Y298326D01*
X123314Y300577D01*
X123382Y302964D01*
X123245Y303100D01*
X123382Y303509D01*
X123314Y305760D01*
X123382Y308284D01*
X123245Y308693D01*
X122972Y309375D01*
X122359Y309989D01*
X121404Y310262D01*
X116016Y310330D01*
X115402Y310125D01*
X114583Y310262D01*
X114379Y310466D01*
X114174Y311217D01*
X114106Y311830D01*
X114447Y312308D01*
X114993Y312444D01*
X117993Y312308D01*
X126724Y312444D01*
X127133Y312308D01*
D02*
G37*
G36*
X139683Y312171D02*
X139819Y311626D01*
X139751Y310739D01*
X139887Y310330D01*
X139751Y309511D01*
X139546Y309307D01*
X139001Y309170D01*
X138182Y309307D01*
X137500Y309716D01*
X137295Y309921D01*
Y310057D01*
X137705Y311012D01*
X137636Y311899D01*
X138046Y312308D01*
X139001Y312581D01*
X139683Y312171D01*
D02*
G37*
G36*
X148890Y310875D02*
X149026Y310330D01*
X148890Y308966D01*
X149026Y305146D01*
X149095Y305078D01*
X149163Y305010D01*
X149368Y304805D01*
X149913Y304669D01*
X151823Y304533D01*
X152164Y304191D01*
X152028Y303373D01*
X151686Y303032D01*
X150459Y302896D01*
X150050Y303032D01*
X149299Y302827D01*
X148890Y301873D01*
X148822Y300304D01*
X148890Y295461D01*
X148754Y295189D01*
X148890Y294779D01*
X149026Y289050D01*
X149572Y288095D01*
X149777Y287891D01*
X151346Y287686D01*
X151891Y287550D01*
X152369Y287209D01*
X152573Y287004D01*
X152710Y286458D01*
X152573Y286185D01*
X152232Y285844D01*
X150868Y285708D01*
X148413Y285844D01*
X147662Y286458D01*
X147117Y287004D01*
X146844Y287959D01*
X146639Y290619D01*
X146571Y291778D01*
X146708Y292188D01*
X146571Y295734D01*
X146708Y296143D01*
X146571Y300781D01*
X146708Y301190D01*
X146571Y302145D01*
X146367Y302486D01*
X145684Y302759D01*
X144798Y302964D01*
X144116Y303373D01*
X143979Y303919D01*
X144116Y304328D01*
X144320Y304533D01*
X145275Y304805D01*
X146162Y305146D01*
X146298Y305419D01*
X146571Y306101D01*
X146708Y306647D01*
X146571Y308556D01*
X146435Y308966D01*
X146571Y309511D01*
X148140Y311080D01*
X148549Y311217D01*
X148890Y310875D01*
D02*
G37*
G36*
X174058Y304805D02*
X175012Y304669D01*
X176240Y304533D01*
X177059Y303714D01*
X177331Y303578D01*
X178082Y302964D01*
X179173Y301873D01*
X179514Y300986D01*
X180128Y300372D01*
X180401Y299417D01*
X180605Y296757D01*
X180810Y296007D01*
X180878Y295666D01*
X180673Y295189D01*
X180469Y294984D01*
X179514Y294848D01*
X177331Y294984D01*
X166691Y294848D01*
X166214Y294370D01*
X166078Y293824D01*
X166214Y292324D01*
X167101Y291028D01*
X167646Y289527D01*
X167919Y289255D01*
X168192Y289118D01*
X168942Y288505D01*
X169079Y288232D01*
X169420Y287891D01*
X170511Y287618D01*
X171602Y287481D01*
X172011Y287345D01*
X172489Y287277D01*
X173307Y287413D01*
X173989Y287550D01*
X175285Y287754D01*
X176035Y288368D01*
X176376Y288709D01*
X176649Y288846D01*
X176786Y288982D01*
X176854Y289050D01*
X177127Y289323D01*
X177468Y290210D01*
X178150Y290892D01*
X178832Y291164D01*
X179377Y291301D01*
X179923Y291164D01*
X180401Y290687D01*
X180264Y289596D01*
X179309Y288641D01*
X178764Y287686D01*
X178286Y287209D01*
X177604Y286936D01*
X177331Y286799D01*
X176581Y286185D01*
X176376Y285981D01*
X175831Y285844D01*
X174058Y285708D01*
X172216Y285640D01*
X169897Y285776D01*
X169079Y285913D01*
X168601Y286117D01*
X167919Y286799D01*
X167169Y287004D01*
X166691Y287345D01*
X166487Y287550D01*
X166350Y287822D01*
X166009Y288163D01*
X165737Y288300D01*
X165532Y288505D01*
X165259Y289186D01*
X164850Y289869D01*
X164441Y290278D01*
X164168Y291233D01*
X164032Y293415D01*
X163895Y295189D01*
X164032Y297780D01*
X164168Y299554D01*
X164782Y300304D01*
X165123Y300645D01*
X165327Y301395D01*
X165600Y302077D01*
X166350Y302691D01*
X166623Y302964D01*
X166760Y303237D01*
X167919Y303850D01*
X168465Y304396D01*
X169420Y304669D01*
X171398Y304874D01*
X173648Y304942D01*
X174058Y304805D01*
D02*
G37*
G36*
X55791Y312308D02*
X56132Y311967D01*
X56064Y310534D01*
X56132Y292188D01*
X55996Y291778D01*
X55859Y289596D01*
X55245Y288846D01*
X54904Y288095D01*
X54427Y287209D01*
X54154Y287072D01*
X52927Y286390D01*
X52517Y285981D01*
X50880Y285708D01*
X45970Y285844D01*
X45219Y286458D01*
X45015Y286663D01*
X43787Y287345D01*
X43105Y288846D01*
X42764Y289186D01*
X42491Y290141D01*
X42287Y291574D01*
X42218Y292460D01*
X42696Y292938D01*
X43242Y293074D01*
X44060Y292938D01*
X44401Y292597D01*
X44538Y292051D01*
X44674Y291096D01*
X44947Y290823D01*
X45083Y290551D01*
X45901Y289050D01*
X46243Y288709D01*
X46515Y288573D01*
X47061Y288027D01*
X47743Y287754D01*
X49107Y287618D01*
X50744Y287754D01*
X52449Y289050D01*
X52722Y289323D01*
X53268Y290687D01*
X53813Y291915D01*
X53950Y293279D01*
X53813Y311694D01*
Y311830D01*
X54427Y312444D01*
X55791Y312308D01*
D02*
G37*
G36*
X158098Y312171D02*
X158302Y311967D01*
X158371Y286117D01*
X158098Y285844D01*
X157552Y285708D01*
X156461Y285844D01*
X156256Y286049D01*
X156120Y286595D01*
X156256Y287959D01*
Y304601D01*
Y304737D01*
X156393Y312240D01*
X156597Y312444D01*
X157416Y312581D01*
X158098Y312171D01*
D02*
G37*
G36*
X139546Y304669D02*
X139887Y304328D01*
X139751Y300918D01*
Y294916D01*
Y294779D01*
X139819Y286117D01*
X139683Y285844D01*
X139137Y285708D01*
X137909Y285844D01*
X137295Y286322D01*
X137432Y287277D01*
X137705Y287550D01*
X137568Y292051D01*
X137705Y292460D01*
X137568Y294234D01*
X137636Y297030D01*
X137568Y299963D01*
X137705Y300372D01*
X137568Y302145D01*
X137432Y304191D01*
X137773Y304533D01*
X138728Y304805D01*
X139546Y304669D01*
D02*
G37*
G36*
X72433Y304805D02*
X74343Y304669D01*
X75298Y303987D01*
X75570Y303714D01*
X76252Y303441D01*
X76525Y303305D01*
X76866Y303100D01*
X77003Y302827D01*
X77685Y301873D01*
X77958Y301736D01*
X78094Y301463D01*
X78503Y300508D01*
X78844Y299622D01*
X79049Y299417D01*
X79458Y298462D01*
X79594Y296280D01*
X79458Y291915D01*
X78776Y290687D01*
X78503Y290414D01*
X78230Y289323D01*
X77821Y288641D01*
X77480Y288300D01*
X77207Y288163D01*
X77003Y287959D01*
X76866Y287686D01*
X76389Y287209D01*
X75298Y286799D01*
X75025Y286663D01*
X74957Y286595D01*
X74343Y285981D01*
X73183Y285776D01*
X68477Y285708D01*
X68068Y285844D01*
X67249Y285981D01*
X66977Y286254D01*
X66704Y286390D01*
X66295Y286799D01*
X65408Y287140D01*
X64590Y287822D01*
X64453Y288095D01*
X64112Y288573D01*
X63839Y288709D01*
X63498Y289050D01*
X63225Y290005D01*
X63021Y291028D01*
X62543Y291778D01*
X62134Y292733D01*
X61998Y294506D01*
X62134Y298053D01*
X62680Y299008D01*
X63089Y299963D01*
X63225Y300508D01*
X63362Y301327D01*
X63976Y302077D01*
X64248Y302213D01*
X64931Y303305D01*
X66226Y303782D01*
X66499Y304055D01*
X66568Y304260D01*
X66840Y304396D01*
X67522Y304669D01*
X69296Y304805D01*
X71478Y304942D01*
X72433Y304805D01*
D02*
G37*
G36*
X86278Y312103D02*
X86415Y311558D01*
X86278Y309784D01*
X86347Y305897D01*
X86278Y303919D01*
X86620Y303441D01*
X87165Y303305D01*
X88256Y303441D01*
X89007Y304055D01*
X89348Y304396D01*
X89621Y304533D01*
X90030Y304669D01*
X90575Y304805D01*
X93440Y304942D01*
X93849Y304805D01*
X96032Y304533D01*
X96987Y303578D01*
X97532Y303441D01*
X98146Y302827D01*
X98692Y301873D01*
X98965Y301600D01*
X99237Y300918D01*
X99442Y299895D01*
X99715Y299212D01*
X100329Y298190D01*
X100465Y297507D01*
Y297371D01*
X100329Y293006D01*
X99510Y290960D01*
X99237Y289869D01*
X98828Y289186D01*
X98282Y288641D01*
X98146Y288368D01*
X97600Y287413D01*
X96032Y286527D01*
X95486Y285981D01*
X94395Y285708D01*
X92144Y285640D01*
X90371Y285776D01*
X89825Y285913D01*
X89348Y286254D01*
X88939Y286663D01*
X88666Y286799D01*
X88393Y287072D01*
X88120Y287209D01*
X87165Y287891D01*
X86483Y287754D01*
X86347Y286527D01*
X86142Y286049D01*
X85801Y285708D01*
X85051Y285640D01*
X84505Y285776D01*
X84232Y286049D01*
X84096Y286595D01*
X84232Y287550D01*
X84301Y310944D01*
X84232Y311967D01*
X84573Y312444D01*
X85392Y312581D01*
X86278Y312103D01*
D02*
G37*
G36*
X396745Y223710D02*
X396881Y223438D01*
X397154Y222756D01*
X397018Y221801D01*
X396677Y221460D01*
X396131Y221323D01*
X395449Y221187D01*
X394767Y221596D01*
X394562Y221801D01*
X394426Y222346D01*
Y222619D01*
Y222756D01*
X394631Y223506D01*
X395176Y224051D01*
X395858Y224188D01*
X396745Y223710D01*
D02*
G37*
G36*
X165464Y224051D02*
X165805Y223847D01*
X165941Y223574D01*
X166078Y223165D01*
X166214Y222619D01*
X166078Y221801D01*
X165600Y221323D01*
X164782Y221187D01*
X164373Y221323D01*
X163690Y221732D01*
X163486Y222346D01*
X163622Y223301D01*
X164100Y223915D01*
X164236D01*
X164918Y224188D01*
X165464Y224051D01*
D02*
G37*
G36*
X365030Y224461D02*
X365439Y224324D01*
X367212Y223778D01*
X367962Y223574D01*
X368440Y223233D01*
X369122Y222551D01*
X369804Y222142D01*
X370281Y221664D01*
X370759Y220368D01*
X370964Y220164D01*
X371509Y218936D01*
X371305Y218186D01*
X371032Y217913D01*
X370486Y217777D01*
X369258Y217913D01*
X368645Y218527D01*
X368372Y219209D01*
X368031Y220096D01*
X367553Y220573D01*
X367485Y220777D01*
X367212Y220914D01*
X366803Y221323D01*
X365848Y221732D01*
X364484Y222142D01*
X363938Y222278D01*
X361210Y222142D01*
X360255Y221732D01*
X359369Y221391D01*
X358891Y221050D01*
X358550Y220709D01*
X358414Y220436D01*
X358005Y220027D01*
X357868Y219754D01*
X357459Y218800D01*
X357595Y217572D01*
X358209Y216822D01*
X358414Y216617D01*
X358550Y216344D01*
X358891Y216003D01*
X359505Y215799D01*
X359573Y215730D01*
X360324Y215526D01*
X362029Y214776D01*
X363938Y214503D01*
X364825Y214298D01*
X365916Y213889D01*
X367076Y213412D01*
X368372Y213207D01*
X369122Y212729D01*
X369531Y212320D01*
X369804Y212184D01*
X370554Y211570D01*
X371646Y210479D01*
X371918Y209387D01*
X372055Y208023D01*
X372123Y207546D01*
X371987Y206455D01*
X371714Y204954D01*
X371236Y204204D01*
X370691Y203658D01*
X370554Y203385D01*
X369668Y202499D01*
X369395Y202362D01*
X368986Y201953D01*
X365985Y200998D01*
X364893Y200725D01*
X361210Y200862D01*
X360801Y200998D01*
X359914Y201339D01*
X359164Y201544D01*
X358619Y201680D01*
X357732Y202021D01*
X357118Y202635D01*
X356845Y202772D01*
X355276Y204340D01*
X354867Y205295D01*
X354322Y206250D01*
X354049Y206932D01*
X354185Y207750D01*
X354390Y208092D01*
X355072Y208364D01*
X356027Y208228D01*
X356777Y207614D01*
X356913Y207341D01*
X357323Y206386D01*
X357459Y205841D01*
X358073Y205227D01*
X358346Y205091D01*
X358687Y204750D01*
X358823Y204477D01*
X359028Y204272D01*
X359710Y203999D01*
X360460Y203795D01*
X361142Y203522D01*
X362302Y203181D01*
X363666Y203044D01*
X365439Y203181D01*
X366940Y203863D01*
X367826Y204204D01*
X369327Y205704D01*
X369531Y206591D01*
X369599Y207887D01*
X369463Y208296D01*
X369327Y208978D01*
X368849Y209456D01*
X368167Y209865D01*
X367349Y210683D01*
X366462Y210888D01*
X365644Y211024D01*
X364552Y211434D01*
X363870Y211706D01*
X363256Y211911D01*
X362711Y212047D01*
X361756Y212184D01*
X360460Y212388D01*
X359778Y212661D01*
X358891Y213139D01*
X358005Y213480D01*
X357254Y213957D01*
X355686Y215526D01*
X355549Y215799D01*
X355276Y216071D01*
X355072Y216958D01*
X355004Y218800D01*
X355140Y219209D01*
X355276Y220709D01*
X355959Y221391D01*
X356095Y221664D01*
X356709Y222414D01*
X357254Y222960D01*
X357527Y223097D01*
X357937Y223506D01*
X358891Y223778D01*
X359437Y223915D01*
X360392Y224188D01*
X362029Y224597D01*
X365030Y224461D01*
D02*
G37*
G36*
X258904D02*
X259313Y224324D01*
X260677Y223915D01*
X261223Y223778D01*
X262109Y223438D01*
X262723Y222824D01*
X262996Y222687D01*
X263269Y222414D01*
X263951Y222005D01*
X264156Y221801D01*
X264428Y221119D01*
X264769Y220232D01*
X264974Y220027D01*
X265110Y219754D01*
X265383Y219072D01*
X265247Y218254D01*
X264906Y217913D01*
X264360Y217777D01*
X263269Y217913D01*
X262655Y218390D01*
X262246Y219345D01*
X261973Y220027D01*
X261359Y220777D01*
X260950Y221187D01*
X260677Y221323D01*
X259722Y221732D01*
X258358Y222142D01*
X257812Y222278D01*
X255084Y222142D01*
X253857Y221596D01*
X252970Y221255D01*
X252561Y220846D01*
X252424Y220573D01*
X251810Y219823D01*
X251606Y219618D01*
X251469Y218663D01*
X251606Y217435D01*
X252220Y216685D01*
X253038Y215867D01*
X253925Y215662D01*
X255084Y215048D01*
X255221D01*
X255903Y214776D01*
X257812Y214503D01*
X258699Y214298D01*
X259245Y214162D01*
X259995Y213821D01*
X260677Y213548D01*
X261223Y213412D01*
X262655Y213070D01*
X263132Y212729D01*
X263678Y212184D01*
X263951Y212047D01*
X264701Y211434D01*
X264837Y211161D01*
X265656Y210342D01*
X265929Y208705D01*
X266065Y207750D01*
X265929Y206250D01*
X265792Y205841D01*
X265656Y204886D01*
X265042Y204136D01*
X264701Y203795D01*
X264292Y203113D01*
X263951Y202772D01*
X263678Y202635D01*
X263132Y202090D01*
X262178Y201680D01*
X261427Y201476D01*
X259859Y200998D01*
X258767Y200725D01*
X255221Y200862D01*
X254811Y200998D01*
X253038Y201544D01*
X252493Y201680D01*
X251265Y202362D01*
X250856Y202772D01*
X250583Y202908D01*
X249287Y204204D01*
X249151Y204477D01*
X248741Y205431D01*
X248332Y206114D01*
X247923Y207068D01*
X248127Y207819D01*
X248537Y208228D01*
X249492Y208364D01*
X250174Y208092D01*
X250924Y207341D01*
X251538Y205636D01*
X251810Y205363D01*
X252083Y205227D01*
X253175Y204136D01*
X253925Y203931D01*
X255425Y203385D01*
X256176Y203181D01*
X257949Y203044D01*
X259313Y203181D01*
X260541Y203726D01*
X261427Y204067D01*
X261905Y204272D01*
X262382Y204750D01*
X262519Y205022D01*
X263201Y205704D01*
X263473Y206659D01*
X263337Y208842D01*
X262723Y209456D01*
X262450Y209592D01*
X261700Y210206D01*
X261632Y210410D01*
X261359Y210547D01*
X260677Y210820D01*
X260131Y210956D01*
X259108Y211161D01*
X257949Y211638D01*
X257267Y211911D01*
X255630Y212184D01*
X254334Y212388D01*
X253652Y212661D01*
X253447Y212866D01*
X252493Y213275D01*
X251606Y213616D01*
X251129Y213957D01*
X250105Y214980D01*
X249969Y215253D01*
X249287Y215935D01*
X249014Y216890D01*
X249151Y220573D01*
X249764Y221323D01*
X249969Y221528D01*
X250105Y221801D01*
X250719Y222551D01*
X251469Y223165D01*
X251674Y223369D01*
X252629Y223778D01*
X253652Y223983D01*
X254811Y224324D01*
X255903Y224597D01*
X258904Y224461D01*
D02*
G37*
G36*
X287004Y218049D02*
X288300Y217163D01*
X288573Y216481D01*
X287891Y215253D01*
X287277Y215048D01*
X286527Y215253D01*
X285913Y215458D01*
X285094Y215321D01*
X283798Y214435D01*
X283116Y213752D01*
X282912Y213002D01*
X282775Y212184D01*
X282571Y209387D01*
Y209251D01*
X282434Y201749D01*
X282093Y201271D01*
X281548Y201135D01*
X280729Y201271D01*
X280252Y201749D01*
X280115Y202294D01*
X279979Y202976D01*
X280115Y203385D01*
X280047Y216685D01*
X280320Y217367D01*
X281002Y217640D01*
X281684Y217504D01*
X282025Y216890D01*
X282162Y216617D01*
X282366Y216412D01*
X283048Y216549D01*
X283321Y216822D01*
X283867Y216958D01*
X284617Y217572D01*
X284821Y217777D01*
X285094Y217913D01*
X285776Y218186D01*
X287004Y218049D01*
D02*
G37*
G36*
X180264Y217845D02*
X181628Y217299D01*
X182719Y216617D01*
X182992Y216344D01*
X183129Y216071D01*
X183538Y215117D01*
X183879Y214230D01*
X184084Y213616D01*
X184152Y204954D01*
X184084Y203522D01*
X184220Y203113D01*
X184084Y201885D01*
X183606Y201271D01*
X183060Y201135D01*
X182379Y201271D01*
X181765Y201749D01*
X181628Y202703D01*
Y207068D01*
Y207205D01*
X181492Y212934D01*
X181219Y213616D01*
X180878Y214503D01*
X180196Y215185D01*
X179923Y215321D01*
X179105Y215867D01*
X178150Y216003D01*
X176513Y215867D01*
X175012Y214912D01*
X174740Y214776D01*
X174262Y214435D01*
X173717Y213207D01*
X173307Y212252D01*
X173171Y211706D01*
X173034Y209524D01*
X173103Y202362D01*
X172966Y201817D01*
X172421Y201271D01*
X171875Y201135D01*
X171057Y201271D01*
X170852Y201476D01*
X170579Y202158D01*
X170716Y217163D01*
X171329Y217777D01*
X172284Y217640D01*
X172625Y217299D01*
X172966Y216412D01*
X173375Y216003D01*
X173921Y216140D01*
X175012Y217231D01*
X176308Y217708D01*
X177468Y218049D01*
X178832Y218186D01*
X180264Y217845D01*
D02*
G37*
G36*
X229440Y218049D02*
X230804Y217913D01*
X232031Y217367D01*
X232918Y217026D01*
X233395Y216685D01*
X233600Y216481D01*
X233736Y216208D01*
X234282Y215662D01*
X234691Y214707D01*
X234828Y214162D01*
X234623Y213821D01*
X233941Y213548D01*
X233668Y213412D01*
X233532D01*
X232577Y213548D01*
X232236Y213889D01*
X231690Y214844D01*
X231213Y215321D01*
X230940Y215458D01*
X230258Y215867D01*
X229712Y216003D01*
X228348Y216140D01*
X226984Y216003D01*
X226029Y215458D01*
X225279Y214844D01*
X225006Y214162D01*
X225143Y212798D01*
X225756Y212047D01*
X226507Y211843D01*
X227052Y211706D01*
X227734Y211434D01*
X228485Y211092D01*
X229440Y210820D01*
X229985Y210683D01*
X231281Y210479D01*
X231963Y210342D01*
X232782Y209797D01*
X234282Y209115D01*
X235237Y207887D01*
X235646Y206932D01*
X235510Y204477D01*
X233805Y202090D01*
X232850Y201680D01*
X231963Y201339D01*
X231213Y200998D01*
X230667Y200862D01*
X229712Y200725D01*
X226984Y200862D01*
X226575Y200998D01*
X225688Y201339D01*
X224392Y201817D01*
X222960Y203249D01*
X222278Y204750D01*
X222414Y205704D01*
X223028Y206045D01*
X224256Y205909D01*
X224870Y205295D01*
X225552Y204067D01*
X225756Y203863D01*
X226029Y203726D01*
X226984Y203044D01*
X227530Y202908D01*
X228485Y202772D01*
X230804Y202908D01*
X231758Y203590D01*
X233054Y204886D01*
X233191Y205841D01*
X232782Y206523D01*
X232440Y206864D01*
X232168Y207000D01*
X231895Y207273D01*
X231622Y207409D01*
X231213Y207819D01*
X230531Y208092D01*
X228621Y208364D01*
X227871Y208569D01*
X226166Y209319D01*
X225279Y209524D01*
X224733Y209660D01*
X224256Y210001D01*
X223574Y210683D01*
X223301Y210820D01*
X222960Y211161D01*
X222687Y212116D01*
X222551Y213889D01*
X222687Y214844D01*
X223028Y215730D01*
X224529Y217231D01*
X225279Y217435D01*
X225961Y217708D01*
X227120Y218049D01*
X229030Y218186D01*
X229440Y218049D01*
D02*
G37*
G36*
X213480D02*
X214298Y217913D01*
X215253Y217504D01*
X216754Y216958D01*
X217231Y216481D01*
X217777Y215526D01*
X217981Y215321D01*
X218254Y215185D01*
X218595Y214435D01*
X218459Y213889D01*
X218118Y213548D01*
X217572Y213412D01*
X216481Y213548D01*
X215730Y214298D01*
X215594Y214571D01*
X214571Y215594D01*
X213616Y216003D01*
X212320Y216071D01*
X210547Y215935D01*
X209865Y215662D01*
X209387Y215185D01*
X209115Y215048D01*
X208773Y214707D01*
X208637Y214435D01*
X208364Y213752D01*
X208637Y213070D01*
X209251Y212320D01*
X209524Y212047D01*
X210069Y211911D01*
X211365Y211434D01*
X212116Y211092D01*
X213070Y210820D01*
X213616Y210683D01*
X214912Y210479D01*
X215321Y210342D01*
X215389Y210274D01*
X215935Y210138D01*
X216208Y209865D01*
X217163Y209456D01*
X218322Y208842D01*
X218731Y207887D01*
X219141Y206250D01*
X219004Y204613D01*
X218731Y203931D01*
X218186Y202976D01*
X217845Y202635D01*
X217572Y202499D01*
X217367Y202294D01*
X217231Y202021D01*
X214844Y200998D01*
X213207Y200725D01*
X210615Y200862D01*
X209251Y201408D01*
X207955Y201885D01*
X207478Y202226D01*
X207273Y202431D01*
X207137Y202703D01*
X206523Y203454D01*
X206045Y203931D01*
X205773Y204613D01*
X205909Y205431D01*
X206182Y205704D01*
X206250Y205909D01*
X206523Y206045D01*
X207205Y206318D01*
X207750Y206182D01*
X207955Y205977D01*
X208228Y205295D01*
X208364Y205022D01*
X208978Y204272D01*
X209251Y203999D01*
X209524Y203863D01*
X210206Y203181D01*
X211297Y202908D01*
X213070Y202772D01*
X214298Y202908D01*
X216003Y204067D01*
X216276Y204340D01*
X216481Y205091D01*
X216549Y206114D01*
X215867Y207068D01*
X214162Y208092D01*
X213207Y208228D01*
X212661Y208364D01*
X211638Y208569D01*
X210547Y208978D01*
X209660Y209319D01*
X208569Y209592D01*
X207546Y210206D01*
X207409Y210479D01*
X206864Y211024D01*
X206727Y211297D01*
X206455Y211570D01*
X206182Y212252D01*
X206045Y212798D01*
X205909Y213752D01*
X206045Y214298D01*
X206727Y215526D01*
X207273Y216344D01*
X207409Y216617D01*
X207750Y216958D01*
X208433Y217231D01*
X210206Y217913D01*
X211570Y218049D01*
X213070Y218186D01*
X213480Y218049D01*
D02*
G37*
G36*
X153596D02*
X154824Y217913D01*
X156052Y217367D01*
X156938Y217026D01*
X157757Y216344D01*
X158029Y216071D01*
X158166Y215799D01*
X158848Y214298D01*
X158643Y213821D01*
X157961Y213548D01*
X157006Y213412D01*
X156256Y213889D01*
X155779Y214912D01*
X155506Y215048D01*
X155233Y215321D01*
X154960Y215458D01*
X154688Y215730D01*
X153733Y216003D01*
X152369Y216140D01*
X151004Y216003D01*
X150050Y215458D01*
X149299Y214844D01*
X149026Y213889D01*
X149163Y212934D01*
X149640Y212184D01*
X150322Y211911D01*
X151073Y211706D01*
X152164Y211297D01*
X152914Y210956D01*
X154005Y210683D01*
X155165Y210479D01*
X155983Y210342D01*
X157075Y209660D01*
X157757Y209387D01*
X158234Y209183D01*
X158575Y208842D01*
X158712Y208569D01*
X159325Y207819D01*
X159530Y207614D01*
X159666Y206659D01*
Y205704D01*
Y205568D01*
X159530Y204477D01*
X159121Y203795D01*
X158507Y203044D01*
X157961Y202226D01*
X156461Y201544D01*
X155233Y200998D01*
X154688Y200862D01*
X153733Y200725D01*
X151004Y200862D01*
X150595Y200998D01*
X149913Y201271D01*
X148617Y201749D01*
X148140Y202090D01*
X146980Y203249D01*
X146571Y204204D01*
X146298Y204886D01*
X146435Y205568D01*
X146776Y205909D01*
X147321Y206045D01*
X148276Y205909D01*
X148754Y205568D01*
X148890Y205295D01*
X149572Y204067D01*
X149777Y203863D01*
X150459Y203454D01*
X150732Y203181D01*
X151414Y202908D01*
X153187Y202772D01*
X154824Y202908D01*
X155779Y203590D01*
X156052Y203863D01*
X156324Y203999D01*
X156802Y204477D01*
X156938Y204750D01*
X157211Y205431D01*
X157075Y206250D01*
X156324Y207000D01*
X156052Y207137D01*
X155779Y207409D01*
X155506Y207546D01*
X155233Y207819D01*
X154551Y208092D01*
X154005Y208228D01*
X152437Y208433D01*
X151346Y208842D01*
X150186Y209319D01*
X149640Y209456D01*
X148754Y209660D01*
X148276Y210001D01*
X147594Y210683D01*
X147321Y210820D01*
X146980Y211161D01*
X146708Y212252D01*
X146639Y213821D01*
X146776Y214912D01*
X146912Y215458D01*
X147253Y215935D01*
X148413Y217094D01*
X149095Y217367D01*
X149981Y217708D01*
X151141Y218049D01*
X153187Y218186D01*
X153596Y218049D01*
D02*
G37*
G36*
X419457D02*
X420957Y217367D01*
X421639Y217094D01*
X421912Y216958D01*
X422526Y216481D01*
X422663Y216208D01*
X423276Y215594D01*
X423549Y215458D01*
X423890Y215117D01*
X424163Y214435D01*
X424640Y213139D01*
X425118Y211979D01*
X425391Y210342D01*
X425254Y209387D01*
X425050Y209046D01*
X424368Y208773D01*
X423413Y208910D01*
X413318Y208773D01*
X412841Y208433D01*
X412705Y207887D01*
X412841Y206523D01*
X413250Y206114D01*
X413660Y205159D01*
X414069Y204477D01*
X414410Y204136D01*
X415092Y203726D01*
X415501Y203317D01*
X415774Y203181D01*
X416456Y202908D01*
X418638Y202772D01*
X419184Y202908D01*
X419866Y203044D01*
X420548Y203726D01*
X420821Y203863D01*
X421571Y204477D01*
X422117Y205431D01*
X422321Y205773D01*
X422594Y205909D01*
X423004Y206045D01*
X423549Y206182D01*
X424436Y205841D01*
X424572Y205295D01*
X424436Y204340D01*
X423890Y203385D01*
X423413Y202908D01*
X423140Y202772D01*
X422935Y202567D01*
X422799Y202294D01*
X422321Y201817D01*
X421367Y201544D01*
X419866Y200862D01*
X418502Y200725D01*
X416183Y200862D01*
X415910Y200998D01*
X415774D01*
X414819Y201408D01*
X413114Y202021D01*
X412705Y202431D01*
X412568Y202703D01*
X412364Y202908D01*
X412091Y203044D01*
X411613Y203385D01*
X411340Y204067D01*
X410999Y204954D01*
X410386Y205977D01*
X410181Y206864D01*
X410113Y211706D01*
X410249Y212116D01*
X410386Y212661D01*
X411886Y215526D01*
X412227Y215867D01*
X412500Y216003D01*
X412705Y216208D01*
X412841Y216481D01*
X413318Y216958D01*
X415024Y217572D01*
X415706Y217845D01*
X416456Y218049D01*
X417820Y218186D01*
X419457Y218049D01*
D02*
G37*
G36*
X317287D02*
X318787Y217367D01*
X319674Y217026D01*
X320151Y216685D01*
X320492Y216344D01*
X320629Y216071D01*
X320970Y215730D01*
X321243Y215594D01*
X321720Y215117D01*
X322129Y214162D01*
X322607Y212866D01*
X322948Y211979D01*
X323084Y211434D01*
X323220Y210479D01*
X323084Y209251D01*
X322743Y208910D01*
X321925Y208773D01*
X321515Y208910D01*
X311148Y208773D01*
X310671Y208296D01*
X310534Y207750D01*
X310671Y206659D01*
X311353Y205704D01*
X311694Y204818D01*
X312035Y204340D01*
X312853Y203795D01*
X313331Y203454D01*
X313604Y203181D01*
X314286Y202908D01*
X316468Y202772D01*
X317014Y202908D01*
X317696Y203044D01*
X317969Y203317D01*
X318242Y203454D01*
X318787Y203999D01*
X319060Y204136D01*
X319674Y204750D01*
X320219Y205704D01*
X320424Y205909D01*
X321379Y206182D01*
X322266Y205841D01*
X322402Y205295D01*
X322266Y204204D01*
X321584Y203249D01*
X320629Y202294D01*
X320492Y202021D01*
X319742Y201680D01*
X318651Y201271D01*
X317696Y200862D01*
X316332Y200725D01*
X314013Y200862D01*
X312649Y201408D01*
X310944Y202021D01*
X310671Y202294D01*
X310534Y202567D01*
X310193Y202908D01*
X309921Y203044D01*
X309307Y203658D01*
X309170Y204204D01*
Y204340D01*
X308625Y205295D01*
X308079Y206523D01*
X307943Y209115D01*
X308079Y212252D01*
X309307Y214844D01*
X309716Y215526D01*
X309921Y215730D01*
X310193Y215867D01*
X310671Y216344D01*
X310807Y216617D01*
X311148Y216958D01*
X313263Y217708D01*
X314149Y218049D01*
X315923Y218186D01*
X317287Y218049D01*
D02*
G37*
G36*
X299008D02*
X300508Y217367D01*
X301736Y216685D01*
X302964Y215458D01*
X303237Y215321D01*
X303714Y214435D01*
X303850Y213889D01*
X304123Y213207D01*
X304533Y212252D01*
X304805Y211161D01*
X304942Y210206D01*
X304737Y209319D01*
X304328Y208910D01*
X303782Y208773D01*
X303237Y208910D01*
X292869Y208773D01*
X292392Y208433D01*
X292119Y207478D01*
X292256Y206932D01*
X292801Y205977D01*
X293620Y204477D01*
X293961Y204136D01*
X294234Y203999D01*
X294984Y203385D01*
X295052Y203317D01*
X295120Y203249D01*
X296007Y202908D01*
X298190Y202772D01*
X298735Y202908D01*
X299485Y203113D01*
X300236Y203863D01*
X300508Y203999D01*
X301259Y204613D01*
X301941Y205841D01*
X302555Y206045D01*
X303100Y206182D01*
X303509Y206045D01*
X303782Y205909D01*
X304123Y205568D01*
X303987Y204340D01*
X303441Y203385D01*
X303100Y203044D01*
X302827Y202908D01*
X302486Y202567D01*
X302350Y202294D01*
X301873Y201817D01*
X301122Y201612D01*
X300440Y201339D01*
X299281Y200862D01*
X298326Y200725D01*
X295734Y200862D01*
X295325Y200998D01*
X293961Y201544D01*
X293415Y201680D01*
X292460Y202226D01*
X292119Y202567D01*
X292051Y202772D01*
X291778Y202908D01*
X291506Y203181D01*
X291233Y203317D01*
X290892Y204067D01*
X290619Y204750D01*
X290482Y205022D01*
X289937Y205841D01*
X289732Y206727D01*
X289596Y208364D01*
X289527Y210206D01*
X289664Y210615D01*
X289800Y212388D01*
X291437Y215526D01*
X291915Y216003D01*
X292119Y216071D01*
X292256Y216344D01*
X292869Y216958D01*
X294575Y217572D01*
X295461Y217913D01*
X296007Y218049D01*
X297371Y218186D01*
X299008Y218049D01*
D02*
G37*
G36*
X196974D02*
X197793Y217913D01*
X199020Y217367D01*
X199907Y217026D01*
X200112Y216822D01*
X200316Y216754D01*
X200453Y216481D01*
X200794Y216140D01*
X201066Y216003D01*
X201544Y215526D01*
X202226Y214298D01*
X202635Y213889D01*
X202908Y212798D01*
X203113Y211229D01*
X203181Y209797D01*
X202772Y209115D01*
X202567Y208910D01*
X201612Y208773D01*
X201066Y208910D01*
X191518Y208773D01*
X191177Y208569D01*
X190904Y207614D01*
X191040Y206386D01*
X191723Y205159D01*
X192132Y204750D01*
X192268Y204477D01*
X193018Y203726D01*
X193291Y203590D01*
X194246Y203044D01*
X195337Y202772D01*
X197383Y202908D01*
X198611Y203590D01*
X199361Y204204D01*
X199975Y204954D01*
X200180Y205159D01*
X200316Y205431D01*
X200384Y205500D01*
X200930Y206045D01*
X201476Y206182D01*
X202294Y206045D01*
X202772Y205568D01*
X202908Y204886D01*
X202499Y204204D01*
X201817Y203522D01*
X201680Y203249D01*
X200248Y201817D01*
X199566Y201544D01*
X198679Y201203D01*
X197997Y200930D01*
X197247Y200725D01*
X193973Y200862D01*
X192473Y201544D01*
X191723Y201749D01*
X190904Y202431D01*
X189676Y203658D01*
X189540Y203931D01*
X188994Y204477D01*
X188722Y205431D01*
X188517Y206727D01*
X188312Y207478D01*
X188039Y208569D01*
X188244Y210547D01*
X188517Y212047D01*
X188653Y212729D01*
X188858Y214025D01*
X189472Y214776D01*
X189813Y215117D01*
X189949Y215389D01*
X190563Y216140D01*
X190836Y216276D01*
X191654Y217094D01*
X192200Y217231D01*
X193564Y217777D01*
X194519Y218049D01*
X196565Y218186D01*
X196974Y218049D01*
D02*
G37*
G36*
X87438Y224051D02*
X88529Y223778D01*
X89416Y223574D01*
X90098Y223165D01*
X90234Y222892D01*
X90439Y222687D01*
X90712Y222551D01*
X91462Y221937D01*
X92553Y219618D01*
X92690Y219072D01*
X92826Y217981D01*
X92690Y217572D01*
X92553Y217026D01*
X92008Y216208D01*
X91735Y215526D01*
X91257Y214912D01*
X90303Y214366D01*
X90234Y213616D01*
X90712Y213139D01*
X91394Y212729D01*
X92076Y212047D01*
X92349Y211911D01*
X92826Y211434D01*
X93099Y210751D01*
X93781Y208978D01*
X93917Y207614D01*
X93781Y206523D01*
X93235Y205295D01*
X92758Y203999D01*
X92417Y203522D01*
X92076Y203181D01*
X91803Y203044D01*
X90712Y201953D01*
X90030Y201680D01*
X89143Y201339D01*
X88393Y200998D01*
X87302Y200725D01*
X84301Y200862D01*
X82800Y201544D01*
X81709Y201953D01*
X81368Y202294D01*
X81231Y202567D01*
X81027Y202772D01*
X80754Y202908D01*
X80140Y203522D01*
X79731Y204613D01*
X79185Y205159D01*
X78912Y205841D01*
X79117Y206591D01*
X79390Y206864D01*
X80072Y207137D01*
X80890Y207000D01*
X81368Y206659D01*
X81504Y206386D01*
X81913Y205977D01*
X82459Y204750D01*
X82596Y204477D01*
X83209Y203863D01*
X83891Y203454D01*
X84164Y203181D01*
X84846Y202908D01*
X85801Y202772D01*
X87847Y202908D01*
X88802Y203590D01*
X90030Y204545D01*
X90371Y204886D01*
X90644Y205568D01*
X90780Y206114D01*
X91189Y207478D01*
X91053Y208433D01*
X90780Y209115D01*
X90575Y210138D01*
X90234Y210615D01*
X89757Y211092D01*
X89484Y211229D01*
X89279Y211434D01*
X89211Y211638D01*
X88939Y211775D01*
X88666Y212047D01*
X87574Y212320D01*
X85187Y212525D01*
X84642Y212934D01*
X84778Y213752D01*
X85051Y214025D01*
X85119Y214230D01*
X85801Y214503D01*
X87370Y214707D01*
X88120Y215185D01*
X88393Y215458D01*
X88666Y215594D01*
X89279Y216071D01*
X89416Y216344D01*
X90098Y217845D01*
X90234Y218800D01*
X89007Y221119D01*
X88802Y221323D01*
X86756Y222278D01*
X84846Y222142D01*
X83891Y221596D01*
X83141Y220982D01*
X82596Y220436D01*
X82323Y219754D01*
X81709Y218595D01*
X81163Y218459D01*
X80208D01*
X79458Y218936D01*
X79322Y219482D01*
X79867Y220436D01*
X80686Y221937D01*
X80890Y222142D01*
X81163Y222278D01*
X82254Y223369D01*
X83209Y223778D01*
X84096Y223983D01*
X84778Y224119D01*
X87029Y224188D01*
X87438Y224051D01*
D02*
G37*
G36*
X447148D02*
X447352Y223847D01*
X447625Y223165D01*
X447557Y210683D01*
X447625Y206932D01*
X447489Y206523D01*
X447625Y203522D01*
X447489Y201749D01*
X446875Y201135D01*
X445784Y201271D01*
X445443Y201476D01*
X445306Y201749D01*
X445033Y202431D01*
X445170Y204613D01*
X445033Y205022D01*
Y205977D01*
Y206114D01*
X445170Y208023D01*
X445033Y208433D01*
X445170Y210615D01*
X445033Y211024D01*
X445170Y213616D01*
X445033Y214025D01*
X445102Y218186D01*
X444829Y218595D01*
X444283Y218731D01*
X443465Y218595D01*
X442919Y218049D01*
X442646Y217913D01*
X442374Y217640D01*
X440873Y216822D01*
X440191Y216412D01*
X439236Y216549D01*
X439031Y217163D01*
X439168Y218118D01*
X439645Y218595D01*
X439918Y218731D01*
X440191Y219004D01*
X440464Y219141D01*
X440737Y219413D01*
X442237Y220232D01*
X442578Y220573D01*
X442646Y220777D01*
X442919Y220914D01*
X443192Y221187D01*
X443465Y221323D01*
X445170Y223028D01*
X445306Y223301D01*
X445920Y224051D01*
X446466Y224188D01*
X447148Y224051D01*
D02*
G37*
G36*
X396472Y217572D02*
X396881Y217163D01*
X397154Y216071D01*
X397018Y215526D01*
Y208569D01*
Y208433D01*
X396881Y201749D01*
X396267Y201135D01*
X395040Y201271D01*
X394699Y201612D01*
X394562Y202158D01*
X394699Y217163D01*
X395176Y217640D01*
X395722Y217777D01*
X396472Y217572D01*
D02*
G37*
G36*
X377989Y217640D02*
X378466Y217163D01*
X378602Y216617D01*
Y214025D01*
Y213889D01*
X378739Y205841D01*
X379557Y204340D01*
X380171Y203590D01*
X380990Y203044D01*
X382490Y202772D01*
X382899Y202908D01*
X383922Y203113D01*
X384400Y203317D01*
X386241Y204613D01*
X386514Y205295D01*
X386923Y207614D01*
X387060Y208160D01*
X387196Y217026D01*
X387674Y217504D01*
X388219Y217640D01*
X389038Y217504D01*
X389379Y217163D01*
X389651Y216481D01*
X389788Y215253D01*
X389651Y214844D01*
X389515Y212661D01*
X389651Y210479D01*
X389788Y210069D01*
X389651Y209115D01*
X389515Y208569D01*
X389651Y206659D01*
X389788Y206250D01*
X389583Y204954D01*
X389515Y203522D01*
X389651Y203113D01*
X389515Y201885D01*
X388901Y201135D01*
X388083Y201271D01*
X387742Y201612D01*
X387537Y202362D01*
X387128Y202772D01*
X386582Y202635D01*
X385832Y202021D01*
X383581Y200998D01*
X382490Y200725D01*
X380308Y200862D01*
X378534Y201680D01*
X377579Y202226D01*
X376965Y203385D01*
X376420Y204204D01*
X376147Y206114D01*
X376283Y217163D01*
X376624Y217640D01*
X377170Y217777D01*
X377989Y217640D01*
D02*
G37*
G36*
X165464D02*
X165805Y217435D01*
X166078Y216754D01*
X165941Y201612D01*
X165464Y201135D01*
X164373Y201271D01*
X163759Y201749D01*
X163622Y202294D01*
X163759Y217163D01*
X164236Y217640D01*
X164782Y217777D01*
X164918D01*
X165464Y217640D01*
D02*
G37*
G36*
X130407D02*
X131021Y217026D01*
X131157Y216071D01*
X131293Y205704D01*
X131975Y204477D01*
X132589Y203726D01*
X132999Y203317D01*
X133271Y203181D01*
X133953Y202908D01*
X135113Y202840D01*
X135931Y202976D01*
X136477Y203113D01*
X137568Y203795D01*
X137773Y203999D01*
X138046Y204136D01*
X138796Y204750D01*
X139069Y205431D01*
X139273Y206591D01*
X139410Y207273D01*
X139546Y208092D01*
X139683Y216958D01*
X140024Y217435D01*
X140774Y217640D01*
X141456Y217504D01*
X141933Y217163D01*
X142206Y216071D01*
X142070Y211434D01*
X142206Y210069D01*
X142070Y207478D01*
X142206Y206523D01*
X142070Y203113D01*
Y202840D01*
Y202703D01*
X141933Y201612D01*
X141592Y201271D01*
X141047Y201135D01*
X140637Y201271D01*
X140296Y201612D01*
X139955Y202499D01*
X139683Y202772D01*
X139001Y202635D01*
X138455Y202090D01*
X136409Y201135D01*
X135045Y200725D01*
X132862Y200862D01*
X131362Y201544D01*
X130680Y201817D01*
X130407Y201953D01*
X129929Y202431D01*
X129111Y203931D01*
X128838Y204613D01*
X128702Y205977D01*
X128633Y216549D01*
X128770Y217094D01*
X129111Y217572D01*
X129316Y217777D01*
X130407Y217640D01*
D02*
G37*
G36*
X109536Y224051D02*
X115606Y224119D01*
X116971Y223983D01*
X118607Y223847D01*
X119699Y223710D01*
X120244Y223574D01*
X120722Y223233D01*
X120995Y222960D01*
X121267Y222824D01*
X121813Y222278D01*
X122086Y222142D01*
X122563Y221664D01*
X122700Y221391D01*
X123109Y220436D01*
X123245Y219482D01*
X123518Y218390D01*
X123314Y217231D01*
X123041Y216140D01*
X122768Y215458D01*
X122222Y214912D01*
X121949Y214776D01*
X121472Y214435D01*
X121199Y213480D01*
X121677Y212593D01*
X121949Y212457D01*
X123245Y211570D01*
X123382Y211297D01*
X124064Y210615D01*
X124337Y209933D01*
X124609Y207205D01*
X124473Y206796D01*
X124337Y205295D01*
X123654Y204067D01*
X123382Y203795D01*
X123245Y203522D01*
X122632Y202908D01*
X122359Y202772D01*
X121608Y202158D01*
X121404Y201953D01*
X120449Y201680D01*
X119153Y201476D01*
X116698Y201203D01*
X111309Y201135D01*
X110900Y201271D01*
X108308Y201135D01*
X107558Y201749D01*
X107422Y203113D01*
X107558Y204886D01*
X107422Y206659D01*
X107558Y207205D01*
X107490Y214366D01*
X107558Y221664D01*
X107422Y222073D01*
X107558Y223574D01*
X108172Y224188D01*
X108991D01*
X109536Y224051D01*
D02*
G37*
G36*
X70114D02*
X70523Y223915D01*
X71410Y223710D01*
X72092Y223438D01*
X72297Y223233D01*
X72569Y223097D01*
X73661Y222005D01*
X73797D01*
X74002Y221801D01*
X74138Y221528D01*
X74411Y221255D01*
X74957Y219345D01*
X75093Y218800D01*
X75229Y217708D01*
X75093Y217299D01*
X74957Y216344D01*
X74684Y215662D01*
X74411Y214435D01*
X73797Y213684D01*
X73320Y213207D01*
X72910Y212525D01*
X71956Y211570D01*
X71819Y211297D01*
X71478Y210956D01*
X71205Y210820D01*
X69978Y209592D01*
X69705Y209456D01*
X69364Y209251D01*
X69227Y208978D01*
X68750Y208501D01*
X68477Y208364D01*
X67727Y207750D01*
X67249Y207273D01*
X66977Y207137D01*
X66704Y206864D01*
X66431Y206727D01*
X65613Y205909D01*
X65340Y205773D01*
X65135Y205568D01*
X64999Y205295D01*
X64726Y205022D01*
X64453Y204340D01*
X64590Y203658D01*
X64794Y203454D01*
X66977Y203590D01*
X67931Y203454D01*
X72365Y203522D01*
X74547Y203385D01*
X75025Y203044D01*
X75229Y202840D01*
X75093Y201612D01*
X74888Y201408D01*
X74206Y201135D01*
X72228Y201203D01*
X66840Y201135D01*
X66431Y201271D01*
X64658Y201135D01*
X62884Y201271D01*
X61930Y201135D01*
X60838Y201271D01*
X60497Y201612D01*
X60361Y202158D01*
X60497Y203249D01*
X60770Y203522D01*
X60907Y203795D01*
X61316Y204204D01*
X62134Y205704D01*
X64521Y208092D01*
X64794Y208228D01*
X65885Y209319D01*
X66158Y209456D01*
X66772Y209933D01*
X66908Y210206D01*
X67249Y210547D01*
X67522Y210683D01*
X68136Y211161D01*
X68273Y211434D01*
X68750Y211911D01*
X69023Y212047D01*
X70864Y213889D01*
X71410Y214844D01*
X72092Y215526D01*
X72297Y216412D01*
X72433Y217231D01*
X72501Y218663D01*
X72365Y219072D01*
X72160Y219959D01*
X71615Y220777D01*
X71342Y221050D01*
X71069Y221187D01*
X70796Y221460D01*
X69432Y222005D01*
X68477Y222278D01*
X66840Y222142D01*
X64521Y220914D01*
X63907Y219891D01*
X63703Y219004D01*
X63362Y218118D01*
X63021Y217777D01*
X62475Y217640D01*
X61248Y217777D01*
X60907Y218118D01*
X61043Y219345D01*
X61589Y220573D01*
X61930Y221460D01*
X62271Y221937D01*
X62612Y222278D01*
X62884Y222414D01*
X63635Y223028D01*
X64112Y223506D01*
X65067Y223778D01*
X67386Y224188D01*
X70114Y224051D01*
D02*
G37*
G36*
X52245D02*
X52586Y223301D01*
X52449Y201749D01*
X51835Y201135D01*
X51153Y200998D01*
X50471Y201408D01*
X50267Y201612D01*
X50130Y202158D01*
X49994Y218527D01*
X49243Y218868D01*
X48834Y218731D01*
X48562Y218595D01*
X48084Y218118D01*
X47948Y217845D01*
X47743Y217640D01*
X46447Y217163D01*
X45833Y216549D01*
X45288Y216412D01*
X44742Y216549D01*
X44401Y216890D01*
X44538Y218118D01*
X45697Y219277D01*
X47061Y219959D01*
X47129Y220027D01*
X48016Y220914D01*
X48289Y221050D01*
X50130Y222892D01*
X50267Y223165D01*
X50744Y223778D01*
X51017Y223915D01*
X51699Y224188D01*
X52245Y224051D01*
D02*
G37*
G36*
X404452Y222960D02*
X404656Y222756D01*
X404725Y220368D01*
X404656Y219209D01*
X404793Y218800D01*
X404929Y218254D01*
X405270Y217913D01*
X405816Y217777D01*
X407044Y217640D01*
X407521Y217299D01*
X407658Y216754D01*
X407317Y216140D01*
X406634Y215867D01*
X405407Y215730D01*
X404929Y215389D01*
X404793Y214844D01*
X404656Y213889D01*
X404793Y212116D01*
X404656Y211706D01*
X404793Y209660D01*
X404656Y209251D01*
X404793Y206796D01*
X404656Y206386D01*
X404793Y204750D01*
X405407Y203863D01*
X405680Y203726D01*
X406498Y203181D01*
X407248Y202976D01*
X407726Y202635D01*
X407930Y202021D01*
X407794Y201476D01*
X407317Y200998D01*
X406362Y200862D01*
X405270Y200998D01*
X404861Y201135D01*
X403974Y201476D01*
X403156Y202021D01*
X402883Y202294D01*
X402747Y202567D01*
X402337Y203522D01*
Y206659D01*
Y206796D01*
X402201Y215253D01*
X401860Y215730D01*
X400905Y216003D01*
X400291Y216344D01*
X400155Y216890D01*
X400496Y217367D01*
X401178Y217640D01*
X401860Y218049D01*
X402065Y218254D01*
X402337Y219345D01*
X402269Y221460D01*
X402406Y222005D01*
X402815Y222414D01*
X403088Y222551D01*
X403906Y223097D01*
X404452Y222960D01*
D02*
G37*
G36*
X329836D02*
X330041Y222346D01*
Y220300D01*
Y220164D01*
X330177Y218390D01*
X330655Y217913D01*
X331200Y217777D01*
X332428Y217640D01*
X332906Y217163D01*
X333042Y216754D01*
X332701Y216140D01*
X332019Y215867D01*
X330655Y215730D01*
X330177Y215253D01*
X330041Y213889D01*
X330177Y204613D01*
X330791Y203863D01*
X331610Y203317D01*
X332496Y202976D01*
X333042Y202703D01*
X333178Y202431D01*
X333315Y202021D01*
X333178Y201476D01*
X332701Y200998D01*
X332155Y200862D01*
X330655Y200998D01*
X330246Y201135D01*
X329154Y201544D01*
X328404Y202158D01*
X328131Y202431D01*
X327995Y202703D01*
X327722Y203385D01*
X327586Y205022D01*
X327722Y205295D01*
X327586Y205704D01*
X327722Y207068D01*
X327586Y207478D01*
X327654Y213548D01*
X327586Y214025D01*
X327722Y214435D01*
X327586Y214844D01*
X327449Y215526D01*
X327244Y215730D01*
X325744Y216276D01*
X325539Y216890D01*
X325881Y217367D01*
X326562Y217640D01*
X327244Y218049D01*
X327449Y218254D01*
X327586Y218800D01*
X327722Y220164D01*
X327586Y221528D01*
X327995Y222210D01*
X328336Y222551D01*
X328609Y222687D01*
X329563Y223097D01*
X329836Y222960D01*
D02*
G37*
G36*
X273500D02*
X273704Y222756D01*
X273772Y220368D01*
X273704Y219209D01*
X273841Y218800D01*
X273977Y218254D01*
X274318Y217913D01*
X274864Y217777D01*
X276091Y217640D01*
X276569Y217299D01*
X276705Y216754D01*
X276569Y216344D01*
X276228Y216003D01*
X275273Y215867D01*
X274386Y215662D01*
X273977Y215389D01*
X273841Y214844D01*
X273704Y213889D01*
X273841Y212116D01*
X273704Y211706D01*
X273841Y209660D01*
X273704Y209251D01*
X273841Y206796D01*
X273704Y206386D01*
X273841Y204750D01*
X274454Y203863D01*
X274727Y203726D01*
X275546Y203181D01*
X276296Y202976D01*
X276773Y202635D01*
X276978Y202021D01*
X276842Y201476D01*
X276500Y201135D01*
X275341Y200930D01*
X274181Y200862D01*
X272681Y201680D01*
X271931Y202294D01*
X271794Y202567D01*
X271385Y203522D01*
X271249Y215253D01*
X270908Y215730D01*
X269612Y216208D01*
X269203Y216617D01*
X269339Y217163D01*
X269544Y217367D01*
X270089Y217640D01*
X270226D01*
X270908Y218049D01*
X271112Y218254D01*
X271385Y219345D01*
X271317Y221460D01*
X271453Y222005D01*
X271863Y222414D01*
X272135Y222551D01*
X272954Y223097D01*
X273500Y222960D01*
D02*
G37*
G36*
X464335Y224051D02*
X465427Y223778D01*
X466313Y223438D01*
X468496Y221255D01*
X468769Y220573D01*
X469246Y219277D01*
X469723Y218390D01*
X469996Y217299D01*
X470133Y213480D01*
X469996Y207750D01*
X469860Y207341D01*
X469655Y206591D01*
X468905Y205022D01*
X468769Y204477D01*
X468223Y203522D01*
X467541Y202840D01*
X467405Y202567D01*
X467200Y202226D01*
X467132Y202158D01*
X466927Y201953D01*
X465699Y201408D01*
X465427Y201271D01*
X464199Y200725D01*
X461062Y200862D01*
X459288Y201680D01*
X458606Y202090D01*
X458401Y202294D01*
X458265Y202567D01*
X458060Y202772D01*
X457788Y202908D01*
X457447Y203249D01*
X457310Y203522D01*
X456083Y206114D01*
X455673Y209387D01*
X455537Y209933D01*
X455401Y213889D01*
X455537Y214298D01*
X455742Y216412D01*
X455878Y217640D01*
X456014Y218731D01*
X456355Y219618D01*
X457037Y220573D01*
X457379Y221460D01*
X458060Y222278D01*
X458538Y222619D01*
X458674Y222892D01*
X459288Y223506D01*
X460243Y223778D01*
X460993Y223983D01*
X461539Y224119D01*
X463926Y224188D01*
X464335Y224051D01*
D02*
G37*
G36*
X482887D02*
X483296Y223915D01*
X483842Y223778D01*
X484797Y223233D01*
X486911Y221119D01*
X487525Y219413D01*
X488002Y218527D01*
X488275Y217572D01*
X488411Y215799D01*
X488480Y211911D01*
X488343Y208501D01*
X488207Y207273D01*
X487798Y206182D01*
X487184Y204750D01*
X486843Y203863D01*
X486502Y203385D01*
X485683Y202567D01*
X485547Y202294D01*
X485069Y201817D01*
X484183Y201476D01*
X482751Y200862D01*
X481114Y200589D01*
X480159Y200725D01*
X479613Y200862D01*
X478726Y201203D01*
X477976Y201544D01*
X477021Y202090D01*
X476067Y203044D01*
X475862Y203113D01*
X475725Y203385D01*
X475316Y204340D01*
X475180Y204613D01*
X474634Y205431D01*
X474361Y206386D01*
X474225Y207750D01*
X474089Y208296D01*
X473816Y211843D01*
X473952Y215935D01*
X474089Y216344D01*
X474293Y218459D01*
X474430Y219004D01*
X474702Y219686D01*
X475043Y220027D01*
X475180Y220300D01*
X476135Y222073D01*
X476339Y222278D01*
X476612Y222414D01*
X477090Y222892D01*
X477226Y223165D01*
X477430Y223369D01*
X478113Y223642D01*
X479204Y223915D01*
X479818Y224119D01*
X479886Y224188D01*
X482887Y224051D01*
D02*
G37*
G36*
X339726Y203931D02*
X340135Y203522D01*
X340067Y201680D01*
X340135Y200657D01*
X339999Y200248D01*
X339590Y198884D01*
X339317Y198065D01*
X339249Y197997D01*
X338703Y197315D01*
X338430Y197179D01*
X337748Y196770D01*
X337202Y196906D01*
X337134Y197247D01*
X337816Y198202D01*
X338089Y198884D01*
X338498Y199839D01*
X338362Y200521D01*
X337748Y201135D01*
X337475Y201271D01*
X337134Y201885D01*
X336861Y202840D01*
X336998Y203658D01*
X337202Y203863D01*
X338294Y204136D01*
X339726Y203931D01*
D02*
G37*
G36*
X286458Y172080D02*
X286799Y171193D01*
X286663Y170238D01*
X286322Y169897D01*
X285776Y169761D01*
X284139Y169897D01*
X283730Y169761D01*
X281138Y169897D01*
X279501Y169761D01*
X279092Y169897D01*
X278001Y169761D01*
X277660Y169420D01*
X277387Y168738D01*
X276842Y166828D01*
X276705Y166282D01*
X276432Y165327D01*
X276296Y164782D01*
X276432Y163827D01*
X277046Y163622D01*
X277865Y163759D01*
X278137Y164032D01*
X279092Y164441D01*
X280456Y164577D01*
X282502Y164441D01*
X284276Y163622D01*
X285231Y163077D01*
X285708Y162599D01*
X285776Y162395D01*
X286049Y162258D01*
X286663Y161644D01*
X286868Y160894D01*
X287618Y159325D01*
X287754Y158780D01*
X287891Y157416D01*
X287754Y155097D01*
X286799Y153051D01*
X286254Y152096D01*
X285572Y151414D01*
X285435Y151141D01*
X284821Y150527D01*
X284139Y150118D01*
X283867Y149845D01*
X283594Y149709D01*
X282912Y149436D01*
X281616Y149231D01*
X279774Y149026D01*
X276842Y149504D01*
X276091Y149981D01*
X274386Y151277D01*
X274113Y151550D01*
X273158Y153323D01*
X272886Y154005D01*
X272749Y154551D01*
X273158Y155233D01*
X273363Y155438D01*
X275000Y155301D01*
X275477Y154824D01*
X275614Y154551D01*
X276705Y152505D01*
X277319Y151891D01*
X277592Y151755D01*
X278547Y151346D01*
X280184Y151073D01*
X281411Y151209D01*
X281957Y151482D01*
X282093D01*
X283048Y152164D01*
X284208Y153323D01*
X284480Y154005D01*
X285026Y155233D01*
X285162Y155779D01*
X285299Y156734D01*
X285094Y158166D01*
X284958Y158712D01*
X284003Y160621D01*
X283594Y161031D01*
X283321Y161167D01*
X281957Y162122D01*
X280866Y162395D01*
X278547Y162258D01*
X276637Y161167D01*
X275682Y160212D01*
X275136Y160076D01*
X274386Y160280D01*
X273704Y160826D01*
X273568Y161371D01*
X273704Y162872D01*
X273841Y163281D01*
X273977Y164918D01*
X274113Y165327D01*
X274250Y166691D01*
X274795Y168465D01*
X275068Y169556D01*
X275205Y171329D01*
X275682Y172080D01*
X276228Y172216D01*
X285981Y172284D01*
X286458Y172080D01*
D02*
G37*
G36*
X68750Y172489D02*
X69023Y172216D01*
X69091Y172148D01*
X69227Y171602D01*
X69091Y170238D01*
X68477Y169488D01*
X67931Y169351D01*
X67249Y169488D01*
X67045Y169692D01*
X66772Y170375D01*
X66636Y171739D01*
X66772Y172011D01*
X66977Y172352D01*
X67659Y172625D01*
X68750Y172489D01*
D02*
G37*
G36*
X126928Y172557D02*
X127610Y172421D01*
X129725Y171261D01*
X130407Y170852D01*
X130748Y170511D01*
X130884Y170238D01*
X131498Y169488D01*
X131703Y169283D01*
X131839Y169010D01*
X132112Y168328D01*
X132385Y167237D01*
X132248Y166691D01*
X131771Y166214D01*
X130952Y166078D01*
X130816D01*
X130270Y166214D01*
X129793Y166691D01*
X129588Y167442D01*
X129111Y168192D01*
X128497Y168942D01*
X127951Y169488D01*
X127679Y169624D01*
X127269Y170033D01*
X126314Y170306D01*
X123041Y170443D01*
X122632Y170306D01*
X120995Y170170D01*
X120312Y169488D01*
X120040Y169351D01*
X119289Y168738D01*
X118880Y167783D01*
X118744Y167237D01*
X118607Y166555D01*
X118744Y166146D01*
X119153Y165055D01*
X119630Y164577D01*
X120312Y164168D01*
X120585Y163895D01*
X121267Y163622D01*
X121813Y163486D01*
X123109Y163281D01*
X124609Y162736D01*
X125496Y162395D01*
X126860Y162258D01*
X127406Y162122D01*
X128224Y161985D01*
X129725Y161031D01*
X130475Y160826D01*
X130952Y160485D01*
X132248Y159189D01*
X132385Y158643D01*
X132930Y157689D01*
X133203Y157006D01*
X133340Y156461D01*
X133203Y154415D01*
X131975Y152096D01*
X131021Y151141D01*
X130884Y150868D01*
X129316Y149981D01*
X129043Y149709D01*
X128088Y149436D01*
X126519Y149231D01*
X123041Y149163D01*
X122632Y149299D01*
X120585Y149436D01*
X119630Y149981D01*
X117857Y150936D01*
X116834Y151959D01*
X116698Y152232D01*
X115470Y154005D01*
X115334Y155779D01*
X115470Y156461D01*
X115675Y156665D01*
X116629Y156938D01*
X117311Y156802D01*
X117653Y156461D01*
X117789Y155915D01*
X117993Y155028D01*
X118471Y154278D01*
X118880Y153869D01*
X119289Y153187D01*
X120449Y152573D01*
X120858Y152164D01*
X121131Y152028D01*
X121813Y151755D01*
X124541Y151482D01*
X126928Y151686D01*
X127610Y151823D01*
X128088Y152028D01*
X128361Y152300D01*
X128633Y152437D01*
X128906Y152710D01*
X129179Y152846D01*
X129793Y153323D01*
X129929Y153596D01*
X130748Y155370D01*
X130611Y156461D01*
X130339Y156734D01*
X130202Y157006D01*
X129656Y157961D01*
X129179Y158439D01*
X128429Y158643D01*
X127610Y159053D01*
X126724Y159530D01*
X125632Y159803D01*
X124132Y159939D01*
X123723Y160076D01*
X122359Y160621D01*
X120995Y161031D01*
X119903Y161167D01*
X118948Y161849D01*
X118676Y162122D01*
X117721Y162667D01*
X116834Y163554D01*
X116357Y164850D01*
X115879Y166009D01*
X116016Y167783D01*
X116561Y169010D01*
X116902Y169897D01*
X118403Y171398D01*
X118948Y171534D01*
X119699Y172148D01*
X120449Y172489D01*
X121813Y172625D01*
X124405Y172762D01*
X126928Y172557D01*
D02*
G37*
G36*
X55245Y172625D02*
X56746Y172489D01*
X57428Y172080D01*
X58246Y171534D01*
X59474Y170852D01*
X60770Y169556D01*
X60907Y169283D01*
X61179Y169010D01*
X61998Y167510D01*
X62134Y167101D01*
X61998Y166555D01*
X61248Y166214D01*
X60497Y166009D01*
X59883Y165941D01*
X59406Y166282D01*
X59133Y166964D01*
X58587Y167919D01*
X57769Y168738D01*
X57633Y169010D01*
X56200Y170033D01*
X55245Y170306D01*
X52654Y170443D01*
X51290Y170306D01*
X50335Y170170D01*
X49653Y169761D01*
X48698Y169079D01*
X48425Y168942D01*
X47675Y168328D01*
X47266Y167919D01*
X46447Y166419D01*
X46174Y166146D01*
X45901Y165464D01*
X45765Y164509D01*
X45560Y162804D01*
X45424Y161440D01*
X45356Y160553D01*
X45492Y160144D01*
X45697Y158029D01*
X45833Y156802D01*
X45970Y156256D01*
X46652Y155165D01*
X47266Y154005D01*
X47880Y153255D01*
X48152Y153119D01*
X50062Y151755D01*
X51426Y151618D01*
X52381Y151482D01*
X53745Y151346D01*
X54154Y151482D01*
X55587Y151686D01*
X56269Y151959D01*
X56746Y152300D01*
X57155Y152710D01*
X57428Y152846D01*
X58997Y154415D01*
X59611Y156120D01*
X59952Y156461D01*
X60020Y156665D01*
X60702Y156938D01*
X61384Y157075D01*
X61793Y156938D01*
X62475Y156529D01*
X62680Y155915D01*
X62339Y155028D01*
X61998Y154688D01*
X61589Y153733D01*
X60907Y152505D01*
X60838Y152437D01*
X60088Y151686D01*
X59952Y151414D01*
X59474Y150936D01*
X58519Y150527D01*
X57837Y150118D01*
X57428Y149709D01*
X56746Y149436D01*
X55382Y149299D01*
X54427Y149163D01*
X50062Y149299D01*
X49653Y149436D01*
X48903Y149640D01*
X48084Y150186D01*
X46447Y151004D01*
X46038Y151414D01*
X45901Y151686D01*
X45424Y152164D01*
X45151Y152300D01*
X44947Y152505D01*
X44674Y153187D01*
X44128Y154142D01*
X43855Y154415D01*
X43583Y155097D01*
X43446Y155642D01*
X43242Y156802D01*
X42901Y157961D01*
X42764Y158507D01*
X42628Y159598D01*
X42491Y160007D01*
X42423Y161167D01*
X42628Y163690D01*
X42901Y164373D01*
X43310Y165737D01*
X43514Y166760D01*
X43719Y167237D01*
X44265Y167783D01*
X44401Y168055D01*
X44947Y169010D01*
X45560Y169761D01*
X45833Y169897D01*
X46106Y170170D01*
X46379Y170306D01*
X47197Y171125D01*
X47470Y171261D01*
X48971Y172080D01*
X49926Y172489D01*
X50471Y172625D01*
X54700Y172762D01*
X55245Y172625D01*
D02*
G37*
G36*
X182719Y166009D02*
X183402Y165737D01*
X183606Y165532D01*
X183879Y165396D01*
X184288Y164986D01*
X184561Y164850D01*
X185516Y164168D01*
X185721Y163963D01*
X186402Y162736D01*
X186675Y162463D01*
X186812Y162190D01*
X187085Y161508D01*
X187221Y160553D01*
X187426Y158984D01*
X187562Y158439D01*
X187630Y157961D01*
X187016Y157211D01*
X186061Y157075D01*
X184288Y157211D01*
X183743Y157075D01*
X183197Y157211D01*
X177809Y157143D01*
X176240Y157211D01*
X175285Y156665D01*
X175081Y156052D01*
X175217Y155642D01*
Y155506D01*
X175558Y153937D01*
X175899Y153460D01*
X176717Y152641D01*
X176854Y152369D01*
X177468Y151755D01*
X178218Y151550D01*
X179787Y151073D01*
X180401Y151004D01*
X181083Y151141D01*
X181765Y151414D01*
X182856Y151823D01*
X183333Y152164D01*
X183538Y152369D01*
X183674Y152641D01*
X184288Y153392D01*
X184629Y153733D01*
X184766Y154005D01*
X184970Y154210D01*
X185652Y154483D01*
X186744Y154347D01*
X187221Y153869D01*
X187085Y152778D01*
X186471Y152164D01*
X186266Y152096D01*
X185584Y150868D01*
X184425Y150118D01*
X184015Y149709D01*
X183333Y149436D01*
X180060Y149026D01*
X179105Y149163D01*
X177809Y149368D01*
X176990Y149504D01*
X175899Y150186D01*
X175694Y150391D01*
X174740Y150936D01*
X174399Y151277D01*
X173989Y151959D01*
X173444Y152505D01*
X173307Y152778D01*
X173034Y153460D01*
X172830Y154619D01*
X172694Y155165D01*
X172557Y155847D01*
X172421Y156938D01*
X172352Y158507D01*
X172489Y158916D01*
X172694Y159939D01*
X172830Y160485D01*
X173103Y161849D01*
X173239Y162395D01*
X173580Y162872D01*
X174126Y163418D01*
X174262Y163690D01*
X174876Y164577D01*
X175149Y164713D01*
X176104Y165259D01*
X176513Y165668D01*
X177195Y165941D01*
X178832Y166214D01*
X180196Y166350D01*
X182719Y166009D01*
D02*
G37*
G36*
X245536Y172489D02*
X246422Y172148D01*
X247241Y171602D01*
X248332Y171193D01*
X248741Y170784D01*
X248878Y170511D01*
X249219Y170033D01*
X249492Y169897D01*
X249833Y169556D01*
X250105Y168465D01*
X250310Y167169D01*
X250378Y166282D01*
X250242Y165873D01*
X250037Y164577D01*
X249833Y164100D01*
X248878Y163145D01*
X248741Y162872D01*
X248332Y162463D01*
X247923Y161644D01*
X248264Y161167D01*
X249219Y160894D01*
X249901Y160485D01*
X250105Y160280D01*
X250242Y160007D01*
X250856Y159257D01*
X251060Y159053D01*
X251333Y158371D01*
X251469Y157416D01*
X251333Y153733D01*
X250788Y152778D01*
X250242Y152232D01*
X249696Y151277D01*
X249219Y150800D01*
X248264Y150254D01*
X247309Y149572D01*
X246218Y149299D01*
X244854Y149163D01*
X244785Y149095D01*
X243626Y149026D01*
X243217Y149163D01*
X241375Y149368D01*
X240830Y149504D01*
X240011Y150050D01*
X239670Y150391D01*
X238715Y150936D01*
X238511Y151141D01*
X238101Y151823D01*
X237419Y152505D01*
X237283Y153051D01*
X237010Y154688D01*
X237147Y155097D01*
X237488Y155438D01*
X238442Y155574D01*
X239125Y155438D01*
X239466Y155097D01*
X239602Y154551D01*
X239738Y153596D01*
X240693Y152641D01*
X240830Y152369D01*
X241102Y152096D01*
X241171Y151891D01*
X241853Y151618D01*
X242398Y151482D01*
X243285Y151141D01*
X244103Y151004D01*
X244172Y150936D01*
X244581Y151073D01*
X245399Y151209D01*
X247173Y152164D01*
X247650Y152641D01*
X247786Y152914D01*
X248741Y154278D01*
X249014Y155370D01*
X248878Y157552D01*
X248264Y158302D01*
X247514Y159462D01*
X247309Y159666D01*
X247036Y159803D01*
X246081Y160348D01*
X244854Y160894D01*
X243762Y160758D01*
X243353Y160621D01*
X242808Y160758D01*
X242603Y160962D01*
X242467Y161508D01*
X242603Y162190D01*
X242944Y162531D01*
X243490Y162667D01*
X244513Y162872D01*
X245263Y163213D01*
X245945Y163486D01*
X246218Y163622D01*
X246968Y164236D01*
X247377Y164645D01*
X247514Y164918D01*
X247650Y165327D01*
X247786Y165873D01*
X247650Y168328D01*
X247036Y169079D01*
X246763Y169215D01*
X246422Y169556D01*
X246286Y169829D01*
X245672Y170170D01*
X245126Y170306D01*
X244172Y170443D01*
X242398Y170306D01*
X241444Y169761D01*
X240693Y169010D01*
X240557Y168738D01*
X240011Y168192D01*
X239738Y167101D01*
X239602Y166828D01*
X239125Y166350D01*
X237897Y166487D01*
X237419Y166964D01*
X237283Y167510D01*
X237419Y168601D01*
X238033Y169351D01*
X238647Y170238D01*
X239056Y170920D01*
X239261Y171125D01*
X239943Y171398D01*
X240216Y171534D01*
X241171Y172080D01*
X241853Y172352D01*
X242398Y172489D01*
X243353Y172625D01*
X245536Y172489D01*
D02*
G37*
G36*
X266406D02*
X266747Y172148D01*
X266884Y171602D01*
X266815Y170443D01*
X266884Y166964D01*
X266747Y166555D01*
X266815Y161849D01*
X266747Y161371D01*
X266884Y160962D01*
X266747Y159598D01*
X266952Y158029D01*
X267361Y157347D01*
X267907Y157211D01*
X269407Y157075D01*
X269748Y156734D01*
X269885Y156188D01*
X269748Y155370D01*
X269407Y155028D01*
X268862Y154892D01*
X267361Y154756D01*
X267020Y154415D01*
X266747Y153460D01*
X266815Y152028D01*
X266747Y151277D01*
X266884Y150868D01*
X266747Y149777D01*
X266406Y149436D01*
X265861Y149299D01*
X265451D01*
X264701Y149504D01*
X264292Y149913D01*
X264156Y150868D01*
X264292Y151277D01*
X264360Y153255D01*
X264224Y153937D01*
X264019Y154415D01*
X263678Y154756D01*
X262723Y154892D01*
X255152Y154824D01*
X254471Y155097D01*
X254198Y155779D01*
X254334Y157961D01*
X254607Y158234D01*
X254743Y158507D01*
X255289Y159053D01*
X255425Y159325D01*
X255971Y160280D01*
X256585Y161031D01*
X256789Y161235D01*
X257335Y162190D01*
X258017Y162872D01*
X258153Y163145D01*
X259040Y164441D01*
X259245Y164645D01*
X259927Y165873D01*
X260336Y166282D01*
X260473Y166555D01*
X260745Y166828D01*
X261291Y167783D01*
X261973Y168465D01*
X262314Y169351D01*
X262519Y169556D01*
X262655Y169829D01*
X263064Y170102D01*
X263201Y170375D01*
X264087Y171670D01*
X264633Y172216D01*
X264906Y172352D01*
X265588Y172625D01*
X266406Y172489D01*
D02*
G37*
G36*
X228348Y172352D02*
X230940Y170988D01*
X231417Y170511D01*
X231554Y170238D01*
X232099Y169420D01*
X232236Y169147D01*
X232645Y168738D01*
X232918Y167783D01*
X233054Y166828D01*
X232918Y164373D01*
X232372Y163418D01*
X231827Y162599D01*
X231690Y162054D01*
X231076Y161167D01*
X230804Y161031D01*
X230599Y160826D01*
X230463Y160553D01*
X229985Y159939D01*
X229712Y159803D01*
X229098Y159189D01*
X228962Y158916D01*
X228757Y158712D01*
X228485Y158575D01*
X228212Y158302D01*
X227939Y158166D01*
X227598Y157825D01*
X227461Y157552D01*
X226643Y157006D01*
X225756Y156120D01*
X225484Y155983D01*
X224733Y155370D01*
X224256Y154892D01*
X223983Y154756D01*
X222414Y153187D01*
X222278Y152641D01*
X222414Y152096D01*
X222756Y151755D01*
X223983Y151618D01*
X224392Y151755D01*
X232713Y151618D01*
X233054Y151277D01*
X233191Y150732D01*
X233054Y149777D01*
X232713Y149436D01*
X232168Y149299D01*
X229576Y149436D01*
X219550Y149368D01*
X219482Y149436D01*
X219345Y149299D01*
X218936Y149436D01*
X218118Y149572D01*
X217913Y149777D01*
X218049Y150732D01*
X218322Y151004D01*
X218459Y151277D01*
X218731Y151959D01*
X219072Y152846D01*
X219277Y153051D01*
X219413Y153323D01*
X220232Y154142D01*
X220368Y154415D01*
X222756Y156802D01*
X223028Y156938D01*
X223710Y157620D01*
X223983Y157757D01*
X224529Y158302D01*
X224802Y158439D01*
X225893Y159530D01*
X226166Y159666D01*
X227530Y161031D01*
X227803Y161167D01*
X228348Y161985D01*
X229235Y162872D01*
X230053Y164373D01*
X230463Y165327D01*
X230599Y165873D01*
X230463Y167101D01*
X229781Y168192D01*
X229644Y168465D01*
X228757Y169624D01*
X228485Y169761D01*
X228212Y170033D01*
X227257Y170306D01*
X226302Y170443D01*
X224119Y170306D01*
X223165Y169761D01*
X221596Y168192D01*
X221323Y167237D01*
X221119Y166487D01*
X220846Y166078D01*
X220300Y165941D01*
X219482Y166078D01*
X218868Y166555D01*
X218731Y167510D01*
X218868Y167919D01*
X219209Y168806D01*
X219550Y169283D01*
X219959Y169692D01*
X220096Y169965D01*
X220777Y170920D01*
X220982Y171125D01*
X221937Y171534D01*
X222892Y172080D01*
X223574Y172352D01*
X224119Y172489D01*
X226439Y172625D01*
X226575D01*
X228348Y172352D01*
D02*
G37*
G36*
X210206Y172489D02*
X210547Y172148D01*
X210683Y171193D01*
X210547Y170784D01*
X210615Y149981D01*
X210274Y149504D01*
X209660Y149299D01*
X208569Y149436D01*
X208092Y149777D01*
X207955Y150322D01*
X208092Y152096D01*
X208023Y165668D01*
X208092Y166828D01*
X207750Y167169D01*
X207068Y167033D01*
X206796Y166760D01*
X206114Y166487D01*
X205159Y165941D01*
X204613Y165396D01*
X204477D01*
X204408Y165327D01*
X203317Y164918D01*
X202431Y164850D01*
X202226Y165055D01*
X202090Y166009D01*
X202226Y166555D01*
X202567Y167033D01*
X203522Y167442D01*
X203795Y167578D01*
X204545Y168192D01*
X204886Y168533D01*
X205841Y169079D01*
X207955Y171193D01*
X208092Y171466D01*
X208364Y171739D01*
X208773Y172421D01*
X209387Y172625D01*
X210206Y172489D01*
D02*
G37*
G36*
X167510Y171261D02*
X167715Y171057D01*
X167851Y170102D01*
X167715Y169692D01*
X167646Y167033D01*
X167851Y166555D01*
X168192Y166214D01*
X169556Y166078D01*
X170238Y165941D01*
X170716Y165464D01*
X170579Y164645D01*
X170102Y164168D01*
X169147Y164032D01*
X168328Y163895D01*
X167851Y163554D01*
X167715Y163008D01*
X167851Y152641D01*
X168124Y152369D01*
X168260Y152096D01*
X168465Y151891D01*
X169420Y151618D01*
X170306Y151414D01*
X170784Y151073D01*
X171125Y150732D01*
X170988Y149777D01*
X170784Y149572D01*
X170102Y149299D01*
X169420D01*
X167101Y149436D01*
X166487Y149913D01*
X166350Y150186D01*
X165532Y151004D01*
X165259Y152096D01*
X165123Y163554D01*
X164645Y164032D01*
X163895Y164236D01*
X163349Y164509D01*
X163213Y165055D01*
X163349Y165600D01*
X163554Y165805D01*
X164236Y166078D01*
X164782Y166214D01*
X165259Y166691D01*
X165396Y167783D01*
X165259Y168192D01*
X165396Y169965D01*
X166282Y171125D01*
X166964Y171398D01*
X167510Y171261D01*
D02*
G37*
G36*
X154278Y166214D02*
X156734Y166078D01*
X157689Y165532D01*
X158371Y164850D01*
X158643Y164713D01*
X159394Y163963D01*
X159666Y162872D01*
X159803Y159871D01*
Y152778D01*
Y152641D01*
X159939Y151141D01*
X160485Y149913D01*
X160007Y149436D01*
X159053Y149299D01*
X158166Y149640D01*
X157757Y150050D01*
X157620Y150322D01*
X157416Y150663D01*
X156870Y150800D01*
X155915Y150663D01*
X155642Y150391D01*
X155370Y150254D01*
X154960Y149845D01*
X154005Y149436D01*
X152369Y149163D01*
X151414Y149026D01*
X149572Y149231D01*
X148072Y149504D01*
X147253Y150050D01*
X146639Y150800D01*
X146162Y151277D01*
X146025Y151550D01*
X145616Y152505D01*
X145480Y153869D01*
X145616Y154415D01*
X145753Y155506D01*
X146025Y155779D01*
X146162Y156052D01*
X146844Y156734D01*
X146912Y156938D01*
X147185Y157075D01*
X147731Y157620D01*
X148004Y157757D01*
X148958Y158166D01*
X150050Y158439D01*
X151686Y158712D01*
X152641Y158848D01*
X154210Y159189D01*
X156256Y159598D01*
X156938Y159871D01*
X157211Y160144D01*
X157347Y160690D01*
X157211Y162054D01*
X156324Y163349D01*
X156052Y163622D01*
X155370Y163895D01*
X153801Y164236D01*
X151823Y164304D01*
X151414Y164168D01*
X150118Y163690D01*
X149640Y163349D01*
X149299Y163008D01*
X149163Y162463D01*
X148890Y161781D01*
X148413Y161303D01*
X147458Y161167D01*
X146639Y161440D01*
X146298Y161781D01*
X146435Y162599D01*
X147390Y164373D01*
X147594Y164577D01*
X148549Y165123D01*
X148958Y165532D01*
X149231Y165668D01*
X149913Y165941D01*
X150868Y166078D01*
X151414Y166214D01*
X153869Y166350D01*
X154278Y166214D01*
D02*
G37*
G36*
X140296Y170920D02*
X140160Y167510D01*
X140296Y166555D01*
X140637Y166214D01*
X142683Y165941D01*
X143025Y165737D01*
X143161Y165191D01*
X143025Y164645D01*
Y164509D01*
X142820Y164304D01*
X141865Y164032D01*
X140774Y163895D01*
X140296Y163418D01*
X140160Y162872D01*
X140296Y152778D01*
X140910Y152028D01*
X141865Y151618D01*
X142888Y151414D01*
X143366Y151073D01*
X143707Y150322D01*
X143366Y149572D01*
X142274Y149299D01*
X139546Y149436D01*
X139069Y149777D01*
X138932Y150050D01*
X137977Y151004D01*
X137841Y151550D01*
X137773Y155301D01*
X137841Y155506D01*
X137705Y155915D01*
X137773Y162940D01*
X137636Y163486D01*
X137091Y164032D01*
X136545Y164168D01*
X135863Y164577D01*
X135659Y164782D01*
X135795Y165600D01*
X135999Y165805D01*
X137295Y166282D01*
X137568Y166419D01*
X137841Y167101D01*
X137705Y169420D01*
X138387Y170647D01*
X139001Y171261D01*
X139683Y171398D01*
X140296Y170920D01*
D02*
G37*
G36*
X77412D02*
X77344Y168669D01*
X77412Y168055D01*
X77276Y167646D01*
X77412Y166555D01*
X77617Y166350D01*
X78162Y166214D01*
X79594Y166009D01*
X80140Y165464D01*
X80004Y164509D01*
X79799Y164304D01*
X79117Y164032D01*
X77889Y163895D01*
X77412Y163418D01*
X77276Y162463D01*
X77412Y160962D01*
X77276Y160553D01*
X77412Y158507D01*
X77276Y158098D01*
X77412Y155779D01*
X77276Y155370D01*
X77412Y152914D01*
X78094Y151959D01*
X78981Y151618D01*
X79799Y151482D01*
X80481Y151073D01*
X80686Y150868D01*
X80822Y150322D01*
X80686Y149777D01*
X80481Y149572D01*
X79526Y149299D01*
X76662Y149436D01*
X75911Y150186D01*
X75775Y150459D01*
X75434Y150800D01*
X75229Y150868D01*
X74957Y151550D01*
X74820Y163418D01*
X74479Y163895D01*
X73115Y164441D01*
X72910Y164645D01*
X72774Y165191D01*
X72910Y165464D01*
X73388Y165941D01*
X74138Y166146D01*
X74616Y166350D01*
X74820Y166555D01*
X74957Y167101D01*
X74888Y169351D01*
X75025Y169897D01*
X75366Y170375D01*
Y170511D01*
X76116Y171261D01*
X76798Y171398D01*
X77412Y170920D01*
D02*
G37*
G36*
X69091Y165737D02*
X69227Y165191D01*
X69159Y151346D01*
X69227Y149913D01*
X68886Y149436D01*
X67931Y149299D01*
X67249Y149436D01*
X66636Y149913D01*
X66772Y151959D01*
Y152096D01*
X66636Y154415D01*
X66772Y154824D01*
X66636Y157006D01*
X66772Y157416D01*
X66636Y159598D01*
X66772Y160007D01*
X66636Y162190D01*
X66772Y162599D01*
X66704Y165396D01*
X67045Y165873D01*
X67249Y166078D01*
X68204Y166214D01*
X69091Y165737D01*
D02*
G37*
G36*
X100601Y151959D02*
X100874Y151277D01*
X100942Y147799D01*
X100806Y147253D01*
X100533Y146571D01*
X100056Y146094D01*
X99919Y145821D01*
X99647Y145548D01*
X99578Y145344D01*
X99033Y145071D01*
X98419Y145412D01*
X98282Y145957D01*
X98692Y146639D01*
X99033Y146980D01*
X99237Y147049D01*
X99374Y147321D01*
X99510Y147731D01*
X99647Y148276D01*
X99374Y148958D01*
X99033Y149299D01*
X98760Y149436D01*
X98282Y149777D01*
X98146Y150322D01*
X98282Y151550D01*
X98896Y152300D01*
X99578Y152437D01*
X99715D01*
X100601Y151959D01*
D02*
G37*
G36*
X83073Y166078D02*
X83755Y165941D01*
X84028Y165668D01*
X84232Y165600D01*
X84642Y164645D01*
X84710Y164577D01*
X84846Y164032D01*
X85051Y163281D01*
X85255Y162395D01*
X86142Y160690D01*
X86483Y159121D01*
X86620Y158575D01*
X87506Y156870D01*
X87643Y156324D01*
X87847Y154756D01*
X88120Y154074D01*
X88325Y153869D01*
X88393Y153664D01*
X88939Y153528D01*
X89416Y153869D01*
X89552Y154142D01*
X90234Y155642D01*
X90507Y156597D01*
X90644Y157143D01*
X91121Y158439D01*
X91735Y159871D01*
X91871Y160417D01*
X92076Y161167D01*
X92963Y163145D01*
X93235Y164236D01*
X93440Y164986D01*
X93917Y165737D01*
X94668Y166078D01*
X96032Y165941D01*
X96236Y165737D01*
X96100Y164918D01*
X95827Y164645D01*
X95554Y163963D01*
X95418Y163008D01*
X94327Y160690D01*
X94122Y159803D01*
X93986Y159257D01*
X92963Y157006D01*
X92690Y155779D01*
X91871Y154005D01*
X91462Y152369D01*
X90916Y151414D01*
X90371Y150186D01*
X90166Y149163D01*
X89757Y148072D01*
X89143Y147049D01*
X88939Y146162D01*
X88666Y145480D01*
X88325Y145002D01*
X87915Y144593D01*
X87779Y144320D01*
X87506Y144048D01*
X87370Y143775D01*
X86620Y143025D01*
X85665Y142752D01*
X84710Y142615D01*
X83209Y142752D01*
X82732Y143229D01*
X82596Y143775D01*
X82732Y144730D01*
X83073Y145071D01*
X85392Y145207D01*
X86142Y145821D01*
X86415Y146094D01*
X87643Y148686D01*
X87779Y149231D01*
X87643Y150050D01*
X86961Y151004D01*
X86551Y152369D01*
X86347Y153119D01*
X85597Y154688D01*
X85324Y155779D01*
X85119Y156529D01*
X84914Y157006D01*
X84369Y157825D01*
X84096Y158780D01*
X83960Y159325D01*
X83755Y160076D01*
X83005Y161508D01*
X82596Y163145D01*
X82391Y164032D01*
X81368Y165055D01*
X81504Y165737D01*
X81709Y165941D01*
X82254Y166078D01*
X82664Y166214D01*
X83073Y166078D01*
D02*
G37*
G36*
X272408Y120244D02*
X273022Y119767D01*
X273158Y119221D01*
X273022Y118676D01*
X272817Y118335D01*
X272135Y118062D01*
X271181Y117925D01*
X269475Y117993D01*
X266543Y117925D01*
X266133Y118062D01*
X264156Y117857D01*
X263473Y117311D01*
X263201Y116357D01*
X263064Y114447D01*
X262928Y114038D01*
X262791Y113083D01*
X262928Y112128D01*
X263405Y112060D01*
X263815Y112196D01*
X264701Y112401D01*
X265792Y112674D01*
X267770Y112742D01*
X268179Y112605D01*
X269475Y112401D01*
X270021Y112264D01*
X270840Y111719D01*
X271181Y111378D01*
X272135Y110832D01*
X272817Y109741D01*
X273158Y109400D01*
X273295Y109127D01*
X273568Y108445D01*
X273704Y107899D01*
X273909Y106740D01*
X273977Y104898D01*
X273841Y104489D01*
X273704Y102579D01*
X273568Y102170D01*
X273022Y101215D01*
X272613Y100806D01*
X271931Y99578D01*
X271726Y99374D01*
X271453Y99237D01*
X270635Y98419D01*
X268930Y97805D01*
X268179Y97464D01*
X266270Y97191D01*
X264087Y97464D01*
X262587Y98146D01*
X261359Y98828D01*
X261018Y99169D01*
X260882Y99442D01*
X259790Y100533D01*
X259245Y102307D01*
X259381Y102989D01*
X259722Y103330D01*
X260404Y103602D01*
X261359Y103466D01*
X261837Y102989D01*
X262041Y102238D01*
X262246Y101761D01*
X262791Y101215D01*
X262928Y100942D01*
X263678Y100192D01*
X263951Y100056D01*
X264224Y99783D01*
X264906Y99510D01*
X265451Y99374D01*
X267907Y99510D01*
X269271Y100465D01*
X269544Y100601D01*
X270158Y101215D01*
X270567Y101897D01*
X270840Y102170D01*
X270976Y102443D01*
X271249Y103125D01*
X271385Y105853D01*
X271249Y106262D01*
X271112Y107763D01*
X270703Y108172D01*
X270567Y108445D01*
X270294Y108581D01*
X270158Y108854D01*
X269885Y109127D01*
X269748Y109400D01*
X269271Y109877D01*
X268589Y110150D01*
X267838Y110355D01*
X266747Y110627D01*
X265724Y110696D01*
X265042Y110423D01*
X263542Y109877D01*
X262791Y109263D01*
X262450Y108922D01*
X261768Y108650D01*
X260404Y108513D01*
X259722Y108922D01*
X259518Y109127D01*
X259654Y110491D01*
X259927Y111173D01*
X260131Y112060D01*
X260404Y113151D01*
X260541Y113833D01*
X260677Y114651D01*
X260814Y115879D01*
X261086Y117653D01*
X261223Y118471D01*
X261495Y119562D01*
X261837Y120040D01*
X262587Y120381D01*
X266952D01*
X272408Y120244D01*
D02*
G37*
G36*
X286731Y120653D02*
X287686Y120381D01*
X288573Y120176D01*
X289323Y119699D01*
X289596Y119289D01*
X289869Y119153D01*
X290482Y118676D01*
X291028Y117311D01*
X291710Y116629D01*
X291847Y116084D01*
X291710Y115538D01*
X290960Y115197D01*
X289732Y115334D01*
X289323Y115743D01*
X289118Y115811D01*
X288982Y116084D01*
X288709Y116357D01*
X287959Y117789D01*
X285640Y118880D01*
X284276Y118744D01*
X282230Y117653D01*
X281889Y117448D01*
X281752Y117175D01*
X281207Y116357D01*
X281070Y116084D01*
X280388Y115129D01*
X280184Y114242D01*
X280047Y113424D01*
X279842Y111582D01*
X279706Y111037D01*
X279842Y110627D01*
X280456Y110559D01*
X281138Y110832D01*
X281820Y111241D01*
X282571Y111855D01*
X283321Y112196D01*
X284276Y112333D01*
X284821Y112469D01*
X287413Y112333D01*
X287822Y112196D01*
X288095Y112060D01*
X288846Y111446D01*
X290210Y110627D01*
X290482Y110218D01*
X290551Y110150D01*
X291233Y109059D01*
X291437Y108854D01*
X291574Y108581D01*
X291847Y107899D01*
X292119Y105990D01*
X291983Y102989D01*
X291847Y102579D01*
X291710Y101624D01*
X291301Y101215D01*
X291164Y100942D01*
X290892Y100670D01*
X290346Y99715D01*
X289050Y98419D01*
X287140Y97600D01*
X286185Y97328D01*
X284821Y97191D01*
X284412Y97328D01*
X283185Y97464D01*
X281957Y98010D01*
X281275Y98282D01*
X280593Y98692D01*
X279911Y99374D01*
X279638Y99510D01*
X279160Y99988D01*
X278888Y100670D01*
X278478Y101352D01*
X278206Y101624D01*
X277933Y102307D01*
X277455Y105376D01*
X277319Y106603D01*
X277183Y107422D01*
X277114Y108718D01*
X277251Y109127D01*
X277387Y111992D01*
X277523Y112401D01*
X277728Y113697D01*
X277865Y114515D01*
X278001Y115197D01*
X278274Y115879D01*
X278478Y116084D01*
X278615Y116357D01*
X279570Y118130D01*
X280184Y118744D01*
X280456Y118880D01*
X281411Y119835D01*
X281684Y119972D01*
X282366Y120244D01*
X282912Y120381D01*
X283798Y120585D01*
X284480Y120722D01*
X286322Y120790D01*
X286731Y120653D01*
D02*
G37*
G36*
X110627Y114515D02*
X111855Y113969D01*
X113356Y113151D01*
X113560Y112946D01*
X114106Y111719D01*
X114515Y110764D01*
X114788Y109673D01*
Y108308D01*
Y108172D01*
X114720Y100329D01*
X114788Y98487D01*
X114311Y97873D01*
X113765Y97737D01*
X112946Y97873D01*
X112469Y98214D01*
X112196Y98896D01*
X112060Y109536D01*
X111787Y110218D01*
X111446Y111105D01*
X110900Y111651D01*
X110627Y111787D01*
X109809Y112333D01*
X108718Y112605D01*
X108172Y112469D01*
X106944Y112333D01*
X105444Y111378D01*
X105171Y111241D01*
X104694Y110764D01*
X104353Y109877D01*
X104080Y109195D01*
X103875Y108581D01*
X103739Y108036D01*
X103671Y106194D01*
X103739Y104489D01*
X103602Y104080D01*
X103739Y102716D01*
X103602Y100533D01*
X103739Y99988D01*
X103602Y98487D01*
X103261Y98010D01*
X102989Y97873D01*
X102170Y97600D01*
X101488Y98010D01*
X101284Y98214D01*
X101147Y99578D01*
X101284Y113629D01*
X101624Y114106D01*
X102307Y114379D01*
X102852Y114242D01*
X103193Y113901D01*
X103534Y113015D01*
X103671Y112742D01*
X104216Y112605D01*
X104830Y112946D01*
X104966Y113219D01*
X105444Y113697D01*
X106331Y114038D01*
X107013Y114311D01*
X107763Y114515D01*
X108308Y114651D01*
X110627Y114515D01*
D02*
G37*
G36*
X140637Y114242D02*
X141388Y113629D01*
X141660Y112537D01*
X141524Y111855D01*
X141456Y111787D01*
X141388Y111719D01*
X141183Y111514D01*
X140228Y111241D01*
X139410Y111378D01*
X138796Y111992D01*
X138932Y113492D01*
X139546Y114242D01*
X140092Y114379D01*
X140637Y114242D01*
D02*
G37*
G36*
X128224Y114515D02*
X129452Y113969D01*
X130339Y113629D01*
X131157Y112946D01*
X131498Y112605D01*
X131771Y112469D01*
X132112Y112128D01*
X132248Y111855D01*
X132794Y110900D01*
X133203Y110491D01*
X133476Y109400D01*
X133681Y107831D01*
X133749Y106262D01*
X133612Y105853D01*
X133544Y105785D01*
X133271Y105512D01*
X132726Y105376D01*
X122836Y105444D01*
X122154Y105308D01*
X121745Y105035D01*
X121472Y104080D01*
X121813Y102511D01*
X122290Y101761D01*
X122700Y101352D01*
X122836Y101079D01*
X123314Y100465D01*
X124268Y99919D01*
X125496Y99374D01*
X128224Y99510D01*
X129520Y100397D01*
X130339Y101215D01*
X130475Y101488D01*
X131634Y102648D01*
X132180Y102784D01*
X132862Y102648D01*
X133340Y102170D01*
X133476Y101488D01*
X132930Y100533D01*
X132112Y99715D01*
X131975Y99442D01*
X130952Y98419D01*
X130270Y98146D01*
X129384Y97805D01*
X128702Y97532D01*
X127951Y97328D01*
X126178Y97191D01*
X125632Y97328D01*
X124405Y97464D01*
X122904Y98146D01*
X122359Y98282D01*
X121472Y98896D01*
X121336Y99169D01*
X120858Y99510D01*
X120517Y99988D01*
X119972Y100533D01*
X119835Y100806D01*
X119562Y101079D01*
X119289Y102170D01*
X119153Y103261D01*
X118880Y103944D01*
X118607Y105580D01*
X118744Y106126D01*
X119017Y108445D01*
X119153Y108854D01*
X119289Y109400D01*
X119494Y110423D01*
X119972Y111173D01*
X120244Y111446D01*
X120381Y111719D01*
X120995Y112469D01*
X121404Y112878D01*
X121677Y113015D01*
X121949Y113424D01*
X122222Y113560D01*
X122904Y113833D01*
X124678Y114515D01*
X125632Y114651D01*
X128224Y114515D01*
D02*
G37*
G36*
X303646Y106876D02*
X303850Y106262D01*
X303714Y105171D01*
X303373Y104830D01*
X302827Y104694D01*
X300645Y104830D01*
X298326D01*
X297371Y104694D01*
X296962Y104830D01*
X295598Y104966D01*
X295257Y105308D01*
X294984Y106126D01*
X295120Y106535D01*
X295257Y106808D01*
X295461Y107013D01*
X296007Y107149D01*
X303168Y107217D01*
X303646Y106876D01*
D02*
G37*
G36*
X351116Y120653D02*
X352003Y120449D01*
X352548Y120312D01*
X353435Y119972D01*
X354185Y119358D01*
X354526Y119017D01*
X354799Y118880D01*
X355208Y118471D01*
X355413Y118403D01*
X355549Y118130D01*
X355959Y117721D01*
X356231Y117039D01*
X356368Y116766D01*
X357050Y115811D01*
X357323Y114856D01*
X357459Y113492D01*
X357732Y109945D01*
Y108991D01*
Y108854D01*
X357595Y108445D01*
X357459Y104762D01*
X357323Y104353D01*
X357186Y103261D01*
X356504Y102307D01*
X356231Y101624D01*
X355890Y100738D01*
X355549Y100260D01*
X354594Y99305D01*
X354458Y99033D01*
X354117Y98692D01*
X353844Y98555D01*
X351389Y97464D01*
X350843Y97328D01*
X349888Y97191D01*
X347842Y97328D01*
X345523Y98555D01*
X345251Y98828D01*
X345046Y98896D01*
X344910Y99169D01*
X343955Y100397D01*
X343682Y100670D01*
X343409Y101624D01*
X343545Y102716D01*
X343750Y102920D01*
X344705Y103193D01*
X345387Y102784D01*
X345592Y102579D01*
X345933Y101693D01*
X346274Y101215D01*
X346546Y100942D01*
X346683Y100670D01*
X347706Y99647D01*
X348661Y99374D01*
X351389Y99510D01*
X351662Y99783D01*
X351935Y99919D01*
X352207Y100192D01*
X352480Y100329D01*
X352753Y100601D01*
X353026Y100738D01*
X353776Y101488D01*
X353981Y102238D01*
X354594Y103398D01*
X354867Y104080D01*
X355140Y105990D01*
X355004Y107490D01*
X354799Y107695D01*
X353844Y107558D01*
X353367Y107081D01*
X353230Y106808D01*
X352753Y106331D01*
X352207Y106194D01*
X351321Y105990D01*
X350775Y105853D01*
X349411Y105717D01*
X347638Y105990D01*
X346956Y106126D01*
X346410Y106262D01*
X345933Y106603D01*
X345251Y107285D01*
X344978Y107422D01*
X344500Y107899D01*
X344364Y108172D01*
X343750Y108922D01*
X343545Y109127D01*
X343273Y110082D01*
X343068Y111241D01*
X342932Y111923D01*
X342863Y114311D01*
X343000Y114720D01*
X343273Y116357D01*
X343545Y117039D01*
X344159Y117789D01*
X344705Y118744D01*
X344978Y118880D01*
X345251Y119153D01*
X345523Y119289D01*
X346342Y120108D01*
X347092Y120312D01*
X347910Y120449D01*
X349274Y120722D01*
X350707Y120790D01*
X351116Y120653D01*
D02*
G37*
G36*
X211297D02*
X211706Y120517D01*
X212252Y120381D01*
X213002Y120176D01*
X213752Y119699D01*
X214162Y119289D01*
X214435Y119153D01*
X215594Y117993D01*
X215730Y117721D01*
X216003Y117039D01*
X216140Y116493D01*
X216276Y115129D01*
X216140Y113219D01*
X215867Y112537D01*
X215730Y112264D01*
X215117Y111651D01*
X214162Y111105D01*
X213957Y110900D01*
X213821Y110491D01*
X214435Y109741D01*
X215662Y108786D01*
X216412Y108036D01*
X216549Y107763D01*
X217094Y107217D01*
X217367Y106262D01*
X217435Y103602D01*
X217299Y102238D01*
X217163Y101693D01*
X216617Y100874D01*
X216276Y100533D01*
X216140Y100260D01*
X215526Y99510D01*
X214571Y98555D01*
X213616Y98146D01*
X212729Y97805D01*
X211979Y97464D01*
X210615Y97328D01*
X210069Y97191D01*
X208092Y97396D01*
X207409Y97669D01*
X206659Y98010D01*
X205159Y98828D01*
X204681Y99305D01*
X204545Y99578D01*
X203590Y100533D01*
X203181Y101488D01*
X202908Y102443D01*
X203044Y102989D01*
X203522Y103466D01*
X204204Y103739D01*
X205022Y103602D01*
X205363Y103261D01*
X205636Y102307D01*
X205773Y101761D01*
X206591Y100942D01*
X206727Y100670D01*
X207205Y100192D01*
X207478Y100056D01*
X207750Y99783D01*
X208433Y99510D01*
X209387Y99374D01*
X211570Y99510D01*
X212866Y100397D01*
X213616Y100874D01*
X214298Y101966D01*
X214639Y102443D01*
X214912Y103125D01*
X214776Y105853D01*
X214093Y106808D01*
X213139Y108036D01*
X212798Y108377D01*
X212116Y108650D01*
X211570Y108786D01*
X210888Y108922D01*
X210751D01*
X208910Y108854D01*
X208501Y109127D01*
X208364Y109673D01*
X208501Y110627D01*
X208842Y110969D01*
X209797Y111105D01*
X211297Y111241D01*
X212047Y111855D01*
X212252Y112060D01*
X212525Y112196D01*
X212798Y112469D01*
X213070Y112605D01*
X213412Y112946D01*
X213684Y113629D01*
X213821Y115129D01*
X213684Y115538D01*
X213548Y116766D01*
X213275Y117039D01*
X213139Y117311D01*
X212798Y117653D01*
X212525Y117789D01*
X212252Y118062D01*
X211024Y118607D01*
X210479Y118744D01*
X209524Y118880D01*
X209115Y118744D01*
X208433Y118471D01*
X206932Y117653D01*
X206727Y117448D01*
X206182Y116493D01*
X205636Y115675D01*
X205227Y114993D01*
X205022Y114788D01*
X203931Y114924D01*
X203317Y115402D01*
X203181Y115947D01*
X203317Y116902D01*
X203863Y117448D01*
X203999Y117721D01*
X204272Y117993D01*
X204818Y118948D01*
X205295Y119289D01*
X206045Y119903D01*
X206250Y120108D01*
X207887Y120517D01*
X209797Y120790D01*
X211297Y120653D01*
D02*
G37*
G36*
X320560Y120244D02*
X320901Y119903D01*
X321038Y119358D01*
X320901Y118266D01*
X320629Y117993D01*
X320492Y117721D01*
X319674Y116902D01*
X319537Y116629D01*
X318173Y114720D01*
X317628Y113765D01*
X317014Y113015D01*
X316468Y111514D01*
X316127Y111037D01*
X315854Y110764D01*
X315582Y110082D01*
X315104Y108786D01*
X314900Y108581D01*
X314763Y108308D01*
X314490Y108036D01*
X314286Y107149D01*
X314149Y106331D01*
X313740Y105239D01*
X313126Y104216D01*
X312990Y102852D01*
X312853Y102307D01*
X312717Y100942D01*
X312581Y100533D01*
Y100397D01*
X312444Y99988D01*
X312308Y98624D01*
X311967Y98146D01*
X311285Y97873D01*
X310739Y97737D01*
X310057Y97873D01*
X309716Y98214D01*
X309580Y98760D01*
X309716Y99851D01*
X309852Y100260D01*
X309989Y100806D01*
X310193Y101693D01*
X310398Y102443D01*
X310534Y103807D01*
X310739Y104694D01*
X311012Y105376D01*
X311626Y106808D01*
X311899Y107899D01*
X312103Y108650D01*
X312581Y109400D01*
X313126Y110627D01*
X313467Y111514D01*
X313808Y111855D01*
X313945Y112128D01*
X314217Y112401D01*
X314695Y113697D01*
X315036Y114174D01*
X315582Y114720D01*
X316264Y115947D01*
X316468Y116152D01*
X316741Y116288D01*
X317082Y116629D01*
X317218Y117175D01*
X317082Y117584D01*
X316741Y117925D01*
X315786Y118062D01*
X314013Y117925D01*
X308488Y117993D01*
X307192Y117925D01*
X306510Y118335D01*
X306306Y118539D01*
X306238Y119153D01*
X306374Y119699D01*
X306715Y120176D01*
X307329Y120381D01*
X320560Y120244D01*
D02*
G37*
G36*
X176445Y120176D02*
X176581Y118812D01*
X176513Y113287D01*
X176581Y110491D01*
X176445Y110082D01*
X176581Y105308D01*
X176445Y104898D01*
X176513Y101011D01*
X176445Y100397D01*
X176581Y99988D01*
X176445Y98351D01*
X175831Y97737D01*
X174603Y97873D01*
X174126Y98351D01*
X173989Y99305D01*
X174058Y114379D01*
X173785Y115061D01*
X173103Y115334D01*
X172216Y114993D01*
X171602Y114379D01*
X171329Y114242D01*
X169829Y113424D01*
X169556Y113151D01*
X168874Y112878D01*
X168192Y113015D01*
X167851Y113765D01*
X168055Y114515D01*
X168124Y114583D01*
X168328Y114924D01*
X168601Y115061D01*
X169556Y116016D01*
X170443Y116357D01*
X171193Y116834D01*
X172011Y117653D01*
X172284Y117789D01*
X172898Y118266D01*
X173034Y118539D01*
X174262Y119767D01*
X174399Y120040D01*
X174740Y120517D01*
X175694Y120790D01*
X176445Y120176D01*
D02*
G37*
G36*
X251947Y120517D02*
X252288Y120176D01*
X252424Y119630D01*
Y112810D01*
Y112674D01*
X252561Y106126D01*
X253038Y105649D01*
X255084Y105512D01*
X255289Y105308D01*
X255562Y104353D01*
X255221Y103602D01*
X254948Y103466D01*
X254539Y103330D01*
X252902Y103193D01*
X252561Y102852D01*
X252424Y101897D01*
X252288Y98351D01*
X251674Y97737D01*
X251060Y97669D01*
X250378Y97942D01*
X250105Y98214D01*
X249969Y98760D01*
X249833Y99715D01*
X249901Y102238D01*
X249764Y102784D01*
X249355Y103193D01*
X248400Y103330D01*
X240079Y103466D01*
X239875Y103671D01*
X239602Y104626D01*
X239943Y106194D01*
X240420Y106944D01*
X240966Y107490D01*
X241102Y107763D01*
X241784Y108718D01*
X242057Y108991D01*
X242194Y109263D01*
X242739Y110082D01*
X242876Y110355D01*
X243149Y110627D01*
X243285Y110900D01*
X243694Y111309D01*
X244240Y112264D01*
X244513Y112537D01*
X244649Y112810D01*
X244922Y113083D01*
X245058Y113356D01*
X246422Y115265D01*
X246832Y115947D01*
X247241Y116357D01*
X247377Y116629D01*
X248264Y117925D01*
X248741Y118403D01*
X248878Y118676D01*
X249560Y119903D01*
X249764Y120108D01*
X250037Y120244D01*
X250992Y120653D01*
X251947Y120517D01*
D02*
G37*
G36*
X193428Y120653D02*
X194519Y120381D01*
X195746Y120108D01*
X196360Y119630D01*
X196429Y119426D01*
X196701Y119289D01*
X196974Y119017D01*
X197247Y118880D01*
X197724Y118403D01*
X198270Y117448D01*
X198679Y117039D01*
X198816Y116493D01*
X198952Y115538D01*
X198816Y112264D01*
X198202Y111514D01*
X197861Y110900D01*
X197247Y109741D01*
X196974Y109604D01*
X196633Y109263D01*
X196497Y108991D01*
X195542Y108036D01*
X195474Y107831D01*
X195201Y107695D01*
X193700Y106194D01*
X193428Y106058D01*
X192200Y104830D01*
X191927Y104694D01*
X191177Y104080D01*
X190427Y103330D01*
X190154Y103193D01*
X190017Y103057D01*
X189949Y102989D01*
X189745Y102648D01*
X189472Y102511D01*
X189199Y102238D01*
X188926Y102102D01*
X188585Y101761D01*
X188312Y100670D01*
X188449Y100397D01*
X188653Y100192D01*
X189199Y100056D01*
X192677Y100124D01*
X196429Y100056D01*
X196838Y100192D01*
X198475Y100056D01*
X198952Y99578D01*
X199088Y98624D01*
X198611Y97737D01*
X198065Y97600D01*
X197042Y97805D01*
X196838Y97873D01*
X196429Y97737D01*
X184561Y97873D01*
X183947Y98351D01*
X184084Y99169D01*
X184629Y99988D01*
X185107Y101284D01*
X185448Y101761D01*
X185857Y102034D01*
X185993Y102307D01*
X186607Y103057D01*
X187630Y104080D01*
X187767Y104353D01*
X188585Y104898D01*
X189472Y105785D01*
X189745Y105921D01*
X190086Y106126D01*
X190222Y106399D01*
X190699Y106876D01*
X190972Y107013D01*
X191723Y107626D01*
X192473Y108377D01*
X192745Y108513D01*
X193496Y109263D01*
X193564Y109468D01*
X193837Y109604D01*
X194928Y110969D01*
X195269Y111309D01*
X195542Y111992D01*
X195678Y112264D01*
X196224Y113083D01*
X196497Y114038D01*
X196360Y115675D01*
X195406Y117039D01*
X195269Y117311D01*
X194655Y117925D01*
X192882Y118744D01*
X192336Y118880D01*
X190836Y118744D01*
X189608Y118198D01*
X188653Y117653D01*
X188312Y117311D01*
X187903Y116629D01*
X187357Y116084D01*
X187085Y114447D01*
X186744Y114106D01*
X186198Y113969D01*
X185652Y114106D01*
X185380Y114242D01*
X184902Y114583D01*
X184766Y115129D01*
X184902Y116766D01*
X185516Y117516D01*
X186334Y118880D01*
X186607Y119017D01*
X186880Y119289D01*
X187153Y119426D01*
X187698Y119972D01*
X188380Y120244D01*
X189540Y120449D01*
X190086Y120585D01*
X190904Y120722D01*
X193018Y120790D01*
X193428Y120653D01*
D02*
G37*
G36*
X141115Y100533D02*
X141524Y100124D01*
X141660Y99715D01*
Y99578D01*
X141456Y98555D01*
X140978Y97805D01*
X140365Y97600D01*
X139546Y97737D01*
X139069Y98214D01*
X138932Y98760D01*
X138796Y99169D01*
X138932Y100260D01*
X139137Y100465D01*
X140092Y100738D01*
X141115Y100533D01*
D02*
G37*
G36*
X67386Y120517D02*
X67727Y120176D01*
X68000Y119085D01*
X67863Y118676D01*
X68000Y113492D01*
X68341Y113151D01*
X69296Y113287D01*
X69568Y113560D01*
X69841Y113697D01*
X70114Y113969D01*
X70796Y114242D01*
X71751Y114515D01*
X72297Y114651D01*
X74752Y114515D01*
X76252Y113833D01*
X77207Y113287D01*
X77685Y112537D01*
X78094Y112128D01*
X78230Y111855D01*
X78503Y111173D01*
X78640Y106944D01*
X78503Y98351D01*
X77889Y97600D01*
X76798Y97737D01*
X76321Y98214D01*
X76184Y99169D01*
Y104353D01*
Y104489D01*
X76048Y110218D01*
X75639Y110900D01*
X75161Y111378D01*
X74888Y111514D01*
X74070Y112333D01*
X73524Y112469D01*
X72160Y112605D01*
X71274Y112401D01*
X70114Y111787D01*
X69364Y111173D01*
X68886Y110832D01*
X68273Y110218D01*
X68068Y109332D01*
X67931Y108104D01*
X67795Y98692D01*
X67522Y98010D01*
X66568Y97600D01*
X65885Y97873D01*
X65544Y98214D01*
X65408Y98760D01*
X65340Y99510D01*
X65408Y119085D01*
X65272Y119221D01*
X65408Y119630D01*
X65544Y120176D01*
X65885Y120517D01*
X66431Y120653D01*
X67386Y120517D01*
D02*
G37*
G36*
X45219Y120585D02*
X45833Y120517D01*
X46243Y120653D01*
X54973Y120517D01*
X55382Y120381D01*
X57019Y120244D01*
X58315Y119358D01*
X58519Y119153D01*
X58792Y119017D01*
X59815Y117993D01*
X59952Y117721D01*
X60224Y117039D01*
X60361Y116493D01*
X60770Y115129D01*
X60907Y114583D01*
X60702Y113015D01*
X60566Y112333D01*
X60156Y110832D01*
X59952Y110355D01*
X59611Y109877D01*
X59338Y109741D01*
X58997Y109263D01*
X58792Y108922D01*
X58519Y108786D01*
X57292Y108104D01*
X57019Y107831D01*
X56337Y107558D01*
X53745Y107422D01*
X51972Y107285D01*
X46652Y107149D01*
X46174Y106808D01*
X46038Y106262D01*
X45970Y103602D01*
X46038Y102034D01*
X45901Y101624D01*
X46038Y99578D01*
Y99442D01*
X45901Y98487D01*
X45424Y97873D01*
X44742Y97600D01*
X43924Y97737D01*
X43583Y98078D01*
X43310Y99169D01*
X43446Y100942D01*
X43378Y109059D01*
X43446Y118403D01*
X43310Y118812D01*
X43446Y120176D01*
X43924Y120653D01*
X44538Y120722D01*
X45219Y120585D01*
D02*
G37*
G36*
X369940Y120653D02*
X370350Y120517D01*
X371100Y120312D01*
X371646Y120176D01*
X372464Y119494D01*
X374237Y117721D01*
X374510Y117039D01*
X374988Y115743D01*
X375192Y115538D01*
X375465Y114856D01*
X375601Y114311D01*
X375738Y113356D01*
X375874Y109127D01*
X375806Y106058D01*
X375738Y105990D01*
X375601Y103671D01*
X374647Y101624D01*
X374510Y101079D01*
X373896Y99919D01*
X373624Y99783D01*
X373419Y99578D01*
X373283Y99305D01*
X373010Y99033D01*
X372873Y98760D01*
X372532Y98419D01*
X371850Y98146D01*
X370077Y97328D01*
X368713Y97191D01*
X367758Y97328D01*
X366667Y97464D01*
X364893Y98282D01*
X364621Y98419D01*
X363052Y99988D01*
X362779Y100670D01*
X362233Y101624D01*
X361824Y102579D01*
X361551Y104489D01*
X361278Y106808D01*
X361142Y108581D01*
X361278Y111992D01*
X361415Y112401D01*
X361619Y114651D01*
X361756Y115470D01*
X362029Y116152D01*
X362370Y116493D01*
X362506Y116766D01*
X363461Y118539D01*
X363802Y118880D01*
X364075Y119017D01*
X364416Y119358D01*
X364552Y119630D01*
X364893Y119972D01*
X365575Y120244D01*
X366462Y120449D01*
X367212Y120653D01*
X368167Y120790D01*
X369940Y120653D01*
D02*
G37*
G36*
X333246D02*
X334133Y120449D01*
X334679Y120312D01*
X335565Y119972D01*
X336316Y119358D01*
X336384Y119153D01*
X336657Y119017D01*
X336930Y118744D01*
X337202Y118607D01*
X337543Y118266D01*
X338294Y116152D01*
X338430Y115606D01*
X338498Y114993D01*
X338362Y114583D01*
X338225Y113492D01*
X337816Y112537D01*
X337407Y111855D01*
X337066Y111514D01*
X336179Y111173D01*
X335770Y110764D01*
X335906Y110082D01*
X336384Y109468D01*
X336657Y109332D01*
X336930Y109059D01*
X337202Y108922D01*
X338089Y108036D01*
X338225Y107763D01*
X338771Y107217D01*
X339044Y106535D01*
Y106262D01*
X339112Y106194D01*
X339249Y104694D01*
X339317Y103398D01*
X339180Y102989D01*
X339044Y101488D01*
X337748Y99783D01*
X337407Y99305D01*
X336930Y98828D01*
X336657Y98692D01*
X336384Y98419D01*
X335702Y98146D01*
X334406Y97669D01*
X333519Y97328D01*
X331200Y97191D01*
X330791Y97328D01*
X329836Y97464D01*
X328336Y98146D01*
X327449Y98487D01*
X327244Y98692D01*
X326972Y98828D01*
X326358Y99442D01*
X326222Y99715D01*
X325267Y100670D01*
X324994Y101352D01*
X324789Y102238D01*
X324653Y102920D01*
X324448Y103671D01*
X324585Y105171D01*
X324721Y105580D01*
X324926Y106876D01*
X325608Y107968D01*
X326699Y109059D01*
X326972Y109195D01*
X327244Y109468D01*
X327517Y109604D01*
X327858Y109945D01*
X327995Y110491D01*
X327858Y110900D01*
X327654Y111105D01*
X326426Y111787D01*
X326085Y112537D01*
X325949Y112810D01*
X325403Y114038D01*
X325267Y114583D01*
X325403Y116357D01*
X326085Y117448D01*
X326290Y118198D01*
X326699Y118880D01*
X327381Y119289D01*
X328063Y119972D01*
X328745Y120244D01*
X330314Y120585D01*
X330859Y120722D01*
X332837Y120790D01*
X333246Y120653D01*
D02*
G37*
G36*
X91667Y114515D02*
X93167Y113833D01*
X93849Y113560D01*
X94600Y112946D01*
X95691Y111855D01*
X96100Y111173D01*
X96509Y110764D01*
X96782Y109809D01*
X96918Y109263D01*
X97123Y107968D01*
X97328Y106126D01*
X97123Y104012D01*
X96714Y101556D01*
X96168Y100738D01*
X95691Y100260D01*
X95281Y99578D01*
X95077Y99374D01*
X94804Y99237D01*
X93986Y98419D01*
X91871Y97669D01*
X91257Y97464D01*
X90712Y97328D01*
X89211Y97191D01*
X88802Y97328D01*
X87574Y97464D01*
X86074Y98146D01*
X85392Y98419D01*
X84642Y99033D01*
X83823Y99851D01*
X83687Y100124D01*
X83005Y100806D01*
X82732Y101488D01*
X82596Y102034D01*
X82391Y102920D01*
X82050Y103671D01*
X81777Y105990D01*
X81913Y107354D01*
X82050Y107763D01*
X82254Y108650D01*
X82323Y108991D01*
Y109127D01*
X82459Y109536D01*
X82596Y110082D01*
X82936Y110969D01*
X83278Y111446D01*
X83960Y112128D01*
X84096Y112401D01*
X84573Y112878D01*
X84846Y113015D01*
X85392Y113560D01*
X86074Y113833D01*
X87847Y114515D01*
X89211Y114651D01*
X91667Y114515D01*
D02*
G37*
G36*
X162736Y121063D02*
X162804Y120312D01*
X161576Y117993D01*
X160894Y116493D01*
X160758Y115947D01*
X159803Y113901D01*
X159598Y112742D01*
X159462Y112060D01*
X159053Y110423D01*
X158916Y109741D01*
X158780Y108922D01*
X158643Y107422D01*
X158575Y104489D01*
X158712Y104080D01*
X158916Y102511D01*
X159121Y101215D01*
X159530Y100260D01*
X159871Y98010D01*
X160485Y96850D01*
X160894Y95895D01*
X161099Y95009D01*
X162122Y93167D01*
X162531Y92212D01*
X162804Y91530D01*
X162872Y91462D01*
X162940Y91121D01*
X162736Y90780D01*
X162258Y90712D01*
X161576Y90985D01*
X161303Y91257D01*
X161167Y91530D01*
X159803Y93440D01*
X159666Y93849D01*
X158984Y94804D01*
X158371Y96509D01*
X157484Y98214D01*
X157347Y98760D01*
X157143Y99783D01*
X156665Y101352D01*
X156393Y102307D01*
X156256Y102852D01*
X156120Y105035D01*
X156256Y109400D01*
X156393Y109809D01*
X157006Y111514D01*
X157143Y112060D01*
X157279Y112742D01*
X157416Y113560D01*
X157825Y114651D01*
X158029Y114856D01*
X158166Y115129D01*
X158575Y116084D01*
X158916Y116971D01*
X159666Y117993D01*
X160485Y119494D01*
X161781Y121199D01*
X162736Y121063D01*
D02*
G37*
G36*
X223778Y120585D02*
X225143Y118676D01*
X225825Y117448D01*
X226370Y116629D01*
X226575Y115743D01*
X226984Y114924D01*
X227598Y113765D01*
X227734Y113219D01*
X227871Y112264D01*
X228007Y111719D01*
X228689Y109536D01*
X228826Y108581D01*
X228962Y104762D01*
X228826Y102852D01*
X228689Y102443D01*
X228553Y101897D01*
X228007Y99988D01*
X227871Y99442D01*
X227666Y98555D01*
X227530Y98010D01*
X226984Y97191D01*
X226507Y96032D01*
X226166Y95145D01*
X225688Y94395D01*
X225006Y93167D01*
X224051Y91803D01*
X223915Y91530D01*
X223301Y90780D01*
X222756Y90644D01*
X222210Y90780D01*
X222142Y91530D01*
X222824Y93031D01*
X223369Y93986D01*
X223915Y94804D01*
X224188Y95759D01*
X224392Y96509D01*
X225279Y98487D01*
X225415Y99033D01*
X225620Y100601D01*
X225756Y101284D01*
X225893Y101829D01*
X226098Y102579D01*
X226234Y103125D01*
X226370Y105171D01*
X226507Y105580D01*
X226302Y107968D01*
X226166Y109195D01*
X226029Y110014D01*
X225961Y110082D01*
X225620Y111787D01*
X225347Y113424D01*
X225211Y113969D01*
X224324Y115947D01*
X223847Y117243D01*
X223165Y118335D01*
X222142Y120585D01*
X222278Y121131D01*
X223028Y121199D01*
X223778Y120585D01*
D02*
G37*
G36*
X60088Y66022D02*
X60224Y65067D01*
X59747Y64180D01*
X59201Y64044D01*
X46652Y63907D01*
X46174Y63430D01*
X46038Y62884D01*
X46174Y57019D01*
X46652Y56541D01*
X47197Y56405D01*
X48562Y56269D01*
X51562Y56405D01*
X51972Y56269D01*
X55518Y56405D01*
X55928Y56269D01*
X58383Y56405D01*
X58656Y56132D01*
X58860Y56064D01*
X59133Y55382D01*
X58997Y54563D01*
X58519Y54086D01*
X57974Y53950D01*
X54359Y54018D01*
X51835Y53950D01*
X51426Y54086D01*
X48425Y53950D01*
X47675Y54018D01*
X46856Y53882D01*
X46379Y53540D01*
X46174Y53336D01*
X46038Y52790D01*
X46174Y46243D01*
X46515Y45901D01*
X47607Y45629D01*
X59270Y45697D01*
X59952Y45560D01*
X60429Y45219D01*
X60634Y44606D01*
X60497Y43924D01*
X60156Y43446D01*
X59611Y43310D01*
X43992Y43242D01*
X43514Y43583D01*
X43310Y44196D01*
X43446Y45970D01*
Y50744D01*
Y50880D01*
X43378Y65544D01*
X43514Y66090D01*
X43651Y66363D01*
X44196Y66499D01*
X45765Y66431D01*
X48562Y66499D01*
X48971Y66363D01*
X51153Y66499D01*
X53677Y66431D01*
X56337Y66499D01*
X56746Y66363D01*
X59474Y66499D01*
X60088Y66022D01*
D02*
G37*
G36*
X145139Y66363D02*
X145480Y66022D01*
X145616Y65476D01*
X145412Y64044D01*
X145071Y63566D01*
X144866Y63362D01*
X144320Y63225D01*
X143638Y63362D01*
X143297Y63703D01*
X143161Y64248D01*
X143093Y64862D01*
X143025Y64931D01*
X143161Y66022D01*
X143638Y66499D01*
X145139Y66363D01*
D02*
G37*
G36*
X112401D02*
X112878Y65885D01*
X112742Y63976D01*
X112469Y63703D01*
X112401Y63498D01*
X111446Y63225D01*
X110559Y63839D01*
X110286Y65476D01*
X110559Y66158D01*
X110764Y66363D01*
X111309Y66499D01*
X111446D01*
X112401Y66363D01*
D02*
G37*
G36*
X410863Y59952D02*
X411545Y59542D01*
X412364Y58724D01*
X412568Y58656D01*
X412705Y58383D01*
X413387Y57701D01*
X413660Y57019D01*
X413796Y56064D01*
X413864Y43855D01*
X413591Y43446D01*
X412909Y43173D01*
X411818Y43310D01*
X411477Y43651D01*
X411340Y44196D01*
X411477Y46243D01*
X411340Y46652D01*
X411477Y47061D01*
X411409Y49312D01*
X411477Y51426D01*
X411340Y51835D01*
X411204Y55928D01*
X410045Y57496D01*
X409363Y57769D01*
X407726Y58178D01*
X406703Y57974D01*
X406157Y57837D01*
X405680Y57769D01*
X405611Y57701D01*
X404861Y57224D01*
X403565Y55928D01*
X403292Y55245D01*
X403156Y53063D01*
X403088Y49721D01*
X403156Y48425D01*
X403020Y48016D01*
X403156Y45970D01*
X403020Y45560D01*
X403156Y43787D01*
X402679Y43310D01*
X401724Y43173D01*
X400837Y43514D01*
X400564Y43787D01*
X400632Y46038D01*
X400564Y53745D01*
X400701Y54154D01*
X400564Y58656D01*
X400428Y59065D01*
X400769Y59815D01*
X401315Y59952D01*
X401724Y60088D01*
X402133Y59952D01*
X402406Y59815D01*
X402747Y59474D01*
X403088Y58724D01*
X404315Y58860D01*
X405066Y59474D01*
X405407Y59815D01*
X406498Y60088D01*
X408271Y60224D01*
X410863Y59952D01*
D02*
G37*
G36*
X373078Y60088D02*
X373487Y59952D01*
X374442Y59406D01*
X375397Y58724D01*
X375670Y58587D01*
X376011Y58246D01*
X376147Y57974D01*
X376829Y57292D01*
X377102Y56610D01*
X377579Y55314D01*
X377920Y54427D01*
X378193Y52790D01*
X378330Y51290D01*
X378193Y50880D01*
X378057Y49243D01*
X377375Y47743D01*
X376897Y46447D01*
X376215Y45629D01*
X375533Y44674D01*
X375260Y44538D01*
X374306Y43855D01*
X373078Y43310D01*
X371168Y43037D01*
X369122Y43173D01*
X368440Y43583D01*
X367894Y44128D01*
X367621Y44265D01*
X367212Y44401D01*
X366803Y44265D01*
X366462Y43924D01*
X366394Y38535D01*
X366462Y37240D01*
X365985Y36762D01*
X365098Y36694D01*
X364552Y36830D01*
X364075Y37171D01*
X363870Y37376D01*
X364007Y40786D01*
Y45560D01*
Y45697D01*
X363938Y51358D01*
X364007Y52108D01*
X363870Y52517D01*
X364007Y55109D01*
X363938Y59406D01*
X364211Y59815D01*
X364757Y59952D01*
X365848Y59815D01*
X366326Y59338D01*
X366462Y59065D01*
X366803Y58724D01*
X367621Y58860D01*
X368713Y59952D01*
X369668Y60088D01*
X370213Y60224D01*
X373078Y60088D01*
D02*
G37*
G36*
X227393Y66499D02*
X227598Y66295D01*
X227871Y65613D01*
X227803Y61861D01*
X227871Y43787D01*
X227393Y43310D01*
X226848Y43173D01*
X225893Y43310D01*
X225552Y43651D01*
X225006Y44606D01*
X224529Y44674D01*
X223778Y44060D01*
X223438Y43583D01*
X222756Y43310D01*
X222210Y43173D01*
X220436Y43037D01*
X218868Y43242D01*
X218186Y43378D01*
X217435Y43855D01*
X217163Y44128D01*
X216890Y44265D01*
X216617Y44538D01*
X216344Y44674D01*
X215048Y45970D01*
X214776Y46652D01*
X213821Y48698D01*
X213684Y50062D01*
X213821Y54973D01*
X215458Y57974D01*
X215935Y58451D01*
X216208Y58587D01*
X216617Y58997D01*
X216890Y59133D01*
X217435Y59679D01*
X218118Y59952D01*
X219072Y60088D01*
X220436Y60224D01*
X222346Y60088D01*
X222756Y59952D01*
X223028Y59815D01*
X223778Y59201D01*
X224256Y58724D01*
X225211Y58860D01*
X225415Y59474D01*
Y62339D01*
Y62475D01*
X225552Y66158D01*
X225893Y66499D01*
X226439Y66636D01*
X227393Y66499D01*
D02*
G37*
G36*
X197520Y59952D02*
X198270Y59338D01*
X198748Y58997D01*
X199498Y58246D01*
X199634Y57974D01*
X200043Y57565D01*
X200316Y56473D01*
X200384Y43855D01*
X200112Y43446D01*
X199430Y43173D01*
X198338Y43310D01*
X197997Y43651D01*
X197861Y44196D01*
X197997Y45970D01*
X197861Y55655D01*
X197452Y56337D01*
X196565Y57496D01*
X195883Y57769D01*
X194928Y58042D01*
X193973Y58178D01*
X193564Y58042D01*
X192677Y57837D01*
X191586Y57428D01*
X190222Y56064D01*
X190086Y55791D01*
X189813Y55109D01*
X189676Y52654D01*
Y52517D01*
X189608Y45083D01*
X189676Y43787D01*
X189472Y43446D01*
X188517Y43173D01*
X187971Y43310D01*
X187289Y43719D01*
X187085Y43924D01*
X187221Y47334D01*
X187153Y59542D01*
X187562Y59952D01*
X188312Y60020D01*
X188858Y59883D01*
X189267Y59474D01*
X189608Y58724D01*
X190972Y58860D01*
X191791Y59679D01*
X192473Y59952D01*
X193018Y60088D01*
X194792Y60224D01*
X197520Y59952D01*
D02*
G37*
G36*
X495982Y60088D02*
X496391Y59952D01*
X497073Y59542D01*
X498642Y57974D01*
X498915Y56337D01*
X499051Y51290D01*
X498983Y45083D01*
X499051Y43787D01*
X498574Y43310D01*
X497619Y43173D01*
X496869Y43378D01*
X496596Y43651D01*
X496460Y44606D01*
X496596Y45151D01*
X496460Y56200D01*
X495778Y57155D01*
X495437Y57496D01*
X495164Y57633D01*
X494209Y58042D01*
X493254Y58178D01*
X492708Y58042D01*
X491958Y57837D01*
X490253Y56814D01*
X490185Y56746D01*
X490048Y56473D01*
X489366Y54973D01*
X489162Y53677D01*
X489025Y52449D01*
X488957Y51153D01*
X489094Y50744D01*
X488957Y47334D01*
X489094Y46925D01*
X489025Y44947D01*
X489162Y44401D01*
X489230Y44060D01*
X488753Y43446D01*
X488207Y43310D01*
X486843Y43446D01*
X486365Y43924D01*
X486502Y46925D01*
X486365Y55518D01*
X486229Y55928D01*
X485751Y57224D01*
X485479Y57496D01*
X484797Y57769D01*
X483842Y58042D01*
X483296Y58178D01*
X482410Y57974D01*
X481864Y57837D01*
X481182Y57565D01*
X480704Y57224D01*
X480227Y56746D01*
X480090Y56473D01*
X479545Y55928D01*
X479272Y55245D01*
X479136Y53063D01*
X478999Y52517D01*
X479067Y51767D01*
X478999Y49380D01*
X479136Y48971D01*
X478999Y48425D01*
X479067Y43719D01*
X478658Y43310D01*
X477703Y43173D01*
X477294Y43310D01*
X476612Y43719D01*
X476408Y44333D01*
X476544Y45288D01*
X476476Y59406D01*
X476749Y59815D01*
X477703Y60088D01*
X478113Y59952D01*
X478385Y59815D01*
X478590Y59611D01*
X479136Y58656D01*
X479340Y58587D01*
X479749Y58724D01*
X480432Y58997D01*
X480704Y59270D01*
X480977Y59406D01*
X481386Y59815D01*
X482341Y60088D01*
X484524Y60224D01*
X485069Y60088D01*
X486433Y59952D01*
X487184Y59338D01*
X487798Y58724D01*
X488070Y58587D01*
X488889Y57769D01*
X489571Y57906D01*
X490048Y58519D01*
X490185Y58792D01*
X490662Y59270D01*
X490935Y59406D01*
X491617Y59815D01*
X492572Y60088D01*
X493527Y60224D01*
X495982Y60088D01*
D02*
G37*
G36*
X355208D02*
X356436Y59952D01*
X357186Y59338D01*
X358414Y58110D01*
X358687Y57428D01*
X358823Y55245D01*
X358891Y43855D01*
X358619Y43446D01*
X357937Y43173D01*
X356845Y43310D01*
X356504Y43651D01*
X356368Y44196D01*
X356504Y46788D01*
Y48425D01*
Y48562D01*
X356368Y50062D01*
X356504Y50471D01*
X356368Y56064D01*
X355822Y57019D01*
X355345Y57496D01*
X355072Y57633D01*
X354390Y57906D01*
X353299Y58178D01*
X352276Y57974D01*
X351594Y57701D01*
X350502Y57019D01*
X350025Y56678D01*
X349411Y55655D01*
X349274Y54700D01*
X349138Y54154D01*
X349002Y53199D01*
X348865Y51426D01*
X349002Y50062D01*
X348865Y49107D01*
X348933Y46038D01*
X348865Y44879D01*
X349002Y44469D01*
X348865Y43651D01*
X348661Y43446D01*
X348115Y43310D01*
X346615Y43446D01*
X346410Y43651D01*
X346274Y44196D01*
X346410Y46788D01*
X346274Y55245D01*
X346137Y55655D01*
X345933Y56541D01*
X345728Y57019D01*
X345387Y57496D01*
X344705Y57769D01*
X343750Y58042D01*
X342932Y58178D01*
X342522Y58042D01*
X341772Y57837D01*
X341090Y57565D01*
X340613Y57224D01*
X339862Y56473D01*
X339726Y56200D01*
X339317Y55791D01*
X339180Y55245D01*
X339044Y54291D01*
X338908Y51699D01*
X338976Y43855D01*
X338635Y43378D01*
X338089Y43242D01*
X337612Y43173D01*
X337202Y43310D01*
X336520Y43719D01*
X336316Y44333D01*
X336452Y45697D01*
X336384Y59406D01*
X336725Y59883D01*
X337271Y60020D01*
X337612Y60088D01*
X338498Y59611D01*
X338839Y58724D01*
X339249Y58587D01*
X339658Y58724D01*
X340613Y59270D01*
X341022Y59679D01*
X341295Y59815D01*
X341704Y59952D01*
X342249Y60088D01*
X344023Y60224D01*
X346342Y59952D01*
X347092Y59338D01*
X347706Y58724D01*
X347979Y58587D01*
X348797Y57769D01*
X349343Y57906D01*
X349820Y58383D01*
X349957Y58656D01*
X350570Y59270D01*
X350843Y59406D01*
X351662Y59952D01*
X352821Y60156D01*
X354799Y60224D01*
X355208Y60088D01*
D02*
G37*
G36*
X84846D02*
X86074Y59406D01*
X86278Y59201D01*
X86415Y58929D01*
X86620Y58724D01*
X86892Y58587D01*
X87370Y58110D01*
X87643Y57155D01*
X87779Y54973D01*
X87847Y43992D01*
X87643Y43514D01*
X86892Y43173D01*
X85801Y43310D01*
X85460Y43651D01*
X85324Y44196D01*
X85187Y56473D01*
X84914Y56746D01*
X84778Y57019D01*
X84437Y57360D01*
X84164Y57496D01*
X82936Y58042D01*
X81982Y58178D01*
X81436Y58042D01*
X80345Y57633D01*
X79049Y56746D01*
X78776Y56473D01*
X78367Y55518D01*
X78094Y54427D01*
X77958Y53063D01*
X77821Y52108D01*
X77889Y49857D01*
X77753Y48493D01*
X77685Y48152D01*
X77821Y47743D01*
X77889Y46174D01*
X77753Y45356D01*
X77685Y45288D01*
X77821Y44879D01*
X77958Y44333D01*
X77821Y43651D01*
X77617Y43446D01*
X76662Y43310D01*
X75570Y43446D01*
X75229Y43787D01*
X75298Y45901D01*
X75161Y55314D01*
X74888Y56405D01*
X74616Y57087D01*
X74070Y57633D01*
X73524Y57769D01*
X72842Y58042D01*
X71887Y58178D01*
X71478Y58042D01*
X70728Y57837D01*
X70046Y57565D01*
X69568Y57224D01*
X68545Y56200D01*
X68409Y55928D01*
X68000Y54973D01*
X67863Y50744D01*
X67931Y43992D01*
X67727Y43514D01*
X67659Y43446D01*
X67522D01*
X66840Y43173D01*
X65954Y43378D01*
X65476Y43719D01*
X65272Y43924D01*
X65408Y46925D01*
X65340Y59542D01*
X65749Y59952D01*
X66636Y60020D01*
X67318Y59747D01*
X67454Y59474D01*
X67795Y58724D01*
X68204Y58587D01*
X68614Y58724D01*
X69568Y59270D01*
X70114Y59815D01*
X71205Y60088D01*
X72979Y60224D01*
X74343Y60088D01*
X75366Y59883D01*
X75570Y59679D01*
X75843Y59542D01*
X76184Y59065D01*
X76662Y58724D01*
X77276Y58246D01*
X77412Y57974D01*
X78026Y57769D01*
X78299Y57906D01*
X78640Y58246D01*
X78776Y58519D01*
X79663Y59406D01*
X79935Y59542D01*
X80890Y59952D01*
X81436Y60088D01*
X82391Y60224D01*
X84846Y60088D01*
D02*
G37*
G36*
X127951Y59952D02*
X128429Y59474D01*
X128565Y58929D01*
X128361Y58042D01*
X128156Y57565D01*
X127951Y57224D01*
X127269Y56951D01*
X126451Y57087D01*
X125974Y57565D01*
X125701Y58519D01*
Y59065D01*
Y59201D01*
X126110Y59883D01*
X126860Y60088D01*
X127951Y59952D01*
D02*
G37*
G36*
X450695Y60088D02*
X451104Y59952D01*
X451786Y59679D01*
X452058Y59406D01*
X452331Y59270D01*
X453013Y58587D01*
X453286Y58451D01*
X453491Y58246D01*
X453627Y57974D01*
X454036Y57565D01*
X454719Y56064D01*
X454582Y55382D01*
X453695Y55041D01*
X452468Y55177D01*
X452331Y55314D01*
X452263Y55382D01*
X451990Y56064D01*
X451445Y57019D01*
X450831Y57633D01*
X449058Y58178D01*
X448103Y58315D01*
X447284Y58178D01*
X446602Y57906D01*
X445374Y57224D01*
X445033Y56746D01*
X444420Y55996D01*
X444079Y55655D01*
X443806Y54563D01*
X443601Y52858D01*
X443533Y50471D01*
X443669Y50062D01*
X443942Y47880D01*
X444624Y46925D01*
X445170Y46379D01*
X445306Y46106D01*
X445784Y45629D01*
X446534Y45424D01*
X447693Y45083D01*
X449740Y45219D01*
X451240Y46038D01*
X451854Y46652D01*
X452127Y47334D01*
X452809Y48562D01*
X453286Y49039D01*
X454105Y49175D01*
X454787Y48766D01*
X454991Y48152D01*
X454855Y47334D01*
X453900Y45560D01*
X452877Y44538D01*
X452604Y44401D01*
X451922Y43719D01*
X451649Y43583D01*
X450967Y43310D01*
X449603Y43173D01*
X449058Y43037D01*
X446329Y43173D01*
X445920Y43310D01*
X445170Y43514D01*
X444692Y43855D01*
X444283Y44265D01*
X443124Y44879D01*
X442987Y45151D01*
X442033Y46379D01*
X441760Y46652D01*
X441487Y47743D01*
X441282Y49175D01*
X441009Y50267D01*
X440941Y51699D01*
X441078Y52108D01*
X441214Y54154D01*
X441351Y54563D01*
X441487Y55518D01*
X441623Y56064D01*
X442033Y56746D01*
X442646Y57496D01*
X442919Y58178D01*
X443328Y58587D01*
X444829Y59406D01*
X445102Y59679D01*
X445784Y59952D01*
X447148Y60088D01*
X447693Y60224D01*
X450695Y60088D01*
D02*
G37*
G36*
X311285D02*
X311694Y59952D01*
X312649Y59406D01*
X313058Y58997D01*
X313331Y58860D01*
X314081Y58383D01*
X314900Y56882D01*
X315309Y56473D01*
X315445Y55928D01*
X315309Y55382D01*
X315104Y55177D01*
X314149Y54904D01*
X313263Y55245D01*
X312853Y55655D01*
X312717Y55928D01*
X312308Y56337D01*
X312171Y56610D01*
X311558Y57496D01*
X311285Y57633D01*
X310603Y57906D01*
X308966Y58315D01*
X308011Y58178D01*
X307329Y57906D01*
X306442Y57565D01*
X305624Y56882D01*
X305215Y56473D01*
X304942Y55791D01*
X304123Y54018D01*
X303987Y53472D01*
X303850Y51017D01*
X303987Y50608D01*
X304123Y49107D01*
X304942Y47334D01*
X305351Y46652D01*
X306374Y45629D01*
X307738Y45219D01*
X308284Y45083D01*
X309239Y44947D01*
X309921Y45083D01*
X310398Y45288D01*
X310466Y45356D01*
X311694Y46038D01*
X312035Y46379D01*
X312171Y46652D01*
X312853Y47334D01*
X313126Y48016D01*
X313467Y48903D01*
X313740Y49175D01*
X314286Y49312D01*
X315241Y48766D01*
X315582Y47743D01*
X315445Y47334D01*
X315309Y46788D01*
X314627Y46106D01*
X313945Y44879D01*
X313604Y44538D01*
X312649Y43992D01*
X312240Y43583D01*
X311285Y43310D01*
X310330Y43173D01*
X309784Y43037D01*
X306783Y43173D01*
X306374Y43310D01*
X305487Y43651D01*
X305283Y43855D01*
X305010Y43992D01*
X304737Y44265D01*
X304464Y44401D01*
X303714Y45015D01*
X303032Y45697D01*
X302896Y45970D01*
X301668Y48562D01*
X301532Y49516D01*
X301395Y51699D01*
X301532Y53882D01*
X301736Y54904D01*
X302486Y56337D01*
X302827Y57224D01*
X303032Y57428D01*
X303168Y57701D01*
X304055Y58587D01*
X304328Y58724D01*
X305283Y59406D01*
X305555Y59542D01*
X306510Y59952D01*
X308420Y60224D01*
X311285Y60088D01*
D02*
G37*
G36*
X431734Y59952D02*
X432075Y59611D01*
X431938Y58519D01*
X431393Y57701D01*
X431052Y56814D01*
X430847Y56064D01*
X430711Y55518D01*
X430369Y54632D01*
X429619Y53063D01*
X429415Y52176D01*
X429278Y51631D01*
X429005Y50949D01*
X428392Y49926D01*
X428051Y48493D01*
X427641Y47402D01*
X427028Y45970D01*
X426891Y45697D01*
Y45560D01*
X426687Y44674D01*
X426482Y44196D01*
X425936Y43242D01*
X425663Y42287D01*
X425391Y41195D01*
X423754Y38194D01*
X422458Y36899D01*
X421503Y36626D01*
X420071Y36558D01*
X419525Y36694D01*
X418775Y37171D01*
X418434Y37512D01*
X418297Y38058D01*
X418434Y38604D01*
X418638Y38808D01*
X419184Y38945D01*
X421230Y39081D01*
X421980Y39695D01*
X423208Y41468D01*
X423344Y42832D01*
X423208Y44606D01*
X423072Y45015D01*
X422390Y46243D01*
X421980Y47197D01*
X421844Y48152D01*
X421503Y49039D01*
X420889Y50062D01*
X420685Y50812D01*
X420548Y51358D01*
X420412Y52040D01*
X420139Y52722D01*
X419934Y52927D01*
X419798Y53199D01*
X419389Y54154D01*
X419048Y55587D01*
X418775Y56269D01*
X418570Y56473D01*
X418161Y57428D01*
X418024Y57974D01*
X417683Y58860D01*
X417615Y59611D01*
X417820Y59815D01*
X418911Y60088D01*
X419866Y59952D01*
X420207Y59611D01*
X420412Y58724D01*
X420548Y58042D01*
X421298Y56610D01*
X421571Y55655D01*
X421776Y54632D01*
X422049Y53950D01*
X422526Y53063D01*
X422935Y51699D01*
X423140Y50949D01*
X423413Y50267D01*
X423754Y49516D01*
X424026Y48425D01*
X424368Y47538D01*
X424777Y47129D01*
X425322Y47266D01*
X425527Y47470D01*
X425800Y48152D01*
X425936Y49107D01*
X426141Y50130D01*
X426891Y51699D01*
X427300Y53336D01*
X427573Y54018D01*
X428392Y55791D01*
X428733Y57224D01*
X429005Y57906D01*
X429210Y58110D01*
X429483Y58792D01*
X429824Y59679D01*
X430097Y59952D01*
X430642Y60088D01*
X431734Y59952D01*
D02*
G37*
G36*
X288027Y66431D02*
X288573Y66295D01*
X289664Y65885D01*
X289869Y65681D01*
X290414Y65544D01*
X291096Y65272D01*
X292051Y64726D01*
X292801Y64112D01*
X293279Y63771D01*
X294029Y63157D01*
X294643Y62407D01*
X295393Y61657D01*
X295529Y61384D01*
X295802Y61111D01*
X296143Y60224D01*
X296689Y59406D01*
X297030Y58656D01*
X297235Y57633D01*
X297371Y56814D01*
X297507Y55450D01*
X297576Y53882D01*
X297439Y53472D01*
X297235Y51494D01*
X297098Y50812D01*
X296825Y50130D01*
X296280Y49312D01*
X295939Y48562D01*
X295393Y47607D01*
X294984Y47197D01*
X294848Y46925D01*
X294575Y46652D01*
X294438Y46379D01*
X293824Y45765D01*
X293552Y45629D01*
X292733Y44810D01*
X292460Y44674D01*
X291233Y43992D01*
X290005Y43446D01*
X288641Y43310D01*
X286595Y43446D01*
X285981Y43924D01*
X285231Y45356D01*
X284412Y45219D01*
X284003Y44810D01*
X283730Y44674D01*
X282775Y43992D01*
X282502Y43855D01*
X281548Y43446D01*
X280184Y43310D01*
X278547Y43446D01*
X278274Y43719D01*
X278001Y43855D01*
X277592Y44265D01*
X276637Y44810D01*
X276432Y45015D01*
X276296Y45288D01*
X275682Y46038D01*
X275341Y46652D01*
X275205Y47197D01*
X274795Y49516D01*
X274659Y50062D01*
X275136Y53131D01*
X275273Y53813D01*
X275409Y54359D01*
X275887Y55109D01*
X276432Y55928D01*
X276569Y56473D01*
X277046Y57224D01*
X277319Y57360D01*
X277933Y57974D01*
X278069Y58246D01*
X278410Y58587D01*
X279638Y59270D01*
X280047Y59679D01*
X281002Y59952D01*
X281548Y60088D01*
X282912Y60224D01*
X284685Y59952D01*
X285640Y59270D01*
X285913Y58997D01*
X286185Y58860D01*
X286936Y58246D01*
X287550Y57906D01*
X287822Y58042D01*
X288027Y58246D01*
X288232Y59133D01*
X288436Y59611D01*
X288777Y59952D01*
X289732Y60088D01*
X290414Y59679D01*
X290619Y59065D01*
X290414Y58042D01*
X290210Y57292D01*
X289937Y56610D01*
X289664Y55518D01*
X289459Y54359D01*
X289255Y52517D01*
X289050Y51631D01*
X288914Y51085D01*
X288573Y50198D01*
X288368Y49312D01*
X288232Y48766D01*
X288095Y47948D01*
X288027Y46925D01*
X288163Y46515D01*
X288573Y45833D01*
X289186Y45629D01*
X290278Y45765D01*
X292460Y47402D01*
X293483Y48425D01*
X293620Y48698D01*
X294506Y49994D01*
X294848Y50744D01*
X294984Y51290D01*
X295189Y52176D01*
X295393Y52927D01*
X295529Y53472D01*
X295666Y55245D01*
X295461Y56405D01*
X295189Y57087D01*
X295052Y57633D01*
X294848Y58383D01*
X294711Y58929D01*
X293483Y60702D01*
X293347Y60975D01*
X292597Y61725D01*
X292324Y61861D01*
X291506Y62680D01*
X288368Y64180D01*
X287413Y64317D01*
X286868Y64453D01*
X284549Y64862D01*
X282230Y64726D01*
X281820Y64590D01*
X280866Y64453D01*
X280320Y64317D01*
X278888Y63976D01*
X276773Y62816D01*
X276091Y62407D01*
X275546Y61861D01*
X275273Y61725D01*
X273568Y60020D01*
X273431Y59747D01*
X272204Y57974D01*
X271863Y57087D01*
X271658Y56882D01*
X271385Y56200D01*
X271112Y55109D01*
X270976Y54154D01*
X270840Y53609D01*
X270635Y52449D01*
X270567Y49516D01*
X270703Y49107D01*
X270908Y47675D01*
X271044Y46856D01*
X271181Y46311D01*
X271453Y45629D01*
X272817Y43310D01*
X273022Y43105D01*
X273090Y42901D01*
X273295Y42832D01*
X273431Y42559D01*
X274591Y41400D01*
X274864Y41264D01*
X275409Y40718D01*
X275682Y40582D01*
X278001Y39490D01*
X278956Y39218D01*
X279501Y39081D01*
X280661Y38877D01*
X281343Y38740D01*
X282571Y38604D01*
X286731Y38535D01*
X287140Y38672D01*
X287686Y38808D01*
X288982Y39013D01*
X289664Y39149D01*
X290210Y39286D01*
X291301Y39695D01*
X291506Y39900D01*
X293006Y40718D01*
X293756Y41332D01*
X294234Y41673D01*
X295120Y42559D01*
X295189Y42764D01*
X295461Y42901D01*
X296143Y43173D01*
X297507Y43037D01*
X297712Y42423D01*
X297030Y41468D01*
X296416Y40854D01*
X296143Y40718D01*
X295189Y39763D01*
X294916Y39627D01*
X294643Y39354D01*
X293688Y38808D01*
X293279Y38399D01*
X292597Y38126D01*
X291710Y37785D01*
X291028Y37512D01*
X290141Y37171D01*
X289186Y36899D01*
X287277Y36626D01*
X283321Y36489D01*
X282912Y36626D01*
X280184Y36762D01*
X279774Y36899D01*
X278819Y37035D01*
X277933Y37376D01*
X276500Y37990D01*
X275750Y38194D01*
X275000Y38672D01*
X274727Y38945D01*
X274454Y39081D01*
X273500Y39627D01*
X273227Y39900D01*
X273022Y39968D01*
X272886Y40241D01*
X272135Y40991D01*
X271931Y41059D01*
X271794Y41332D01*
X271385Y41741D01*
X270976Y42423D01*
X270362Y43173D01*
X270021Y43924D01*
X269475Y45288D01*
X269066Y46243D01*
X268793Y47197D01*
X268657Y48562D01*
X268521Y50744D01*
X268657Y52245D01*
Y52381D01*
X268793Y54427D01*
X269066Y55109D01*
X269680Y56814D01*
X269816Y57360D01*
X270226Y58451D01*
X270771Y59270D01*
X270976Y59474D01*
X271794Y60975D01*
X272204Y61384D01*
X272340Y61657D01*
X272613Y61930D01*
X272749Y62202D01*
X273363Y62816D01*
X273636Y62953D01*
X273841Y63157D01*
X273977Y63430D01*
X274318Y63771D01*
X275273Y64317D01*
X275546Y64590D01*
X275818Y64726D01*
X276091Y64999D01*
X276773Y65272D01*
X277523Y65476D01*
X278206Y65749D01*
X279638Y66363D01*
X280593Y66499D01*
X281138Y66636D01*
X285367Y66772D01*
X288027Y66431D01*
D02*
G37*
G36*
X391902Y60088D02*
X392312Y59952D01*
X393062Y59747D01*
X393539Y59270D01*
X393812Y59133D01*
X395108Y57837D01*
X395381Y56882D01*
X395517Y52654D01*
X395653Y45015D01*
X396063Y44333D01*
X396199Y43924D01*
X395858Y43446D01*
X395312Y43310D01*
X393948Y43446D01*
X393607Y43787D01*
X393471Y44060D01*
X392994Y44674D01*
X392448Y44810D01*
X391902Y44674D01*
X390606Y43787D01*
X389447Y43310D01*
X388901Y43173D01*
X387946Y43037D01*
X384809Y43173D01*
X384400Y43310D01*
X383718Y43446D01*
X383650Y43514D01*
X383172Y43855D01*
X382558Y44469D01*
X382422Y44742D01*
X381603Y45560D01*
X381331Y46515D01*
X381194Y47880D01*
X381399Y49175D01*
X381876Y49926D01*
X382285Y50335D01*
X382422Y50608D01*
X383036Y51221D01*
X383308Y51358D01*
X383718Y51767D01*
X384400Y52040D01*
X385491Y52313D01*
X387128Y52586D01*
X388083Y52722D01*
X388629Y52858D01*
X389788Y53063D01*
X390334Y53199D01*
X392380Y53609D01*
X392857Y53950D01*
X393062Y54563D01*
X392925Y55928D01*
X392380Y56882D01*
X391629Y57633D01*
X389993Y58042D01*
X388356Y58315D01*
X386787Y57974D01*
X385696Y57565D01*
X385491Y57360D01*
X385218Y57224D01*
X384877Y56473D01*
X384536Y55587D01*
X384263Y55314D01*
X383718Y55177D01*
X382354Y55314D01*
X382013Y55655D01*
X382149Y56610D01*
X382422Y56882D01*
X382558Y57428D01*
X382967Y58110D01*
X383445Y58587D01*
X384127Y58997D01*
X384400Y59270D01*
X384673Y59406D01*
X385900Y59952D01*
X387264Y60088D01*
X387810Y60224D01*
X391902Y60088D01*
D02*
G37*
G36*
X208569Y46038D02*
X209046Y45560D01*
X209319Y44606D01*
X209183Y43787D01*
X208842Y43446D01*
X208296Y43310D01*
X207478D01*
X206523Y43446D01*
X206182Y43651D01*
X206045Y44196D01*
X206182Y45288D01*
X206523Y45901D01*
X207205Y46174D01*
X208569Y46038D01*
D02*
G37*
G36*
X435417Y46174D02*
X436031Y45560D01*
X436235Y44810D01*
X436303Y43924D01*
X435826Y43446D01*
X434871Y43173D01*
X434053Y43310D01*
X433575Y43651D01*
X433439Y44196D01*
X433575Y45424D01*
X433916Y45901D01*
X433984Y45970D01*
X434053Y46174D01*
X434598Y46311D01*
X435417Y46174D01*
D02*
G37*
G36*
X170920Y66363D02*
X171261Y66022D01*
X171398Y65067D01*
X171261Y64112D01*
X171398Y59201D01*
X171602Y58860D01*
X172148Y58724D01*
X172830Y58997D01*
X173512Y59679D01*
X173785Y59815D01*
X174194Y59952D01*
X174740Y60088D01*
X176104Y60224D01*
X178764Y60020D01*
X179446Y59747D01*
X179923Y59406D01*
X181492Y57837D01*
X181901Y56882D01*
X182038Y54700D01*
Y46515D01*
Y46379D01*
X182106Y43992D01*
X181833Y43446D01*
X181151Y43173D01*
X180060Y43310D01*
X179718Y43651D01*
X179582Y44196D01*
X179718Y46243D01*
X179582Y46652D01*
X179718Y47061D01*
X179650Y49448D01*
X179718Y51017D01*
X179582Y51426D01*
X179718Y52790D01*
X179582Y54154D01*
X179446Y55928D01*
X179036Y56337D01*
X178900Y56610D01*
X178491Y57019D01*
X178354Y57292D01*
X178013Y57633D01*
X177059Y57906D01*
X175967Y58178D01*
X174876Y58042D01*
X174194Y57769D01*
X173307Y57428D01*
X171807Y55928D01*
X171534Y55245D01*
X171398Y53882D01*
X171329Y52449D01*
X171398Y51562D01*
X171261Y51153D01*
X171329Y43719D01*
X170920Y43310D01*
X169965Y43173D01*
X169556Y43310D01*
X168874Y43719D01*
X168669Y44333D01*
X168806Y45288D01*
X168942Y66022D01*
X169283Y66363D01*
X169829Y66499D01*
X170920Y66363D01*
D02*
G37*
G36*
X127679Y46174D02*
X128292Y45560D01*
X128497Y44810D01*
X128565Y44060D01*
X127951Y43310D01*
X126996Y43173D01*
X126246Y43378D01*
X125837Y43651D01*
X125701Y44196D01*
X125769Y45083D01*
X125837Y45151D01*
X125974Y45697D01*
X126314Y46174D01*
X126860Y46311D01*
X127679Y46174D01*
D02*
G37*
G36*
X119767Y66363D02*
X120108Y66022D01*
X120244Y65476D01*
X120108Y64112D01*
X120244Y61520D01*
X120108Y61111D01*
X120244Y58656D01*
X120108Y58246D01*
X120176Y54768D01*
X120108Y52654D01*
X120244Y52245D01*
X120176Y49721D01*
X120244Y48152D01*
X120108Y47743D01*
X120176Y43855D01*
X119903Y43446D01*
X119358Y43310D01*
X118948Y43173D01*
X118539Y43310D01*
X117993Y43446D01*
X117653Y43787D01*
X117516Y44469D01*
X117653Y44879D01*
X117721Y45629D01*
X117653Y49107D01*
Y49243D01*
X117789Y66022D01*
X118130Y66363D01*
X118676Y66499D01*
X119767Y66363D01*
D02*
G37*
G36*
X112605Y59747D02*
X112878Y59474D01*
X112946Y58860D01*
X112878Y50608D01*
Y50471D01*
X112946Y43992D01*
X112537Y43446D01*
X111582Y43173D01*
X110832Y43378D01*
X110423Y43651D01*
X110286Y44606D01*
X110423Y45970D01*
X110355Y50403D01*
X110423Y58110D01*
X110286Y58519D01*
X110423Y59611D01*
X110764Y59952D01*
X111719Y60088D01*
X112605Y59747D01*
D02*
G37*
G36*
X101897Y60088D02*
X102307Y59952D01*
X102852Y59815D01*
X103602Y59201D01*
X103807Y58997D01*
X104489Y58587D01*
X104694Y58383D01*
X105239Y56610D01*
X105376Y56064D01*
X105580Y54222D01*
X105649Y53063D01*
X105512Y52654D01*
X105376Y51290D01*
X105512Y50880D01*
X105649Y49243D01*
X105512Y48834D01*
X105649Y47880D01*
X105512Y47334D01*
X105717Y45492D01*
X106058Y44333D01*
X105921Y43514D01*
X105171Y43173D01*
X104080Y43310D01*
X103602Y43787D01*
X103261Y44674D01*
X102579Y44947D01*
X101079Y44128D01*
X100601Y43787D01*
X100533Y43719D01*
X99578Y43310D01*
X98624Y43173D01*
X97259Y43037D01*
X94668Y43173D01*
X94258Y43310D01*
X93508Y43514D01*
X92621Y44401D01*
X92349Y44538D01*
X91871Y45015D01*
X91257Y46720D01*
X91189Y48289D01*
X91599Y49243D01*
X91735Y49789D01*
X92281Y50744D01*
X93372Y51426D01*
X93849Y51904D01*
X94804Y52176D01*
X96441Y52449D01*
X97532Y52722D01*
X99101Y52927D01*
X100192Y53199D01*
X100874Y53336D01*
X101693Y53472D01*
X102375Y53745D01*
X102648Y54018D01*
X102920Y54700D01*
X102784Y55655D01*
X102238Y57019D01*
X102034Y57360D01*
X101761Y57496D01*
X101079Y57769D01*
X99715Y58178D01*
X98760Y58315D01*
X97600Y58110D01*
X96782Y57974D01*
X96236Y57837D01*
X95486Y57360D01*
X95145Y57019D01*
X95009Y56746D01*
X94736Y56473D01*
X94600Y56200D01*
X94054Y55245D01*
X93440Y55041D01*
X92485Y55177D01*
X92144Y55382D01*
X91871Y56064D01*
X92008Y56882D01*
X92281Y57155D01*
X92417Y57428D01*
X92963Y57974D01*
X93099Y58246D01*
X93713Y58860D01*
X94941Y59542D01*
X95895Y59952D01*
X96850Y60088D01*
X98624Y60224D01*
X101897Y60088D01*
D02*
G37*
G36*
X467063D02*
X467473Y59952D01*
X468018Y59815D01*
X470201Y58178D01*
X471360Y57019D01*
X471565Y56269D01*
X471838Y55587D01*
X472315Y54700D01*
X472452Y54154D01*
X472588Y52381D01*
X472452Y48971D01*
X472315Y48562D01*
X471497Y46788D01*
X471088Y45970D01*
X471019Y45901D01*
X469655Y44538D01*
X468700Y43992D01*
X468428Y43719D01*
X468155Y43583D01*
X467473Y43310D01*
X466109Y43173D01*
X465563Y43037D01*
X462698Y43173D01*
X462289Y43310D01*
X461471Y43446D01*
X460720Y44060D01*
X460107Y44538D01*
X459834Y44674D01*
X458674Y45833D01*
X457992Y47061D01*
X457583Y47743D01*
X457310Y48834D01*
X457174Y51426D01*
X457310Y54700D01*
X457447Y55109D01*
X458811Y57565D01*
X459970Y58724D01*
X460243Y58860D01*
X461198Y59542D01*
X461471Y59679D01*
X462153Y59952D01*
X464062Y60224D01*
X467063Y60088D01*
D02*
G37*
G36*
X326972D02*
X328199Y59952D01*
X329154Y59406D01*
X329563Y58997D01*
X330791Y58315D01*
X331132Y57974D01*
X331678Y57019D01*
X332224Y56473D01*
X332496Y55518D01*
X332633Y54973D01*
X332974Y52722D01*
X333042Y50608D01*
X332906Y50198D01*
X332701Y48630D01*
X332565Y47811D01*
X332428Y47266D01*
X331951Y46515D01*
X331405Y45970D01*
X330859Y45015D01*
X330655Y44810D01*
X329427Y44128D01*
X329018Y43719D01*
X328336Y43446D01*
X327790Y43310D01*
X325471Y43037D01*
X323289Y43173D01*
X322879Y43310D01*
X321856Y43514D01*
X321379Y43855D01*
X320833Y44401D01*
X320560Y44538D01*
X320424D01*
X320151Y44810D01*
X319947Y44879D01*
X319810Y45151D01*
X319196Y45901D01*
X318719Y46379D01*
X318446Y47061D01*
X318242Y47948D01*
X317901Y49107D01*
X317628Y51017D01*
X317491Y51562D01*
X317696Y52858D01*
X317832Y53950D01*
X318173Y55109D01*
X318310Y55655D01*
X318514Y56405D01*
X318992Y57155D01*
X319674Y57837D01*
X319810Y58110D01*
X320015Y58451D01*
X320288Y58587D01*
X321243Y59133D01*
X321652Y59542D01*
X321925Y59679D01*
X322607Y59952D01*
X324175Y60156D01*
X326562Y60224D01*
X326972Y60088D01*
D02*
G37*
G36*
X259586D02*
X259995Y59952D01*
X261223Y59270D01*
X261632Y58860D01*
X262587Y58315D01*
X262928Y57974D01*
X263610Y56746D01*
X263883Y56473D01*
X264019Y56200D01*
X264428Y55245D01*
X264565Y53472D01*
X264701Y52927D01*
X264837Y51972D01*
X264428Y51290D01*
X263815Y51085D01*
X263678D01*
X252902Y50949D01*
X252561Y50744D01*
X252288Y50062D01*
X252424Y49653D01*
X252629Y48766D01*
X252765Y47948D01*
X253106Y47470D01*
X253788Y46788D01*
X253925Y46515D01*
X254675Y45765D01*
X255630Y45356D01*
X256585Y45083D01*
X258904Y45219D01*
X259586Y45492D01*
X260541Y46038D01*
X260745Y46243D01*
X260882Y46515D01*
X261495Y47266D01*
X261837Y47607D01*
X261973Y47880D01*
X262314Y48221D01*
X263132Y48493D01*
X263542Y48357D01*
X264087Y48221D01*
X264428Y47880D01*
X264496Y47266D01*
X264224Y46584D01*
X263337Y45697D01*
X262791Y44742D01*
X261700Y44060D01*
X261223Y43583D01*
X260268Y43310D01*
X257949Y43037D01*
X255084Y43173D01*
X254675Y43310D01*
X253788Y43651D01*
X253311Y43992D01*
X252902Y44401D01*
X251947Y44947D01*
X251606Y45288D01*
X251197Y45970D01*
X250651Y46515D01*
X250378Y47197D01*
X250037Y48630D01*
X249901Y49175D01*
X249764Y49857D01*
X249628Y51221D01*
X249560Y52108D01*
X249696Y52517D01*
X249901Y53813D01*
X250310Y55450D01*
X250446Y56132D01*
X250924Y56882D01*
X251469Y57428D01*
X252015Y58383D01*
X252220Y58587D01*
X253447Y59270D01*
X253857Y59679D01*
X254811Y59952D01*
X255357Y60088D01*
X257130Y60224D01*
X259586Y60088D01*
D02*
G37*
G36*
X241171D02*
X241580Y59952D01*
X242467Y59611D01*
X242944Y59133D01*
X243217Y58997D01*
X244444Y58315D01*
X245126Y57224D01*
X245331Y57019D01*
X245467Y56746D01*
X245877Y56337D01*
X246150Y55245D01*
X246354Y53950D01*
X246491Y53268D01*
X246559Y50062D01*
X246422Y49653D01*
X246218Y48357D01*
X246081Y47538D01*
X245809Y46856D01*
X245058Y46106D01*
X244376Y44879D01*
X243217Y44265D01*
X242467Y43651D01*
X241853Y43446D01*
X241307Y43310D01*
X238988Y43037D01*
X236942Y43173D01*
X236533Y43310D01*
X235578Y43446D01*
X234623Y44128D01*
X234350Y44401D01*
X234077Y44538D01*
X233327Y45151D01*
X233191Y45424D01*
X232372Y46243D01*
X232236Y46515D01*
X231963Y47197D01*
X231758Y48221D01*
X231417Y49380D01*
X231281Y50335D01*
X231145Y51699D01*
X231349Y53677D01*
X231486Y54222D01*
X231827Y55382D01*
X231963Y55928D01*
X232168Y56678D01*
X232372Y56882D01*
X232509Y57155D01*
X232713Y57360D01*
X232918Y57428D01*
X233054Y57701D01*
X233327Y57974D01*
X233463Y58246D01*
X233805Y58587D01*
X234759Y59133D01*
X235032Y59406D01*
X235305Y59542D01*
X235373Y59611D01*
X236260Y59952D01*
X238579Y60224D01*
X241171Y60088D01*
D02*
G37*
G36*
X159325D02*
X159735Y59952D01*
X160280Y59815D01*
X162463Y58178D01*
X163622Y57019D01*
X163827Y56269D01*
X164100Y55587D01*
X164577Y54700D01*
X164713Y54154D01*
X164850Y52381D01*
X164713Y48971D01*
X164577Y48562D01*
X163759Y46788D01*
X163213Y45833D01*
X162667Y45288D01*
X162599Y45219D01*
X162395Y45015D01*
X162326Y44810D01*
X162054Y44674D01*
X160758Y43787D01*
X160144Y43446D01*
X159598Y43310D01*
X157279Y43037D01*
X154960Y43173D01*
X154551Y43310D01*
X153801Y43514D01*
X152982Y44060D01*
X152505Y44401D01*
X151755Y45015D01*
X150800Y45970D01*
X149981Y47470D01*
X149572Y48425D01*
X149436Y51835D01*
X149572Y54836D01*
X150254Y56064D01*
X151073Y57565D01*
X152232Y58724D01*
X152505Y58860D01*
X153460Y59542D01*
X153733Y59679D01*
X154415Y59952D01*
X156324Y60224D01*
X159325Y60088D01*
D02*
G37*
G36*
X145139Y59952D02*
X145480Y59611D01*
X145616Y59065D01*
X145480Y56473D01*
X145616Y56064D01*
X145480Y54427D01*
Y54291D01*
X145616Y52927D01*
X145480Y51290D01*
X145616Y50880D01*
X145548Y48493D01*
X145616Y47061D01*
X145480Y46652D01*
X145616Y44469D01*
X145480Y44060D01*
X145616Y41877D01*
X145480Y41468D01*
X145344Y38877D01*
X144798Y37922D01*
X143638Y36762D01*
X142274Y36626D01*
X141320Y36489D01*
X140501Y36626D01*
X139887Y36967D01*
X139751Y37512D01*
X139887Y37922D01*
X140228Y38399D01*
X140501Y38535D01*
X141183Y38808D01*
X142343Y39013D01*
X142752Y39286D01*
X143025Y40241D01*
X143161Y46106D01*
X143093Y59406D01*
X143434Y59883D01*
X144048Y60088D01*
X145139Y59952D01*
D02*
G37*
%LPC*%
G36*
X199839Y485138D02*
X198202Y484865D01*
X197656Y485001D01*
X196701Y485138D01*
X194246Y485001D01*
X193769Y484524D01*
X193632Y483569D01*
X193564Y473406D01*
X193700Y472861D01*
X193973Y472588D01*
X195065Y472315D01*
X197793Y472452D01*
X198202Y472315D01*
X201203Y472452D01*
X201339D01*
X204750Y472588D01*
X206250Y473543D01*
X207205Y474089D01*
X207546Y474566D01*
X208364Y475384D01*
X208637Y476067D01*
X208773Y476339D01*
X209456Y477294D01*
X209592Y478249D01*
X209456Y478658D01*
X209319Y480432D01*
X208228Y482478D01*
X207478Y483228D01*
X207205Y483364D01*
X206455Y483978D01*
X205568Y484456D01*
X205022Y484592D01*
X204067Y484728D01*
X201885Y484865D01*
X200248Y485001D01*
X199839Y485138D01*
D02*
G37*
G36*
X423276Y481455D02*
X422935Y481114D01*
X422799Y480841D01*
X422117Y479886D01*
X421708Y478931D01*
X421571Y478113D01*
Y477976D01*
X421298Y476749D01*
X420616Y476067D01*
X420344Y475112D01*
X420207Y474566D01*
X420071Y473475D01*
X419525Y472520D01*
X419252Y472247D01*
X419048Y471497D01*
X418911Y470678D01*
X418775Y470133D01*
X418502Y469451D01*
X417888Y468428D01*
X417615Y467746D01*
X417479Y467200D01*
X417615Y466381D01*
X418093Y465904D01*
X419252Y465836D01*
X428528Y465972D01*
X429210Y466245D01*
X429347Y466654D01*
X429210Y467473D01*
X428801Y467882D01*
X428528Y468564D01*
X428392Y469655D01*
X427573Y471156D01*
X427300Y471838D01*
X427096Y472861D01*
X426687Y473952D01*
X425936Y475521D01*
X425732Y476680D01*
X425459Y477362D01*
X425254Y477567D01*
X425118Y477840D01*
X424709Y478795D01*
X424504Y480363D01*
X424368Y480909D01*
X424026Y481386D01*
X423276Y481455D01*
D02*
G37*
G36*
X237624Y481727D02*
X237147Y481386D01*
X236874Y480295D01*
X236737Y479204D01*
X235919Y477430D01*
X235510Y475794D01*
X235373Y474975D01*
X234759Y474225D01*
X234555Y474020D01*
X234282Y473065D01*
X234146Y471838D01*
X233327Y470610D01*
X233054Y469519D01*
X232850Y468359D01*
X232372Y467609D01*
X232099Y466927D01*
X232236Y466245D01*
X233123Y465904D01*
X243012Y465836D01*
X243694Y466109D01*
X243967Y466791D01*
X243831Y467609D01*
X242739Y469928D01*
X242603Y470474D01*
X242398Y471360D01*
X242125Y472042D01*
X241784Y472656D01*
X241716Y472724D01*
X241375Y473611D01*
X241034Y475180D01*
X240352Y476271D01*
X240011Y477158D01*
X239807Y478317D01*
X239670Y478863D01*
X239125Y479681D01*
X238442Y481182D01*
X238170Y481591D01*
X237624Y481727D01*
D02*
G37*
G36*
X107354Y485820D02*
X106944Y485683D01*
X105035Y485547D01*
X102989Y484592D01*
X102443Y484456D01*
X100670Y483228D01*
X100397Y483092D01*
X98828Y481523D01*
X98760Y481455D01*
X98282Y480977D01*
X97942Y480090D01*
X97737Y479613D01*
X97055Y478658D01*
X96782Y477567D01*
X96577Y476680D01*
X96236Y475521D01*
X96100Y474975D01*
X95963Y474157D01*
X95827Y473747D01*
X95691Y472793D01*
X95623Y470269D01*
X95759Y469178D01*
X95827Y468700D01*
X95691Y468291D01*
X95827Y466654D01*
X96100Y466381D01*
X96646Y465154D01*
X96782Y463381D01*
X97328Y462426D01*
X97873Y461607D01*
X98010Y461062D01*
X98555Y460107D01*
X99033Y459629D01*
X99305Y459493D01*
X99647Y459152D01*
X99783Y458879D01*
X100397Y458265D01*
X100670Y458129D01*
X101079Y457719D01*
X101352Y457583D01*
X101897Y457037D01*
X102579Y456765D01*
X103671Y456355D01*
X104353Y455946D01*
X105308Y455673D01*
X106672Y455537D01*
X108513Y455469D01*
X110286Y455605D01*
X110832Y455742D01*
X111514Y456014D01*
X112674Y456492D01*
X113969Y456969D01*
X114720Y457719D01*
X114993Y457856D01*
X115743Y458470D01*
X116834Y459561D01*
X116971Y459834D01*
X117584Y460584D01*
X117925Y460925D01*
X118403Y462221D01*
X118744Y462698D01*
X119153Y463381D01*
X119426Y464472D01*
X119562Y465972D01*
X119835Y466654D01*
X119972Y467200D01*
X119903Y468223D01*
X120040Y469041D01*
X120244Y469792D01*
X120381Y470746D01*
X120244Y471838D01*
X120108Y472247D01*
X119972Y472793D01*
X119903Y473406D01*
X119972Y474566D01*
X119562Y475521D01*
X119426Y476885D01*
X119289Y477840D01*
X118403Y479136D01*
X117993Y480227D01*
X117516Y480977D01*
X116971Y481523D01*
X116834Y481796D01*
X116288Y482341D01*
X116152Y482614D01*
X115947Y482819D01*
X115675Y482955D01*
X115402Y483228D01*
X114447Y483774D01*
X113765Y484456D01*
X112810Y484728D01*
X111992Y484865D01*
X111173Y485410D01*
X110491Y485683D01*
X107354Y485820D01*
D02*
G37*
G36*
X187426Y377511D02*
X182515Y377375D01*
X182174Y377034D01*
X182038Y376488D01*
Y357254D01*
Y357118D01*
X182174Y354663D01*
X182515Y354185D01*
X183197Y353912D01*
X190699Y354049D01*
X191381Y354322D01*
X192336Y354594D01*
X193087Y354799D01*
X193564Y355004D01*
X194314Y355618D01*
X195133Y356300D01*
X195406Y356572D01*
X195815Y357254D01*
X196087Y357527D01*
X196224Y357800D01*
X196497Y358482D01*
X196633Y359028D01*
X196770Y360119D01*
X196906Y360528D01*
X197111Y361415D01*
X197383Y362779D01*
X197520Y363870D01*
X197588Y367485D01*
X197452Y367894D01*
X197315Y369668D01*
X197179Y370077D01*
X196906Y371168D01*
X196633Y372123D01*
X196360Y373351D01*
X195746Y374101D01*
X195201Y374919D01*
X194860Y375397D01*
X194519Y375738D01*
X193837Y376147D01*
X193087Y376761D01*
X192473Y376965D01*
X191927Y377102D01*
X190972Y377238D01*
X190427Y377375D01*
X187426Y377511D01*
D02*
G37*
G36*
X251538Y369327D02*
X249082Y369190D01*
X247786Y368304D01*
X247309Y367826D01*
X247036Y367690D01*
X246422Y367076D01*
X246013Y365712D01*
X245740Y364757D01*
X245672Y364143D01*
X245809Y363597D01*
X246150Y363120D01*
X246763Y362915D01*
X247309Y362779D01*
X248264Y362915D01*
X249833Y362847D01*
X253311Y362915D01*
X253720Y362779D01*
X254948Y362915D01*
X255425Y363256D01*
X255698Y363938D01*
Y365030D01*
Y365166D01*
X255562Y365575D01*
X255357Y366326D01*
X255016Y366803D01*
X254402Y367553D01*
X253720Y368235D01*
X253447Y368372D01*
X253175Y368645D01*
X252902Y368781D01*
X252629Y369054D01*
X251538Y369327D01*
D02*
G37*
G36*
X223438Y369054D02*
X221255Y368917D01*
X220300Y368372D01*
X218800Y367553D01*
X218595Y367349D01*
X218459Y367076D01*
X217504Y366121D01*
X216890Y364416D01*
X216549Y363666D01*
X216412Y363120D01*
X216276Y362165D01*
X216412Y358755D01*
X216958Y357527D01*
X217572Y355822D01*
X218936Y354458D01*
X219209Y354322D01*
X219891Y353640D01*
X220846Y353367D01*
X222483Y353094D01*
X224188Y353299D01*
X225006Y353435D01*
X225688Y353708D01*
X226711Y354731D01*
X226984Y354867D01*
X227734Y355618D01*
X227871Y355890D01*
X228280Y356845D01*
Y356982D01*
X228962Y358482D01*
X229098Y359028D01*
X229235Y361210D01*
X229098Y363120D01*
X228962Y363529D01*
X228689Y364211D01*
X228144Y365439D01*
X227803Y366326D01*
X226302Y367826D01*
X223983Y368917D01*
X223438Y369054D01*
D02*
G37*
G36*
X83619D02*
X81845Y368917D01*
X79526Y367690D01*
X78640Y366803D01*
X78503Y366530D01*
X78230Y366257D01*
X78094Y365985D01*
X77548Y365166D01*
X77276Y364211D01*
X77139Y363256D01*
X77003Y361483D01*
X77139Y358209D01*
X77276Y357800D01*
X77412Y356982D01*
X78026Y356231D01*
X78230Y356027D01*
X78844Y354867D01*
X79117Y354731D01*
X79867Y354117D01*
X80345Y353640D01*
X81300Y353367D01*
X82868Y353162D01*
X83891Y353094D01*
X84301Y353230D01*
X85597Y353435D01*
X86074Y353640D01*
X86892Y354458D01*
X87029D01*
X87097Y354526D01*
X87302Y354731D01*
X87574Y354867D01*
X87915Y355208D01*
X88461Y356163D01*
X88870Y356572D01*
X89143Y357254D01*
X89279Y358619D01*
X89416Y359164D01*
X89552Y361347D01*
X89211Y364416D01*
X89075Y364962D01*
X88529Y365780D01*
X88188Y366121D01*
X88052Y366394D01*
X87097Y367621D01*
X86074Y368235D01*
X85528Y368372D01*
X85255Y368645D01*
X84573Y368917D01*
X83619Y369054D01*
D02*
G37*
G36*
X172557Y303441D02*
X171193Y303305D01*
X170238Y302896D01*
X169147Y302486D01*
X168738Y302077D01*
X168669Y302009D01*
X168533Y301736D01*
X167715Y301190D01*
X167305Y300236D01*
X166760Y299281D01*
X166350Y298871D01*
X166214Y298326D01*
X166350Y297235D01*
X166555Y297030D01*
X167646Y296757D01*
X177877Y296894D01*
X178218Y297098D01*
X178491Y298053D01*
X178354Y299008D01*
X177741Y299758D01*
X177536Y299963D01*
X177400Y300508D01*
X176854Y301463D01*
X176172Y301873D01*
X176035Y302145D01*
X175763Y302418D01*
X175694Y302623D01*
X174740Y302896D01*
X173853Y303100D01*
X173103Y303305D01*
X172557Y303441D01*
D02*
G37*
G36*
X71615Y303305D02*
X69705Y303168D01*
X69296Y303032D01*
X68136Y302827D01*
X67659Y302623D01*
X65681Y300645D01*
X65544Y300372D01*
X65272Y299690D01*
X64931Y298258D01*
X64590Y297098D01*
X64385Y295529D01*
X64317Y294916D01*
X64453Y294506D01*
X64590Y293552D01*
X64794Y292528D01*
X65135Y291369D01*
X65476Y290482D01*
X65817Y290005D01*
X66363Y289459D01*
X66499Y289186D01*
X66840Y288846D01*
X67113Y288709D01*
X68068Y287754D01*
X69023Y287618D01*
X71137Y287277D01*
X71342Y287209D01*
X71751Y287345D01*
X72706Y287618D01*
X73593Y287822D01*
X75229Y289186D01*
X75911Y289869D01*
X76048Y290141D01*
X76321Y290823D01*
X76525Y291574D01*
X76798Y292256D01*
X77003Y292460D01*
X77276Y293415D01*
X77412Y296416D01*
X77276Y297507D01*
X77003Y297780D01*
X76457Y299008D01*
X76252Y300167D01*
X76048Y300645D01*
X75775Y300918D01*
X75707Y300986D01*
X74957Y301600D01*
X74343Y302350D01*
X74070Y302623D01*
X72979Y302896D01*
X71615Y303305D01*
D02*
G37*
G36*
X92349Y303441D02*
X91530Y303305D01*
X91394D01*
X90712Y303032D01*
X90166Y302896D01*
X89484Y302623D01*
X88393Y301532D01*
X88120Y301395D01*
X87643Y300918D01*
X87165Y299622D01*
X86824Y299281D01*
X86688Y299008D01*
X86278Y298053D01*
X86142Y295461D01*
X86278Y292188D01*
X86824Y291233D01*
X87097Y290960D01*
X87506Y290005D01*
X87984Y289118D01*
X88256Y288982D01*
X88529Y288709D01*
X88802Y288573D01*
X89621Y287754D01*
X91939Y287345D01*
X92281Y287277D01*
X93099Y287413D01*
X94600Y287822D01*
X95213Y288436D01*
X95486Y288573D01*
X96236Y289323D01*
X96373Y289596D01*
X96987Y290346D01*
X97328Y291233D01*
X97532Y292119D01*
X98010Y293279D01*
X98146Y293824D01*
X98010Y297235D01*
X97737Y297917D01*
X97464Y298871D01*
X97328Y299826D01*
X96987Y300713D01*
X96236Y301327D01*
X95827Y301736D01*
X95418Y302418D01*
X95213Y302623D01*
X94327Y302827D01*
X93781Y302964D01*
X93099Y303237D01*
X92349Y303441D01*
D02*
G37*
G36*
X417411Y216140D02*
X417001Y216003D01*
X415910Y215867D01*
X415637Y215594D01*
X415365Y215458D01*
X415092Y215185D01*
X414819Y215048D01*
X414546Y214776D01*
X414273Y214639D01*
X413932Y214298D01*
X412841Y211979D01*
X412977Y211297D01*
X413728Y210956D01*
X414683Y210820D01*
X421776Y210956D01*
X422253Y211297D01*
X422390Y211843D01*
X422185Y212866D01*
X421776Y213957D01*
X421094Y214776D01*
X420821Y215048D01*
X420548Y215185D01*
X420003Y215594D01*
X419934Y215662D01*
X419184Y216003D01*
X417411Y216140D01*
D02*
G37*
G36*
X315513D02*
X314559Y216003D01*
X313876Y215867D01*
X312922Y215185D01*
X311762Y214298D01*
X310671Y211979D01*
X310807Y211434D01*
X311148Y211092D01*
X311694Y210956D01*
X312649Y210820D01*
X319606Y210956D01*
X319674Y211024D01*
X320083Y211297D01*
X320219Y211843D01*
X320083Y212798D01*
X319947Y213207D01*
X319606Y214093D01*
X319265Y214435D01*
X319196Y214639D01*
X318924Y214776D01*
X318651Y215048D01*
X318378Y215185D01*
X318105Y215458D01*
X317832Y215594D01*
X316877Y216003D01*
X315513Y216140D01*
D02*
G37*
G36*
X296962D02*
X296553Y216003D01*
X295461Y215867D01*
X294711Y215253D01*
X293893Y214707D01*
X293347Y214162D01*
X293074Y213480D01*
X292392Y211979D01*
X292528Y211297D01*
X292733Y211092D01*
X293279Y210956D01*
X294234Y210820D01*
X301327Y210956D01*
X301804Y211434D01*
X301941Y211979D01*
X301736Y212729D01*
X301190Y214230D01*
X300986Y214435D01*
X300918Y214503D01*
X300508Y214912D01*
X300236Y215048D01*
X299963Y215321D01*
X299690Y215458D01*
X299417Y215730D01*
X298735Y216003D01*
X296962Y216140D01*
D02*
G37*
G36*
X194996Y216071D02*
X194314Y215935D01*
X193223Y215253D01*
X192404Y214571D01*
X191791Y213821D01*
X191313Y213343D01*
X191109Y212457D01*
X191040Y211706D01*
X191177Y211297D01*
X191245Y211229D01*
X191518Y210956D01*
X192064Y210820D01*
X200112Y210956D01*
X200453Y211297D01*
X200589Y212252D01*
X200453Y212661D01*
X199907Y213616D01*
X199634Y213889D01*
X199498Y214162D01*
X198884Y214912D01*
X198475Y215321D01*
X198202Y215458D01*
X196974Y216003D01*
X194996Y216071D01*
D02*
G37*
G36*
X116493Y221732D02*
X116357D01*
X110627Y221596D01*
X110286Y221255D01*
X110014Y220300D01*
X110150Y214980D01*
X110491Y214639D01*
X111582Y214366D01*
X118130Y214503D01*
X118539Y214639D01*
X119221Y215048D01*
X120040Y215867D01*
X120312Y216003D01*
X120653Y216617D01*
X120790Y217163D01*
X120653Y219482D01*
X119972Y220436D01*
X119085Y221323D01*
X117175Y221596D01*
X116493Y221732D01*
D02*
G37*
G36*
X116766Y212047D02*
X110764Y211911D01*
X110150Y211434D01*
X110014Y210069D01*
X110150Y204340D01*
X110764Y203726D01*
X111651Y203522D01*
X116220Y203454D01*
X116629Y203590D01*
X118471Y203795D01*
X119153Y203931D01*
X119699Y204067D01*
X120176Y204272D01*
X120653Y204750D01*
X120790Y205022D01*
X121199Y205568D01*
X121267Y205636D01*
X121745Y206114D01*
X121881Y207068D01*
X121745Y209115D01*
X120449Y210820D01*
X118130Y211911D01*
X116766Y212047D01*
D02*
G37*
G36*
X463244Y222278D02*
X461607Y222142D01*
X460516Y221460D01*
X460243Y221323D01*
X459629Y220709D01*
X459220Y219754D01*
X459152Y219686D01*
X458947Y219482D01*
X458811Y219209D01*
X458538Y218527D01*
X458401Y217981D01*
X458265Y217026D01*
X458129Y214025D01*
X458265Y207205D01*
X458401Y206796D01*
X458538Y206250D01*
X459220Y205295D01*
X459902Y204067D01*
X460720Y203522D01*
X461062Y203181D01*
X461744Y202908D01*
X462289Y202772D01*
X464199Y202908D01*
X465427Y203863D01*
X465699Y204136D01*
X465972Y204272D01*
X466177Y204477D01*
X467268Y206796D01*
X467541Y208433D01*
X467677Y210206D01*
X467541Y217299D01*
X467268Y217981D01*
X466722Y219209D01*
X466381Y220096D01*
X465904Y220846D01*
X465563Y221187D01*
X465290Y221323D01*
X465017Y221596D01*
X463790Y222142D01*
X463244Y222278D01*
D02*
G37*
G36*
X481523D02*
X479886Y222142D01*
X479067Y221596D01*
X478385Y221187D01*
X478044Y220846D01*
X477226Y219345D01*
X476817Y218390D01*
X476680Y217435D01*
X476544Y216890D01*
X476408Y211843D01*
X476544Y207750D01*
X476680Y207341D01*
X476817Y206386D01*
X477772Y204886D01*
X478181Y204204D01*
X478522Y203863D01*
X478795Y203726D01*
X479204Y203317D01*
X479477Y203181D01*
X480432Y202772D01*
X482478Y202908D01*
X483433Y203590D01*
X483705Y203863D01*
X483978Y203999D01*
X484728Y204750D01*
X484933Y205500D01*
X485342Y206591D01*
X485547Y206796D01*
X485751Y207546D01*
X485888Y208364D01*
X486024Y211365D01*
X486092Y213480D01*
X485956Y213889D01*
X485820Y217435D01*
X485547Y218118D01*
X485001Y219345D01*
X484660Y220232D01*
X484319Y220709D01*
X483705Y221323D01*
X483433Y221460D01*
X482682Y221937D01*
X482614Y222005D01*
X481523Y222278D01*
D02*
G37*
G36*
X180605Y164304D02*
X178695Y164168D01*
X177741Y163759D01*
X177059Y163349D01*
X176717Y163008D01*
X176581Y162736D01*
X175967Y161985D01*
X175626Y161644D01*
X175353Y160962D01*
X175490Y159735D01*
X175694Y159394D01*
X176376Y159121D01*
X178559Y159257D01*
X182788D01*
X183333Y159121D01*
X184356Y159325D01*
X184766Y159735D01*
X184834Y160758D01*
X184697Y161303D01*
X184356Y161644D01*
X184220Y161917D01*
X183947Y162190D01*
X183811Y162463D01*
X183129Y163418D01*
X181696Y164032D01*
X180605Y164304D01*
D02*
G37*
G36*
X264224Y167305D02*
X263542Y167169D01*
X261973Y165600D01*
X261837Y165327D01*
X261154Y164100D01*
X260745Y163690D01*
X260063Y162463D01*
X259381Y161781D01*
X258699Y160553D01*
X258017Y159871D01*
X256994Y157757D01*
X257267Y157347D01*
X257812Y157211D01*
X263678Y157347D01*
X264156Y157825D01*
X264292Y158780D01*
Y161917D01*
Y162054D01*
X264360Y167033D01*
X264224Y167305D01*
D02*
G37*
G36*
X156461Y157620D02*
X155779Y157484D01*
X155097Y157211D01*
X153733Y157075D01*
X152778Y156938D01*
X151618Y156734D01*
X151073Y156597D01*
X149981Y156188D01*
X148890Y155506D01*
X148754Y155233D01*
X148344Y154824D01*
X148072Y153733D01*
X148208Y153187D01*
X148344Y152914D01*
X149299Y151686D01*
X150050Y151346D01*
X150732Y151073D01*
X151686Y150936D01*
X152641D01*
X153937Y151414D01*
X154619Y151686D01*
X155711Y152369D01*
X156120Y152778D01*
X156256Y153051D01*
X156870Y153801D01*
X157211Y154551D01*
X157347Y156324D01*
X157143Y157211D01*
X157006Y157484D01*
X156461Y157620D01*
D02*
G37*
G36*
X284685Y110286D02*
X284276Y110150D01*
X283185Y110014D01*
X282230Y109468D01*
X281889Y109263D01*
X281752Y108991D01*
X281479Y108718D01*
X281343Y108445D01*
X280661Y107763D01*
X280525Y107490D01*
X280252Y106808D01*
X280115Y105444D01*
X280252Y103125D01*
X280388Y102852D01*
X280456Y102784D01*
X280934Y102034D01*
X281343Y101352D01*
X281479Y101079D01*
X281820Y100601D01*
X282093Y100465D01*
X283594Y99510D01*
X284139Y99374D01*
X286595Y99510D01*
X286868Y99783D01*
X287140Y99919D01*
X287413Y100192D01*
X287686Y100329D01*
X288027Y100533D01*
X288163Y100806D01*
X288846Y101761D01*
X288982Y102034D01*
X289391Y102443D01*
X289527Y103398D01*
X289664Y106126D01*
X289527Y106535D01*
X289323Y107285D01*
X288709Y107899D01*
X288573Y108172D01*
X287686Y109468D01*
X286868Y110014D01*
X284685Y110286D01*
D02*
G37*
G36*
X127406Y112605D02*
X124950Y112469D01*
X123996Y111923D01*
X123041Y111241D01*
X122495Y110423D01*
X121881Y109809D01*
X121608Y108172D01*
X122086Y107558D01*
X123177Y107285D01*
X124132Y107422D01*
X130202Y107354D01*
X130680Y107558D01*
X131021Y107899D01*
Y108036D01*
X131157Y108445D01*
X131021Y109400D01*
X130339Y110355D01*
X129384Y111582D01*
X129179Y111787D01*
X128906Y111923D01*
X127406Y112605D01*
D02*
G37*
G36*
X350434Y118880D02*
X349547Y118812D01*
X349479Y118744D01*
X348933Y118607D01*
X347433Y117789D01*
X346956Y117311D01*
X346819Y117039D01*
X346342Y116425D01*
X346069Y116288D01*
X345728Y115538D01*
X345592Y114583D01*
X345455Y112810D01*
X345592Y111037D01*
X346137Y110082D01*
X346819Y109400D01*
X346956Y109127D01*
X347228Y108854D01*
X347297Y108650D01*
X347979Y108377D01*
X348729Y108172D01*
X349411Y107899D01*
X350980Y107831D01*
X352207Y108377D01*
X353435Y109059D01*
X354049Y110082D01*
X354185Y110355D01*
X354458Y110627D01*
X354731Y111309D01*
X354867Y111855D01*
X355004Y113219D01*
X354867Y115129D01*
X354322Y116084D01*
X353776Y116902D01*
X353640Y117175D01*
X353299Y117653D01*
X353026Y117789D01*
X350980Y118744D01*
X350434Y118880D01*
D02*
G37*
G36*
X249628Y115470D02*
X249082Y115334D01*
X248332Y114720D01*
X247786Y114174D01*
X247650Y113901D01*
X247104Y112946D01*
X246491Y112196D01*
X245536Y110696D01*
X245195Y110355D01*
X245058Y110082D01*
X244513Y109127D01*
X243899Y108377D01*
X243694Y108172D01*
X243558Y107899D01*
X243149Y107490D01*
X243012Y107217D01*
X242603Y106262D01*
X242944Y105785D01*
X243490Y105649D01*
X245331Y105580D01*
X246081Y105649D01*
X246218D01*
X249219Y105785D01*
X249833Y106262D01*
X249969Y106808D01*
X249833Y108581D01*
X249969Y108991D01*
X249833Y111173D01*
X249969Y111582D01*
X249833Y113492D01*
X249969Y113901D01*
X249833Y115265D01*
X249628Y115470D01*
D02*
G37*
G36*
X52927Y118335D02*
X49448Y118266D01*
X47743Y118335D01*
X47334Y118198D01*
X46652Y118062D01*
X46174Y117721D01*
X45901Y117039D01*
X46038Y114993D01*
X45901Y114583D01*
X46038Y112810D01*
X45901Y110764D01*
X46379Y109877D01*
X47334Y109741D01*
X49516Y109604D01*
X51699Y109741D01*
X52654Y109604D01*
X53609Y109741D01*
X55245Y109877D01*
X56200Y110423D01*
X56541Y110900D01*
X57019Y111241D01*
X57360Y111446D01*
X57496Y111719D01*
X57769Y112401D01*
X57906Y114174D01*
X57769Y115947D01*
X57155Y116698D01*
X56064Y117789D01*
X55518Y117925D01*
X55382D01*
X55314Y117993D01*
X54768Y118130D01*
X52927Y118335D01*
D02*
G37*
G36*
X367894Y118880D02*
X365848Y117789D01*
X365371Y117311D01*
X364416Y115538D01*
X364280Y115265D01*
Y115129D01*
X364143Y114720D01*
X364007Y114174D01*
X363870Y111173D01*
X363734Y110764D01*
X363870Y105035D01*
X364007Y104626D01*
X364143Y102989D01*
X365098Y101488D01*
X365507Y100806D01*
X365985Y100329D01*
X366257Y100192D01*
X366667Y99783D01*
X366940Y99647D01*
X367621Y99374D01*
X369940Y99510D01*
X370691Y100124D01*
X371168Y100465D01*
X371918Y101079D01*
X373010Y103398D01*
X373146Y104353D01*
X373283Y104898D01*
X373419Y107899D01*
X373283Y113629D01*
X373146Y114038D01*
X372805Y114924D01*
X372464Y115675D01*
X371987Y116971D01*
X371032Y117925D01*
X370759Y118062D01*
X369668Y118744D01*
X367894Y118880D01*
D02*
G37*
G36*
X331337D02*
X329018Y117653D01*
X328813Y117448D01*
X328677Y117175D01*
X327858Y115402D01*
X327995Y114447D01*
X328404Y113492D01*
X328950Y112537D01*
X329563Y111923D01*
X329836Y111787D01*
X330109Y111514D01*
X330791Y111241D01*
X331746Y111105D01*
X333246Y111241D01*
X334952Y112537D01*
X335361Y112946D01*
X335634Y113901D01*
X335770Y114856D01*
X335565Y116152D01*
X335429Y116698D01*
X334952Y117448D01*
X334611Y117789D01*
X333656Y118335D01*
X333110Y118607D01*
X333042Y118676D01*
X332496Y118812D01*
X331337Y118880D01*
D02*
G37*
G36*
Y109059D02*
X330928Y108922D01*
X329836Y108786D01*
X328881Y108240D01*
X328540Y107763D01*
X327927Y107149D01*
X327722Y107081D01*
X327586Y106808D01*
X327313Y106126D01*
X327040Y103807D01*
X327244Y102920D01*
X327381Y102102D01*
X328063Y101011D01*
X328336Y100874D01*
X328745Y100465D01*
X329018Y100329D01*
X329973Y99647D01*
X330928Y99374D01*
X333792Y99510D01*
X333860Y99578D01*
X334952Y100260D01*
X335156Y100465D01*
X335429Y100601D01*
X335770Y101079D01*
X336043Y101352D01*
X336179Y101624D01*
X336589Y102034D01*
X336725Y102989D01*
X336793Y104830D01*
X336657Y105921D01*
X336452Y106399D01*
X335838Y107149D01*
X335088Y107899D01*
X334952Y108172D01*
X334747Y108377D01*
X333792Y108786D01*
X332496Y108991D01*
X331337Y109059D01*
D02*
G37*
G36*
X90166Y112605D02*
X89075D01*
X88052Y112401D01*
X87233Y111992D01*
X86756Y111651D01*
X85460Y110355D01*
X85324Y110082D01*
X85051Y109400D01*
X84914Y108854D01*
X84710Y107968D01*
X84573Y107422D01*
X84505Y105717D01*
X84642Y105308D01*
X84778Y103534D01*
X84914Y103125D01*
X85187Y102034D01*
X85801Y101284D01*
X86142Y100942D01*
X86210Y100738D01*
X86483Y100601D01*
X86892Y100192D01*
X87165Y100056D01*
X87438Y99783D01*
X88120Y99510D01*
X88666Y99374D01*
X91257Y99510D01*
X92621Y100465D01*
X92894Y100601D01*
X93372Y101079D01*
X93781Y101761D01*
X94054Y102034D01*
X94190Y102307D01*
X94463Y102989D01*
X94600Y103944D01*
X94736Y106944D01*
X94600Y107490D01*
X94463Y109127D01*
X94054Y109809D01*
X93781Y110082D01*
X93645Y110355D01*
X92758Y111514D01*
X91803Y112060D01*
X91121Y112469D01*
X90166Y112605D01*
D02*
G37*
G36*
X370350Y58451D02*
X368304Y57360D01*
X367690Y56746D01*
X367553Y56473D01*
X367008Y55928D01*
X366871Y55655D01*
X366599Y54973D01*
X366394Y53677D01*
X366257Y52995D01*
X366189Y49926D01*
X366326Y49516D01*
X366462Y48971D01*
X366803Y47538D01*
X367144Y47061D01*
X367962Y46243D01*
X368099Y45970D01*
X368304Y45765D01*
X368576Y45629D01*
X369531Y45219D01*
X370486Y44947D01*
X371577Y45083D01*
X372259Y45356D01*
X373146Y45697D01*
X374647Y47197D01*
X375260Y48903D01*
X375601Y49789D01*
X375738Y51562D01*
Y51699D01*
X375601Y53609D01*
X375056Y54973D01*
X374919Y55518D01*
X374237Y56746D01*
X373692Y57155D01*
X373555Y57428D01*
X372532Y58042D01*
X371782Y58246D01*
X371236Y58383D01*
X370350Y58451D01*
D02*
G37*
G36*
X220709Y58315D02*
X219277Y57974D01*
X218254Y57496D01*
X217367Y56610D01*
X216276Y54291D01*
X216003Y52381D01*
X216071Y50812D01*
X216140Y50744D01*
X216276Y48971D01*
X216958Y47880D01*
X217094Y47334D01*
X217777Y46379D01*
X218390Y45765D01*
X219345Y45356D01*
X220300Y45083D01*
X222210Y45219D01*
X223710Y46038D01*
X224051Y46379D01*
X224188Y46652D01*
X224802Y47402D01*
X225279Y48289D01*
X225415Y49243D01*
X225552Y50608D01*
X225415Y54427D01*
X225279Y54836D01*
X224733Y55791D01*
X224324Y56200D01*
X224188Y56473D01*
X223574Y57224D01*
X223301Y57496D01*
X222346Y57906D01*
X221664Y58178D01*
X220709Y58315D01*
D02*
G37*
G36*
X282230Y58178D02*
X281548Y57906D01*
X280661Y57565D01*
X278888Y55791D01*
X278751Y55245D01*
X277796Y53745D01*
X277660Y53199D01*
X277387Y50880D01*
X277251Y50335D01*
X277319Y49721D01*
X277387Y49653D01*
X277523Y47880D01*
X278069Y46925D01*
X279229Y45765D01*
X280184Y45492D01*
X282230Y45629D01*
X283935Y46788D01*
X284344Y47197D01*
X284480Y47470D01*
X284958Y47948D01*
X285162Y48016D01*
X285299Y48289D01*
X285844Y49516D01*
X286527Y51017D01*
X286663Y51562D01*
X286799Y52517D01*
X286936Y53745D01*
X286799Y54154D01*
X286663Y55382D01*
X286049Y56132D01*
X285367Y57224D01*
X284958Y57633D01*
X284276Y57906D01*
X283253Y58110D01*
X282230Y58178D01*
D02*
G37*
G36*
X392039Y51631D02*
X391084Y51221D01*
X390538Y51085D01*
X388697Y50880D01*
X387605Y50744D01*
X387060Y50608D01*
X385696Y50062D01*
X385218Y49857D01*
X384468Y49243D01*
X383922Y48425D01*
X383786Y47470D01*
X384468Y46243D01*
X385218Y45492D01*
X385900Y45219D01*
X386855Y44947D01*
X387401Y44810D01*
X388765Y44947D01*
X389720Y45356D01*
X391493Y46311D01*
X391698Y46515D01*
X391834Y46788D01*
X392448Y47538D01*
X392653Y47743D01*
X392925Y48698D01*
Y48834D01*
X393062Y49789D01*
X392925Y51017D01*
X392584Y51494D01*
X392039Y51631D01*
D02*
G37*
G36*
X102443Y51358D02*
X100533Y51221D01*
X100124Y51085D01*
X98760Y50949D01*
X98214Y50812D01*
X97259Y50676D01*
X96509Y50471D01*
X95827Y50198D01*
X94668Y49585D01*
X94327Y49243D01*
X94054Y48289D01*
X93917Y47880D01*
Y47743D01*
X94054Y47197D01*
X94258Y46447D01*
X94463Y45970D01*
X94804Y45629D01*
X95691Y45288D01*
X96373Y45015D01*
X97123Y44810D01*
X98760Y44947D01*
X99715Y45356D01*
X100942Y46038D01*
X101624Y46720D01*
X101897Y46856D01*
X102102Y47061D01*
X102511Y48016D01*
X102716Y48903D01*
X102920Y49653D01*
X102784Y51017D01*
X102443Y51358D01*
D02*
G37*
G36*
X464881Y58315D02*
X463790Y58178D01*
X463108Y57906D01*
X461607Y57087D01*
X460993Y56473D01*
X460857Y56200D01*
X459766Y53882D01*
X459629Y52927D01*
X459766Y49107D01*
X460448Y48016D01*
X460720Y47334D01*
X460857Y47061D01*
X461471Y46311D01*
X461880Y45901D01*
X462016D01*
X462085Y45833D01*
X462289Y45629D01*
X463039Y45424D01*
X464199Y45083D01*
X464744Y44947D01*
X465836Y45083D01*
X466518Y45356D01*
X467405Y45697D01*
X468564Y46856D01*
X468769Y46925D01*
X469041Y47607D01*
X469860Y49380D01*
X469996Y49926D01*
X470133Y52108D01*
X469996Y53472D01*
X469792Y54222D01*
X469178Y55245D01*
X468973Y55996D01*
X468769Y56200D01*
X468632Y56473D01*
X468428Y56678D01*
X468155Y56814D01*
X467950Y57019D01*
X467814Y57292D01*
X467609Y57496D01*
X466927Y57769D01*
X465836Y58042D01*
X464881Y58315D01*
D02*
G37*
G36*
X325198D02*
X324107Y58042D01*
X322607Y57496D01*
X321038Y55928D01*
X320765Y55245D01*
X320560Y53950D01*
X320424Y53404D01*
X320288Y52722D01*
X320219Y50744D01*
X320356Y50335D01*
X320560Y49039D01*
X320697Y48357D01*
X321038Y47470D01*
X321856Y46652D01*
X321993Y46379D01*
X322266Y46106D01*
X322334Y45901D01*
X322607Y45765D01*
X323289Y45492D01*
X325062Y44947D01*
X326153Y45083D01*
X326290D01*
X326972Y45356D01*
X328268Y45833D01*
X328813Y46379D01*
X328950Y46652D01*
X329905Y47880D01*
X330177Y48562D01*
X330314Y50335D01*
X330450Y50880D01*
X330314Y53882D01*
X330177Y54291D01*
X330041Y55382D01*
X329632Y55791D01*
X329495Y56064D01*
X328677Y56882D01*
X328540Y57155D01*
X327517Y57769D01*
X326153Y58178D01*
X325198Y58315D01*
D02*
G37*
G36*
X257130D02*
X256039Y58178D01*
X255084Y57769D01*
X254811Y57633D01*
X254061Y57019D01*
X253106Y55791D01*
X252834Y55518D01*
X252561Y54427D01*
X252765Y53677D01*
X253038Y53268D01*
X253584Y53131D01*
X258494D01*
X261632Y53268D01*
X261973Y53609D01*
X262109Y54563D01*
X261905Y55314D01*
X261700Y55518D01*
X261564Y55791D01*
X261154Y56200D01*
X260609Y57155D01*
X260404Y57360D01*
X260131Y57496D01*
X259177Y57906D01*
X258085Y58178D01*
X257130Y58315D01*
D02*
G37*
G36*
X239125D02*
X238033Y58178D01*
X237351Y57906D01*
X236601Y57701D01*
X235851Y57224D01*
X235646Y57019D01*
X235510Y56746D01*
X235305Y56541D01*
X235237Y56473D01*
X234555Y55791D01*
X234282Y54836D01*
X234146Y53882D01*
X233873Y52790D01*
X233736Y51835D01*
X233873Y50198D01*
X234009Y49789D01*
X234146Y48834D01*
X234282Y48289D01*
X234623Y47402D01*
X235646Y46379D01*
X235783Y46106D01*
X236260Y45629D01*
X237010Y45424D01*
X238579Y44947D01*
X239943Y45083D01*
X240898Y45492D01*
X241784Y45833D01*
X242330Y46243D01*
X242876Y47197D01*
X243421Y47743D01*
X243694Y48425D01*
X243831Y49380D01*
X243967Y51153D01*
X244103Y51699D01*
X243967Y52245D01*
X243762Y54495D01*
X243626Y55177D01*
X243149Y55928D01*
X242467Y56610D01*
X242330Y56882D01*
X241716Y57496D01*
X241034Y57769D01*
X239670Y58178D01*
X239125Y58315D01*
D02*
G37*
G36*
X157143D02*
X156324Y58178D01*
X156188D01*
X154892Y57701D01*
X153801Y57019D01*
X153255Y56473D01*
X153119Y56200D01*
X152028Y53882D01*
X151891Y52927D01*
X152028Y49107D01*
X152710Y48016D01*
X152982Y47334D01*
X153119Y47061D01*
X153733Y46311D01*
X154142Y45901D01*
X154415Y45765D01*
X155370Y45356D01*
X156256Y45015D01*
X156938Y44879D01*
X157143Y44810D01*
X157552Y44947D01*
X158439Y45288D01*
X159530Y45697D01*
X160348Y46379D01*
X161167Y47197D01*
X161508Y48084D01*
X162258Y49789D01*
X162395Y52381D01*
X162258Y52927D01*
X162122Y54154D01*
X161576Y54973D01*
X161167Y56064D01*
X160690Y56678D01*
X160417Y56814D01*
X160212Y57019D01*
X160076Y57292D01*
X159871Y57496D01*
X159189Y57769D01*
X158098Y58042D01*
X157143Y58315D01*
D02*
G37*
%LPD*%
M02*
