G04*
G04 #@! TF.GenerationSoftware,Altium Limited,Altium Designer,24.7.2 (38)*
G04*
G04 Layer_Physical_Order=2*
G04 Layer_Color=16711680*
%FSLAX44Y44*%
%MOMM*%
G71*
G04*
G04 #@! TF.SameCoordinates,6DF0CBF5-DEE5-4F27-B30F-A21075B38201*
G04*
G04*
G04 #@! TF.FilePolarity,Positive*
G04*
G01*
G75*
%ADD10R,0.7000X1.3000*%
%ADD11C,10.0000*%
%ADD12R,1.5200X0.4100*%
%ADD13O,1.5200X0.4100*%
%ADD14C,1.5000*%
%ADD15R,1.5000X1.5000*%
%ADD16R,1.3000X0.7000*%
%ADD17R,1.5000X1.5000*%
%ADD18R,2.0000X0.4000*%
%ADD19O,2.0000X0.4000*%
%ADD20R,3.5000X4.2000*%
%ADD21C,0.5000*%
%ADD22C,0.3000*%
G36*
X815995Y537761D02*
X818483D01*
X823417Y537111D01*
X828223Y535824D01*
X832821Y533919D01*
X837130Y531431D01*
X841078Y528402D01*
X844597Y524883D01*
X847626Y520935D01*
X850114Y516626D01*
X852019Y512028D01*
X853307Y507222D01*
X853956Y502286D01*
X853961Y499796D01*
X853961Y40000D01*
X853961Y37512D01*
X853311Y32578D01*
X852023Y27772D01*
X850119Y23174D01*
X847631Y18865D01*
X844602Y14917D01*
X841083Y11398D01*
X837135Y8369D01*
X832826Y5881D01*
X828228Y3977D01*
X823422Y2689D01*
X818488Y2039D01*
X816000D01*
X40000Y2039D01*
X37512D01*
X32578Y2689D01*
X27772Y3977D01*
X23174Y5881D01*
X18865Y8369D01*
X14917Y11398D01*
X11398Y14917D01*
X8369Y18865D01*
X5881Y23174D01*
X3977Y27771D01*
X2689Y32578D01*
X2039Y37512D01*
X2039Y40000D01*
X2039Y499800D01*
Y502288D01*
X2688Y507222D01*
X3976Y512028D01*
X5881Y516626D01*
X8369Y520935D01*
X11398Y524883D01*
X14917Y528402D01*
X18865Y531431D01*
X23174Y533919D01*
X27771Y535823D01*
X32578Y537111D01*
X37512Y537761D01*
X40000Y537761D01*
X815995Y537761D01*
D02*
G37*
%LPC*%
G36*
X750999Y501001D02*
X739999D01*
Y496579D01*
X737501D01*
X737501Y496579D01*
X735940Y496269D01*
X734617Y495385D01*
X734617Y495385D01*
X728311Y489078D01*
X725540D01*
Y490730D01*
X713000D01*
X700460D01*
Y487460D01*
X701000D01*
Y482540D01*
X700460D01*
Y479270D01*
X713000D01*
X725540D01*
Y480922D01*
X730000D01*
X730000Y480922D01*
X731561Y481232D01*
X732884Y482116D01*
X737999Y487231D01*
X739999Y486403D01*
Y484001D01*
X750999D01*
Y501001D01*
D02*
G37*
G36*
X725540Y496540D02*
X714270D01*
Y493270D01*
X725540D01*
Y496540D01*
D02*
G37*
G36*
X711730D02*
X700460D01*
Y493270D01*
X711730D01*
Y496540D01*
D02*
G37*
G36*
X128230Y497040D02*
X123460D01*
Y489270D01*
X128230D01*
Y497040D01*
D02*
G37*
G36*
X271322Y490040D02*
X271270D01*
Y481270D01*
X280040D01*
Y481322D01*
X279356Y483875D01*
X278034Y486165D01*
X276165Y488034D01*
X273875Y489356D01*
X271322Y490040D01*
D02*
G37*
G36*
X268730D02*
X268678D01*
X266125Y489356D01*
X263835Y488034D01*
X261966Y486165D01*
X260644Y483875D01*
X259960Y481322D01*
Y481270D01*
X268730D01*
Y490040D01*
D02*
G37*
G36*
X219041Y476541D02*
X211271D01*
Y471771D01*
X219041D01*
Y476541D01*
D02*
G37*
G36*
X208731D02*
X200961D01*
Y471771D01*
X208731D01*
Y476541D01*
D02*
G37*
G36*
X219041Y469231D02*
X211271D01*
Y464461D01*
X219041D01*
Y469231D01*
D02*
G37*
G36*
X208731D02*
X200961D01*
Y464461D01*
X208731D01*
Y469231D01*
D02*
G37*
G36*
X770540Y466230D02*
X765770D01*
Y458460D01*
X770540D01*
Y466230D01*
D02*
G37*
G36*
X763230D02*
X758460D01*
Y458460D01*
X763230D01*
Y466230D01*
D02*
G37*
G36*
X219040Y460540D02*
X211270D01*
Y455770D01*
X219040D01*
Y460540D01*
D02*
G37*
G36*
X208730D02*
X200960D01*
Y455770D01*
X208730D01*
Y460540D01*
D02*
G37*
G36*
X807075Y531158D02*
X807075Y531158D01*
X40291D01*
X38731Y530848D01*
X37408Y529964D01*
X37407Y529964D01*
X15096Y507653D01*
X14212Y506329D01*
X13902Y504769D01*
X13902Y504768D01*
Y382020D01*
X13902Y382020D01*
X14212Y380459D01*
X15096Y379136D01*
X27116Y367116D01*
X28439Y366232D01*
X30000Y365922D01*
X30000Y365922D01*
X62500D01*
X62500Y365922D01*
X64061Y366232D01*
X65384Y367116D01*
X80384Y382116D01*
X80384Y382116D01*
X81268Y383439D01*
X81578Y385000D01*
X81578Y385000D01*
Y398311D01*
X89939Y406672D01*
X106050D01*
X106193Y406700D01*
X114902D01*
Y402112D01*
X96395Y383605D01*
X95290Y381951D01*
X94902Y380000D01*
Y151778D01*
X89833Y151111D01*
X83249Y149347D01*
X76951Y146738D01*
X71048Y143330D01*
X65640Y139180D01*
X60820Y134360D01*
X56670Y128952D01*
X53262Y123049D01*
X50653Y116751D01*
X48889Y110167D01*
X47999Y103409D01*
Y96593D01*
X48889Y89834D01*
X50653Y83250D01*
X53262Y76952D01*
X56670Y71049D01*
X60820Y65641D01*
X65640Y60821D01*
X71048Y56672D01*
X76951Y53263D01*
X83249Y50655D01*
X89833Y48891D01*
X96591Y48001D01*
X103407D01*
X110166Y48891D01*
X116750Y50655D01*
X123048Y53263D01*
X128951Y56672D01*
X134359Y60821D01*
X139179Y65641D01*
X143328Y71049D01*
X146737Y76952D01*
X149345Y83250D01*
X151110Y89834D01*
X151999Y96593D01*
Y103409D01*
X151110Y110167D01*
X149345Y116751D01*
X146737Y123049D01*
X143328Y128952D01*
X139179Y134360D01*
X134359Y139180D01*
X128951Y143330D01*
X123048Y146738D01*
X116750Y149347D01*
X110166Y151111D01*
X105098Y151778D01*
Y377888D01*
X120554Y393345D01*
X122402Y392579D01*
Y217500D01*
X122790Y215549D01*
X123895Y213895D01*
X207612Y130178D01*
X206671Y128952D01*
X203263Y123048D01*
X200654Y116751D01*
X198890Y110167D01*
X198000Y103408D01*
Y96592D01*
X198890Y89833D01*
X200654Y83249D01*
X203263Y76952D01*
X206671Y71048D01*
X210821Y65641D01*
X215641Y60820D01*
X221048Y56671D01*
X226952Y53263D01*
X233249Y50654D01*
X239834Y48890D01*
X246592Y48000D01*
X253408D01*
X260166Y48890D01*
X266751Y50654D01*
X273048Y53263D01*
X278952Y56671D01*
X284360Y60820D01*
X289180Y65641D01*
X293329Y71048D01*
X296737Y76952D01*
X299346Y83249D01*
X301110Y89833D01*
X302000Y96592D01*
Y103408D01*
X301110Y110167D01*
X299346Y116751D01*
X296737Y123048D01*
X293329Y128952D01*
X289180Y134360D01*
X284360Y139180D01*
X278952Y143329D01*
X273048Y146737D01*
X266751Y149346D01*
X260166Y151110D01*
X253408Y152000D01*
X246592D01*
X239834Y151110D01*
X233249Y149346D01*
X226952Y146737D01*
X221048Y143329D01*
X215641Y139180D01*
X214335Y137874D01*
X132598Y219612D01*
Y422500D01*
X132210Y424451D01*
X131105Y426105D01*
X123355Y433855D01*
X121701Y434960D01*
X119750Y435348D01*
X116190D01*
Y435480D01*
X106050D01*
X95910D01*
Y432160D01*
X96450D01*
Y427828D01*
X93750D01*
X92189Y427518D01*
X90866Y426634D01*
X90866Y426634D01*
X88432Y424200D01*
X86540Y425136D01*
X86540Y426180D01*
Y429230D01*
X78770D01*
Y424460D01*
X84676D01*
X85864Y424460D01*
X86800Y422568D01*
X70346Y406114D01*
X69462Y404791D01*
X69152Y403230D01*
X69152Y403230D01*
Y388458D01*
X59772Y379078D01*
X32728D01*
X26328Y385478D01*
Y501311D01*
X43749Y518732D01*
X138562D01*
X139327Y516884D01*
X133416Y510973D01*
X132532Y509649D01*
X132222Y508089D01*
X132222Y508088D01*
Y497040D01*
X130770D01*
Y488000D01*
X129500D01*
Y486730D01*
X123460D01*
Y478960D01*
X128196D01*
X128961Y477112D01*
X117650Y465801D01*
X115650Y466629D01*
Y473300D01*
X106193D01*
X106050Y473328D01*
X54501D01*
Y482599D01*
X35501D01*
Y463599D01*
X52303D01*
X53131Y461599D01*
X48731Y457199D01*
X35501D01*
Y438199D01*
X54501D01*
X55902Y436780D01*
Y433982D01*
X55041Y432339D01*
X46271D01*
Y422299D01*
Y412259D01*
X50536D01*
X51302Y410411D01*
X47070Y406180D01*
X46252Y406399D01*
X43750D01*
X41334Y405752D01*
X39168Y404501D01*
X37399Y402732D01*
X36148Y400566D01*
X35501Y398150D01*
Y395648D01*
X36148Y393232D01*
X37399Y391066D01*
X39168Y389297D01*
X41334Y388047D01*
X43750Y387399D01*
X46252D01*
X48668Y388047D01*
X50834Y389297D01*
X52603Y391066D01*
X53853Y393232D01*
X54501Y395648D01*
Y398150D01*
X54281Y398971D01*
X64605Y409295D01*
X65710Y410949D01*
X66098Y412900D01*
Y443402D01*
X76500D01*
X78451Y443790D01*
X78765Y444000D01*
X86000D01*
Y444402D01*
X88457D01*
X93214Y439645D01*
X94868Y438540D01*
X95910Y438333D01*
Y438020D01*
X106050D01*
X116190D01*
Y438152D01*
X136709D01*
X139902Y434959D01*
Y412500D01*
X140290Y410549D01*
X141395Y408895D01*
X179402Y370889D01*
X178636Y369041D01*
X174459D01*
Y361271D01*
X180499D01*
Y360001D01*
X181769D01*
Y350961D01*
X184897D01*
Y288000D01*
X170494D01*
Y242000D01*
X209494D01*
Y259902D01*
X225000D01*
X226951Y260290D01*
X228605Y261395D01*
X287112Y319902D01*
X485695D01*
X507402Y298195D01*
Y288540D01*
X491020D01*
Y265000D01*
Y241460D01*
X507402D01*
Y176500D01*
X507790Y174549D01*
X508895Y172895D01*
X649395Y32395D01*
X651049Y31290D01*
X653000Y30902D01*
X707000D01*
X708951Y31290D01*
X710605Y32395D01*
X847335Y169125D01*
X848440Y170779D01*
X848828Y172730D01*
Y227270D01*
X848440Y229221D01*
X847335Y230875D01*
X681533Y396677D01*
Y465902D01*
X701000D01*
Y461540D01*
X700460D01*
Y458270D01*
X713000D01*
X725540D01*
Y461540D01*
X725000D01*
Y465902D01*
X740000D01*
Y459000D01*
X751000D01*
Y466700D01*
X751451Y466790D01*
X753105Y467895D01*
X756612Y471403D01*
X758460Y470637D01*
Y468770D01*
X764500D01*
X770540D01*
Y476540D01*
X764363D01*
X763597Y478388D01*
X767104Y481894D01*
X768209Y483548D01*
X768299Y484001D01*
X769999D01*
Y501001D01*
X758999D01*
Y493766D01*
X758789Y493452D01*
X758401Y491501D01*
Y487611D01*
X747388Y476598D01*
X746500D01*
X744549Y476210D01*
X744381Y476098D01*
X725540D01*
Y476730D01*
X713000D01*
X700460D01*
Y476098D01*
X321750D01*
X319799Y475710D01*
X318145Y474605D01*
X313638Y470098D01*
X276929D01*
X276352Y471509D01*
X276297Y472098D01*
X278034Y473835D01*
X279356Y476125D01*
X280040Y478678D01*
Y478730D01*
X259960D01*
Y478678D01*
X260644Y476125D01*
X261966Y473835D01*
X263703Y472098D01*
X263648Y471509D01*
X263071Y470098D01*
X255000D01*
X253049Y469710D01*
X251395Y468605D01*
X242290Y459500D01*
X230500D01*
Y443096D01*
X228500Y442268D01*
X222884Y447884D01*
X221561Y448768D01*
X220000Y449078D01*
X219040Y450659D01*
Y453230D01*
X210000D01*
X200960D01*
Y449078D01*
X196689D01*
X193134Y452634D01*
X191811Y453518D01*
X190250Y453828D01*
X190250Y453828D01*
X173550D01*
Y466800D01*
X173550Y466800D01*
X173540Y468800D01*
X173629Y469250D01*
X173315Y470830D01*
X172420Y472170D01*
X171080Y473065D01*
X169500Y473379D01*
X168028D01*
Y479011D01*
X174440Y485423D01*
X201501D01*
Y484001D01*
X218501D01*
Y485423D01*
X228810D01*
X231024Y483208D01*
X230500Y481251D01*
Y478749D01*
X231147Y476333D01*
X232398Y474167D01*
X234167Y472398D01*
X236333Y471147D01*
X238749Y470500D01*
X241251D01*
X243667Y471147D01*
X245833Y472398D01*
X247602Y474167D01*
X248853Y476333D01*
X249500Y478749D01*
Y481251D01*
X248853Y483667D01*
X247602Y485833D01*
X245833Y487602D01*
X243667Y488853D01*
X241251Y489500D01*
X238749D01*
X236792Y488976D01*
X233383Y492385D01*
X232060Y493269D01*
X230499Y493579D01*
X230499Y493579D01*
X218501D01*
Y495001D01*
X201501D01*
Y493579D01*
X172751D01*
X171190Y493269D01*
X169867Y492385D01*
X169867Y492385D01*
X161661Y484179D01*
X159662Y485008D01*
Y498894D01*
X166689Y505922D01*
X798311D01*
X805922Y498311D01*
Y456689D01*
X803311Y454078D01*
X725540D01*
Y455730D01*
X713000D01*
X700460D01*
Y452460D01*
X701000D01*
Y446000D01*
Y433289D01*
X699257Y432578D01*
X697697Y432268D01*
X696374Y431384D01*
X696374Y431384D01*
X694616Y429626D01*
X693732Y428303D01*
X693422Y426743D01*
X693422Y426743D01*
Y405000D01*
X693422Y405000D01*
X693732Y403439D01*
X694616Y402116D01*
X696916Y399817D01*
X696916Y399816D01*
X698239Y398932D01*
X699800Y398622D01*
X702803D01*
X702805Y398622D01*
X723195D01*
X723195Y398622D01*
X723197Y398622D01*
X781855D01*
X781855Y398622D01*
X783416Y398932D01*
X784739Y399816D01*
X829964Y445041D01*
X829964Y445042D01*
X830848Y446365D01*
X831158Y447925D01*
X831158Y447925D01*
Y507075D01*
X831158Y507075D01*
X830848Y508635D01*
X829964Y509959D01*
X809959Y529964D01*
X808635Y530848D01*
X808376Y530899D01*
X807075Y531158D01*
D02*
G37*
G36*
X86540Y436540D02*
X78770D01*
Y431770D01*
X86540D01*
Y436540D01*
D02*
G37*
G36*
X76230D02*
X68460D01*
Y431770D01*
X76230D01*
Y436540D01*
D02*
G37*
G36*
Y429230D02*
X68460D01*
Y424460D01*
X76230D01*
Y429230D01*
D02*
G37*
G36*
X43731Y432339D02*
X34961D01*
Y423569D01*
X43731D01*
Y432339D01*
D02*
G37*
G36*
Y421029D02*
X34961D01*
Y412259D01*
X43731D01*
Y421029D01*
D02*
G37*
G36*
X179229Y358731D02*
X174459D01*
Y350961D01*
X179229D01*
Y358731D01*
D02*
G37*
G36*
X488480Y288540D02*
X469710D01*
Y266270D01*
X488480D01*
Y288540D01*
D02*
G37*
G36*
Y263730D02*
X469710D01*
Y241460D01*
X488480D01*
Y263730D01*
D02*
G37*
%LPD*%
G36*
X671337Y394565D02*
X671725Y392614D01*
X672830Y390961D01*
X838632Y225158D01*
Y174842D01*
X704888Y41098D01*
X655112D01*
X517598Y178612D01*
Y300307D01*
X517210Y302258D01*
X516105Y303912D01*
X491412Y328605D01*
X489758Y329710D01*
X487807Y330098D01*
X285000D01*
X283049Y329710D01*
X281395Y328605D01*
X222888Y270098D01*
X209494D01*
Y288000D01*
X195092D01*
Y350961D01*
X198229D01*
Y360001D01*
Y369041D01*
X194787D01*
X194704Y369456D01*
X193599Y371110D01*
X159183Y405527D01*
X159669Y406700D01*
X163807D01*
X163950Y406672D01*
X164093Y406700D01*
X173550D01*
Y409847D01*
X174723Y410333D01*
X219164Y365892D01*
X220818Y364787D01*
X222769Y364399D01*
X470892D01*
X574901Y260389D01*
Y251777D01*
X569833Y251110D01*
X563248Y249345D01*
X556951Y246737D01*
X551048Y243328D01*
X545640Y239179D01*
X540820Y234359D01*
X536670Y228951D01*
X533262Y223048D01*
X530653Y216750D01*
X528889Y210166D01*
X527999Y203407D01*
Y196591D01*
X528889Y189833D01*
X530653Y183249D01*
X533262Y176951D01*
X536670Y171048D01*
X540820Y165640D01*
X545640Y160820D01*
X551048Y156670D01*
X556951Y153262D01*
X563248Y150653D01*
X569833Y148889D01*
X576591Y147999D01*
X583407D01*
X590166Y148889D01*
X596750Y150653D01*
X603048Y153262D01*
X608951Y156670D01*
X614359Y160820D01*
X619179Y165640D01*
X623328Y171048D01*
X626737Y176951D01*
X629345Y183249D01*
X631110Y189833D01*
X631999Y196591D01*
Y203407D01*
X631110Y210166D01*
X629345Y216750D01*
X626737Y223048D01*
X623328Y228951D01*
X619179Y234359D01*
X614359Y239179D01*
X608951Y243328D01*
X603048Y246737D01*
X596750Y249345D01*
X590166Y251110D01*
X585097Y251777D01*
Y262501D01*
X584709Y264452D01*
X583604Y266106D01*
X480214Y369495D01*
X480700Y370669D01*
X487122D01*
X674903Y182887D01*
Y151777D01*
X669834Y151110D01*
X663250Y149345D01*
X656953Y146737D01*
X651049Y143328D01*
X645641Y139179D01*
X640821Y134359D01*
X636672Y128951D01*
X633263Y123048D01*
X630655Y116750D01*
X628891Y110166D01*
X628001Y103407D01*
Y96591D01*
X628891Y89833D01*
X630655Y83249D01*
X633263Y76951D01*
X636672Y71048D01*
X640821Y65640D01*
X645641Y60820D01*
X651049Y56670D01*
X656953Y53262D01*
X663250Y50653D01*
X669834Y48889D01*
X676593Y47999D01*
X683409D01*
X690167Y48889D01*
X696751Y50653D01*
X703049Y53262D01*
X708952Y56670D01*
X714360Y60820D01*
X719180Y65640D01*
X723330Y71048D01*
X726738Y76951D01*
X729347Y83249D01*
X731111Y89833D01*
X732001Y96591D01*
Y103407D01*
X731111Y110166D01*
X729347Y116750D01*
X726738Y123048D01*
X723330Y128951D01*
X719180Y134359D01*
X714360Y139179D01*
X708952Y143328D01*
X703049Y146737D01*
X696751Y149345D01*
X690167Y151110D01*
X685099Y151777D01*
Y184999D01*
X684711Y186950D01*
X683606Y188604D01*
X496444Y375765D01*
X496930Y376939D01*
X510852D01*
X691395Y196396D01*
X693048Y195291D01*
X694999Y194903D01*
X728223D01*
X728891Y189834D01*
X730655Y183250D01*
X733263Y176952D01*
X736672Y171049D01*
X740821Y165641D01*
X745641Y160821D01*
X751049Y156672D01*
X756952Y153263D01*
X763250Y150655D01*
X769834Y148891D01*
X776593Y148001D01*
X783409D01*
X790167Y148891D01*
X796751Y150655D01*
X803049Y153263D01*
X808952Y156672D01*
X814360Y160821D01*
X819180Y165641D01*
X823330Y171049D01*
X826738Y176952D01*
X829347Y183250D01*
X831111Y189834D01*
X832001Y196593D01*
Y203409D01*
X831111Y210167D01*
X829347Y216751D01*
X826738Y223049D01*
X823330Y228953D01*
X819180Y234360D01*
X814360Y239180D01*
X808952Y243330D01*
X803049Y246738D01*
X796751Y249347D01*
X790167Y251111D01*
X783409Y252001D01*
X776593D01*
X769834Y251111D01*
X763250Y249347D01*
X756952Y246738D01*
X751049Y243330D01*
X745641Y239180D01*
X740821Y234360D01*
X736672Y228953D01*
X733263Y223049D01*
X730655Y216751D01*
X728891Y210167D01*
X728223Y205099D01*
X697111D01*
X520174Y382035D01*
X520660Y383209D01*
X589582D01*
X639782Y333008D01*
X636670Y328952D01*
X633262Y323049D01*
X630653Y316751D01*
X628889Y310167D01*
X627999Y303409D01*
Y296593D01*
X628889Y289834D01*
X630653Y283250D01*
X633262Y276952D01*
X636670Y271049D01*
X640820Y265641D01*
X645640Y260821D01*
X651048Y256672D01*
X656951Y253263D01*
X663249Y250655D01*
X669833Y248891D01*
X676591Y248001D01*
X683407D01*
X690166Y248891D01*
X696750Y250655D01*
X703048Y253263D01*
X708951Y256672D01*
X714359Y260821D01*
X719179Y265641D01*
X723328Y271049D01*
X726737Y276952D01*
X729345Y283250D01*
X731109Y289834D01*
X731999Y296593D01*
Y303409D01*
X731109Y310167D01*
X729345Y316751D01*
X726737Y323049D01*
X723328Y328952D01*
X719179Y334360D01*
X714359Y339180D01*
X708951Y343330D01*
X703048Y346738D01*
X696750Y349347D01*
X690166Y351111D01*
X683407Y352001D01*
X676591D01*
X669833Y351111D01*
X663249Y349347D01*
X656951Y346738D01*
X651048Y343330D01*
X646992Y340218D01*
X595299Y391911D01*
X593645Y393017D01*
X591694Y393405D01*
X233805D01*
X197981Y429229D01*
X198467Y430402D01*
X201500D01*
Y430000D01*
X209793D01*
X210553Y429849D01*
X217942D01*
X245896Y401894D01*
X247550Y400789D01*
X249501Y400401D01*
X261499D01*
Y399999D01*
X278499D01*
Y400401D01*
X285499D01*
X287450Y400789D01*
X289104Y401894D01*
X319355Y432145D01*
X320460Y433799D01*
X320848Y435750D01*
Y462888D01*
X323862Y465902D01*
X671337D01*
Y394565D01*
D02*
G37*
%LPC*%
G36*
X205539Y369041D02*
X200769D01*
Y361271D01*
X205539D01*
Y369041D01*
D02*
G37*
G36*
Y358731D02*
X200769D01*
Y350961D01*
X205539D01*
Y358731D01*
D02*
G37*
%LPD*%
D10*
X180499Y360001D02*
D03*
X199499D02*
D03*
X745499Y492501D02*
D03*
X764499D02*
D03*
X764500Y467500D02*
D03*
X745500D02*
D03*
X129500Y488000D02*
D03*
X148500D02*
D03*
D11*
X679999Y300001D02*
D03*
X99999Y100001D02*
D03*
X250000Y100000D02*
D03*
X579999Y199999D02*
D03*
X680001Y99999D02*
D03*
X780001Y200001D02*
D03*
D12*
X106050Y469250D02*
D03*
Y462750D02*
D03*
Y456250D02*
D03*
Y449750D02*
D03*
Y443250D02*
D03*
Y436750D02*
D03*
Y430250D02*
D03*
Y423750D02*
D03*
Y417250D02*
D03*
Y410750D02*
D03*
X163950D02*
D03*
Y417250D02*
D03*
Y423750D02*
D03*
Y430250D02*
D03*
Y436750D02*
D03*
Y443250D02*
D03*
Y449750D02*
D03*
Y456250D02*
D03*
Y462750D02*
D03*
D13*
Y469250D02*
D03*
D14*
X270000Y480000D02*
D03*
X45001Y396899D02*
D03*
X240000Y480000D02*
D03*
D15*
X270000Y450000D02*
D03*
X240000D02*
D03*
D16*
X210001Y489501D02*
D03*
Y470501D02*
D03*
X269999Y405499D02*
D03*
Y424499D02*
D03*
X77500Y430500D02*
D03*
Y449500D02*
D03*
X210000Y454500D02*
D03*
Y435500D02*
D03*
D17*
X45001Y473099D02*
D03*
Y447699D02*
D03*
Y422299D02*
D03*
D18*
X713000Y492000D02*
D03*
Y485000D02*
D03*
Y478000D02*
D03*
Y471000D02*
D03*
Y464000D02*
D03*
Y457000D02*
D03*
Y450000D02*
D03*
Y443000D02*
D03*
Y436000D02*
D03*
Y429000D02*
D03*
Y422000D02*
D03*
Y415000D02*
D03*
D19*
Y408000D02*
D03*
D20*
X189994Y265000D02*
D03*
X489750D02*
D03*
D21*
X145000Y412500D02*
X189994Y367506D01*
Y265000D02*
Y367506D01*
X145000Y412500D02*
Y437071D01*
X676435Y394565D02*
X843730Y227270D01*
Y172730D02*
Y227270D01*
X676435Y394565D02*
Y471000D01*
X148500Y474369D02*
Y488000D01*
X138821Y443250D02*
Y464690D01*
X148500Y474369D01*
X119750Y430250D02*
X127500Y422500D01*
X106050Y430250D02*
X119750D01*
X127500Y217500D02*
Y422500D01*
X106050Y443250D02*
X138821D01*
X145000Y437071D01*
X676435Y471000D02*
X713000D01*
X745500Y467500D02*
Y470000D01*
X96819Y443250D02*
X106050D01*
X240000Y450000D02*
X255000Y465000D01*
X315750D01*
X321750Y471000D01*
X676435D01*
X315750Y435750D02*
Y465000D01*
X269999Y405499D02*
X285499D01*
X220053Y434947D02*
X249501Y405499D01*
X269999D01*
X285499D02*
X315750Y435750D01*
X210553Y434947D02*
X220053D01*
X210000Y435500D02*
X210553Y434947D01*
X45000Y396900D02*
X61000Y412900D01*
Y445571D01*
X63929Y448500D02*
X76500D01*
X61000Y445571D02*
X63929Y448500D01*
X76500D02*
X77500Y449500D01*
X512500Y176500D02*
Y300307D01*
X487807Y325000D02*
X512500Y300307D01*
X285000Y325000D02*
X487807D01*
X189994Y265000D02*
X225000D01*
X285000Y325000D01*
X245000Y100000D02*
X250000D01*
X127500Y217500D02*
X245000Y100000D01*
X579999Y199999D02*
Y262501D01*
X222769Y369497D02*
X473003D01*
X579999Y262501D01*
X512500Y176500D02*
X653000Y36000D01*
X746500Y471500D02*
X749500D01*
X763499Y485499D02*
Y491501D01*
X745500Y467500D02*
Y470500D01*
X746500Y471500D01*
X749500D02*
X763499Y485499D01*
X744500Y471000D02*
X745500Y470000D01*
X713000Y471000D02*
X744500D01*
X763499Y491501D02*
X764499Y492501D01*
X100000Y90000D02*
Y380000D01*
X120000Y400000D02*
Y414321D01*
X100000Y380000D02*
X120000Y400000D01*
X227963Y382037D02*
X512963D01*
X163950Y423750D02*
X177383D01*
X225366Y375767D01*
X163950Y436750D02*
X183250D01*
X179750Y430250D02*
X227963Y382037D01*
X163950Y443250D02*
X186750D01*
X164100Y417100D02*
X175166D01*
X225366Y375767D02*
X489233D01*
X175166Y417100D02*
X222769Y369497D01*
X186750Y443250D02*
X194500Y435500D01*
X210000D01*
X231693Y388307D02*
X591694D01*
X163950Y430250D02*
X179750D01*
X183250Y436750D02*
X231693Y388307D01*
X117071Y417250D02*
X120000Y414321D01*
X106050Y417250D02*
X117071D01*
X77500Y449500D02*
X90569D01*
X96819Y443250D01*
X653000Y36000D02*
X707000D01*
X843730Y172730D01*
X512963Y382037D02*
X694999Y200001D01*
X591694Y388307D02*
X679999Y300001D01*
X489233Y375767D02*
X680001Y184999D01*
X694999Y200001D02*
X780001D01*
X680001Y99999D02*
Y184999D01*
D22*
X699800Y402700D02*
X702804D01*
X702805Y402700D01*
X697500Y405000D02*
X699800Y402700D01*
X697500Y405000D02*
Y426743D01*
X702805Y402700D02*
X723195D01*
X141700Y477583D02*
Y505200D01*
X155583Y473999D02*
Y500583D01*
X114417Y456800D02*
X136300Y478683D01*
X153050Y413833D02*
Y471466D01*
X155583Y500583D02*
X165000Y510000D01*
X153050Y471466D02*
X155583Y473999D01*
X136300Y505550D02*
Y508089D01*
X155583Y411300D02*
X163400D01*
X153050Y413833D02*
X155583Y411300D01*
X136300Y478683D02*
Y505550D01*
X114417Y450300D02*
X141700Y477583D01*
X270000Y424500D02*
Y450000D01*
X240000Y425000D02*
X270000D01*
X220000Y445000D02*
X240000Y425000D01*
X230499Y489501D02*
X240000Y480000D01*
X210001Y489501D02*
X230499D01*
X172751D02*
X210001D01*
X195000Y445000D02*
X220000D01*
X165000Y510000D02*
X800000D01*
X810000Y500000D01*
X48850Y469250D02*
X106050D01*
X45000Y473100D02*
X48850Y469250D01*
X60050Y462750D02*
X106050D01*
X45000Y447700D02*
X60050Y462750D01*
X730000Y485000D02*
X737501Y492501D01*
X713000Y485000D02*
X730000D01*
X737501Y492501D02*
X745499D01*
X150770Y514270D02*
X801769D01*
X805306Y522810D02*
X822810Y505306D01*
X801769Y514270D02*
X814270Y501769D01*
X22250Y503000D02*
X42060Y522810D01*
X805306D01*
X40291Y527080D02*
X807075D01*
X136300Y508089D02*
X146751Y518540D01*
X803537D02*
X818540Y503537D01*
X807075Y527080D02*
X827080Y507075D01*
X17980Y504769D02*
X40291Y527080D01*
X146751Y518540D02*
X803537D01*
X141700Y505200D02*
X150770Y514270D01*
X163950Y449750D02*
X190250D01*
X195000Y445000D01*
X163400Y411300D02*
X163950Y410750D01*
Y469250D02*
Y480700D01*
X172751Y489501D01*
X810000Y455000D02*
Y500000D01*
X805000Y450000D02*
X810000Y455000D01*
X22250Y383789D02*
Y503000D01*
X30000Y370000D02*
X62500D01*
X17980Y382020D02*
Y504769D01*
X106600Y450300D02*
X114417D01*
X106050Y449750D02*
X106600Y450300D01*
Y456800D02*
X114417D01*
X106050Y456250D02*
X106600Y456800D01*
X73230Y386769D02*
Y403230D01*
X93750Y423750D02*
X106050D01*
X73230Y403230D02*
X93750Y423750D01*
X61461Y375000D02*
X73230Y386769D01*
X62500Y370000D02*
X77500Y385000D01*
Y400000D02*
X88250Y410750D01*
X77500Y385000D02*
Y400000D01*
X31039Y375000D02*
X61461D01*
X88250Y410750D02*
X106050D01*
X17980Y382020D02*
X30000Y370000D01*
X22250Y383789D02*
X31039Y375000D01*
X723195Y402700D02*
X723196Y402700D01*
X781855D01*
X697500Y426743D02*
X699257Y428500D01*
X702743Y428500D02*
X712500D01*
X702743Y428500D02*
X702743Y428500D01*
X712500D02*
X713000Y429000D01*
X699257Y428500D02*
X702743D01*
X795116Y422000D02*
X822810Y449694D01*
X818540Y451463D02*
Y503537D01*
X804039Y443000D02*
X814270Y453231D01*
Y501769D01*
X713000Y450000D02*
X805000D01*
X713000Y443000D02*
X804039D01*
X822810Y449694D02*
Y505306D01*
X803077Y436000D02*
X818540Y451463D01*
X713000Y436000D02*
X803077D01*
X713000Y422000D02*
X795116D01*
X781855Y402700D02*
X827080Y447925D01*
Y507075D01*
M02*
