G04*
G04 #@! TF.GenerationSoftware,Altium Limited,Altium Designer,24.7.2 (38)*
G04*
G04 Layer_Color=128*
%FSLAX44Y44*%
%MOMM*%
G71*
G04*
G04 #@! TF.SameCoordinates,6DF0CBF5-DEE5-4F27-B30F-A21075B38201*
G04*
G04*
G04 #@! TF.FilePolarity,Positive*
G04*
G01*
G75*
%ADD10R,0.7000X1.3000*%
%ADD11C,10.0000*%
%ADD12R,1.5200X0.4100*%
%ADD13O,1.5200X0.4100*%
%ADD14C,1.5000*%
%ADD15R,1.5000X1.5000*%
%ADD16R,1.3000X0.7000*%
%ADD17R,1.5000X1.5000*%
%ADD18R,2.0000X0.4000*%
%ADD19O,2.0000X0.4000*%
%ADD20R,3.5000X4.2000*%
D10*
X180499Y360001D02*
D03*
X199499D02*
D03*
X745499Y492501D02*
D03*
X764499D02*
D03*
X764500Y467500D02*
D03*
X745500D02*
D03*
X129500Y488000D02*
D03*
X148500D02*
D03*
D11*
X679999Y300001D02*
D03*
X99999Y100001D02*
D03*
X250000Y100000D02*
D03*
X579999Y199999D02*
D03*
X680001Y99999D02*
D03*
X780001Y200001D02*
D03*
D12*
X106050Y469250D02*
D03*
Y462750D02*
D03*
Y456250D02*
D03*
Y449750D02*
D03*
Y443250D02*
D03*
Y436750D02*
D03*
Y430250D02*
D03*
Y423750D02*
D03*
Y417250D02*
D03*
Y410750D02*
D03*
X163950D02*
D03*
Y417250D02*
D03*
Y423750D02*
D03*
Y430250D02*
D03*
Y436750D02*
D03*
Y443250D02*
D03*
Y449750D02*
D03*
Y456250D02*
D03*
Y462750D02*
D03*
D13*
Y469250D02*
D03*
D14*
X270000Y480000D02*
D03*
X45001Y396899D02*
D03*
X240000Y480000D02*
D03*
D15*
X270000Y450000D02*
D03*
X240000D02*
D03*
D16*
X210001Y489501D02*
D03*
Y470501D02*
D03*
X269999Y405499D02*
D03*
Y424499D02*
D03*
X77500Y430500D02*
D03*
Y449500D02*
D03*
X210000Y454500D02*
D03*
Y435500D02*
D03*
D17*
X45001Y473099D02*
D03*
Y447699D02*
D03*
Y422299D02*
D03*
D18*
X713000Y492000D02*
D03*
Y485000D02*
D03*
Y478000D02*
D03*
Y471000D02*
D03*
Y464000D02*
D03*
Y457000D02*
D03*
Y450000D02*
D03*
Y443000D02*
D03*
Y436000D02*
D03*
Y429000D02*
D03*
Y422000D02*
D03*
Y415000D02*
D03*
D19*
Y408000D02*
D03*
D20*
X189994Y265000D02*
D03*
X489750D02*
D03*
M02*
