G04*
G04 #@! TF.GenerationSoftware,Altium Limited,Altium Designer,24.7.2 (38)*
G04*
G04 Layer_Physical_Order=1*
G04 Layer_Color=255*
%FSLAX44Y44*%
%MOMM*%
G71*
G04*
G04 #@! TF.SameCoordinates,6DF0CBF5-DEE5-4F27-B30F-A21075B38201*
G04*
G04*
G04 #@! TF.FilePolarity,Positive*
G04*
G01*
G75*
G36*
X815995Y537761D02*
X818483D01*
X823417Y537111D01*
X828223Y535824D01*
X832821Y533919D01*
X837130Y531431D01*
X841078Y528402D01*
X844597Y524883D01*
X847626Y520935D01*
X850114Y516626D01*
X852019Y512028D01*
X853307Y507222D01*
X853956Y502286D01*
X853961Y499796D01*
X853961Y40000D01*
Y40000D01*
D01*
X853961Y37512D01*
X853311Y32578D01*
X852023Y27772D01*
X850119Y23174D01*
X847631Y18865D01*
X844602Y14917D01*
X841083Y11398D01*
X837135Y8369D01*
X832826Y5881D01*
X828228Y3977D01*
X823422Y2689D01*
X818488Y2039D01*
X816000D01*
X40000Y2039D01*
X37512D01*
X32578Y2689D01*
X27772Y3977D01*
X23174Y5881D01*
X18865Y8369D01*
X14917Y11398D01*
X11398Y14917D01*
X8369Y18865D01*
X5881Y23174D01*
X3977Y27771D01*
X2689Y32578D01*
X2039Y37512D01*
X2039Y40000D01*
D01*
X2039Y499800D01*
Y502288D01*
X2688Y507222D01*
X3976Y512028D01*
X5881Y516626D01*
X8369Y520935D01*
X11398Y524883D01*
X14917Y528402D01*
X18865Y531431D01*
X23174Y533919D01*
X27771Y535823D01*
X32578Y537111D01*
X37512Y537761D01*
X40000Y537761D01*
X815995Y537761D01*
D02*
G37*
M02*
